<svg width="90" height="90" viewBox="0 0 90 90" fill="none" xmlns="http://www.w3.org/2000/svg">
<path d="M33.25 39.6752H23.6098C22.7249 39.6752 22.0094 40.3907 22 41.285V65.3855C22 66.2798 22.7249 66.9953 23.6098 66.9953H33.25C34.1444 66.9953 34.8598 66.2704 34.8598 65.3855V41.285C34.8598 40.3907 34.1349 39.6752 33.25 39.6752Z" fill="#7952B3"/>
<path d="M49.3201 22.0052H39.6799C38.795 22.0052 38.0701 22.7207 38.0701 23.6057V65.386C38.0701 66.2804 38.795 66.9959 39.6799 66.9959H49.3201C50.2144 66.9959 50.9299 66.271 50.9299 65.386V23.6151C50.9299 22.7207 50.205 22.0052 49.3201 22.0052Z" fill="#7952B3"/>
<path d="M65.3902 34.8552H55.75C54.8556 34.8552 54.1402 35.5706 54.1402 36.465V65.3855C54.1402 66.2798 54.8651 66.9953 55.75 66.9953H65.3902C66.2845 66.9953 67 66.2704 67 65.3855V36.465C67 35.5706 66.2751 34.8552 65.3902 34.8552Z" fill="#7952B3"/>
<circle cx="45" cy="45" r="40" stroke="#7952B3" stroke-width="10"/>
</svg>
