<svg height="609.524" viewBox="0 0 457.143 457.143" width="609.524" xmlns="http://www.w3.org/2000/svg"><path d="M377.95 288.023c-.497 1.329-1.16 2.817-1.657 4.141l24.508 74.524-34.113 34.113-74.36-24.508c-1.488.496-2.812 1.16-4.305 1.656L252.582 448h-48.023l-35.442-70.05c-1.488-.497-2.812-1.16-4.304-1.657l-74.356 24.508-34.117-34.114 24.512-74.523c-.5-1.324-1.16-2.812-1.657-4.14l-70.05-35.438v-48.027l70.05-35.438a43.925 43.925 0 0 1 1.82-4.14L56.34 90.456 90.457 56.34l74.356 24.512c1.492-.497 2.816-1.16 4.304-1.657l35.442-70.05h48.023l35.441 70.05c1.493.496 2.817 1.16 4.305 1.657l74.36-24.512L400.8 90.457l-24.676 74.523a43.97 43.97 0 0 1 1.824 4.141L448 204.56v48.027zm0 0" fill="#4b6981"/><path d="M252.586 457.145h-48.027a9.134 9.134 0 0 1-8.157-5.02l-33.222-65.66-69.864 23.027a9.183 9.183 0 0 1-9.324-2.222l-34.117-34.118a9.128 9.128 0 0 1-2.219-9.32l22.98-69.887-65.624-33.203A9.155 9.155 0 0 1 0 252.582v-48.02a9.155 9.155 0 0 1 5.012-8.16l65.758-33.27-23.11-69.8a9.132 9.132 0 0 1 2.215-9.34l34.117-34.117c2.445-2.438 6.07-3.277 9.324-2.223L163.18 70.68l33.222-65.66A9.134 9.134 0 0 1 204.56 0h48.027a9.134 9.134 0 0 1 8.156 5.02l33.223 65.667 69.86-23.035c3.273-1.054 6.886-.215 9.327 2.223l34.118 34.117a9.13 9.13 0 0 1 2.21 9.34l-23.109 69.8 65.758 33.27a9.152 9.152 0 0 1 5.016 8.16v48.02a9.152 9.152 0 0 1-5.016 8.16L386.5 293.945l22.988 69.887a9.136 9.136 0 0 1-2.218 9.32l-34.118 34.118c-2.441 2.445-6.054 3.285-9.328 2.222l-69.86-23.035-33.222 65.668a9.134 9.134 0 0 1-8.156 5.02zm-42.406-18.29h36.785l32.902-65.035a9.158 9.158 0 0 1 5.293-4.562c.531-.168 1.031-.383 1.531-.59a44.023 44.023 0 0 1 2.778-1.063 9.242 9.242 0 0 1 5.722 0l69.016 22.75 26.156-26.16-22.758-69.175a9.103 9.103 0 0 1 .137-6.09l1.64-4.118a9.171 9.171 0 0 1 4.434-4.945l65.04-32.902V210.18l-65.04-32.903a9.185 9.185 0 0 1-4.433-4.945 33.93 33.93 0 0 0-1.422-3.242 9.134 9.134 0 0 1-.516-6.985l22.907-69.168-26.145-26.152-69.016 22.75a9.185 9.185 0 0 1-5.722 0 41.75 41.75 0 0 1-2.778-1.062c-.5-.203-1-.418-1.53-.59a9.144 9.144 0 0 1-5.294-4.563l-32.902-65.035H210.18L177.273 83.32a9.12 9.12 0 0 1-5.293 4.555c-.523.18-1.02.395-1.52.598-.91.375-1.823.742-2.784 1.062-1.86.61-3.867.61-5.727 0l-69.011-22.75-26.149 26.152 22.902 69.168a9.156 9.156 0 0 1-.5 6.965 35.721 35.721 0 0 0-1.449 3.278 9.15 9.15 0 0 1-4.422 4.93L18.285 210.18v36.785l65.035 32.902a9.155 9.155 0 0 1 4.422 4.926l1.668 4.152a9.18 9.18 0 0 1 .121 6.075l-22.75 69.175 26.157 26.16 69.011-22.75a9.254 9.254 0 0 1 5.727 0 45.2 45.2 0 0 1 2.785 1.063c.5.207.996.422 1.52.602a9.113 9.113 0 0 1 5.292 4.55zm0 0" fill="#2a3d4f"/><path d="M337.297 228.57c0 60.04-48.672 108.711-108.707 108.711-60.04 0-108.711-48.672-108.711-108.71 0-60.036 48.672-108.708 108.71-108.708 60.036 0 108.708 48.672 108.708 108.707zm0 0" fill="#e7e4f3"/><g fill="#2a3d4f"><path d="M228.59 346.418c-64.985 0-117.852-52.863-117.852-117.848 0-64.98 52.867-117.847 117.852-117.847 64.98 0 117.851 52.867 117.851 117.847 0 64.985-52.87 117.848-117.851 117.848zm0-217.41c-54.903 0-99.567 44.66-99.567 99.562 0 54.903 44.665 99.563 99.567 99.563s99.566-44.66 99.566-99.563c0-54.902-44.664-99.562-99.566-99.562zm0 0"/><path d="m175.793 242.55-7.676 23.25h-9.867l25.105-73.913h11.52l25.223 73.914h-10.203L202 242.55zm24.234-7.456-7.234-21.27c-1.648-4.828-2.738-9.21-3.836-13.488h-.227c-1.097 4.383-2.3 8.883-3.722 13.375l-7.238 21.383zM230.98 192.773c4.61-.77 10.645-1.43 18.313-1.43 9.437 0 16.34 2.196 20.727 6.145 4.062 3.508 6.472 8.883 6.472 15.453 0 6.696-1.972 11.957-5.707 15.797-5.035 5.375-13.265 8.114-22.578 8.114-2.86 0-5.492-.114-7.68-.66V265.8h-9.547zm9.547 35.633c2.078.543 4.715.77 7.891.77 11.52 0 18.539-5.59 18.539-15.79 0-9.757-6.914-14.48-17.437-14.48-4.172 0-7.352.332-8.993.77zM298.895 191.887V265.8h-9.547v-73.914zm0 0"/></g></svg>