<svg width="107" height="140" viewBox="0 0 107 140" fill="none" xmlns="http://www.w3.org/2000/svg">
<path d="M53.4347 139.646L9.88982 128.43L0.186035 27.4437H106.814L97.0998 128.414L53.4347 139.646Z" fill="#264DE4"/>
<path d="M88.7835 121.985L97.0848 35.7009H53.4999V131.061L88.7835 121.985Z" fill="#2965F1"/>
<path d="M22.4318 73.1553L23.6282 85.5407H53.5V73.1553H22.4318Z" fill="#EBEBEB"/>
<path d="M20.0278 48.0866L21.2412 60.4723H53.5V48.0866H20.0278Z" fill="#EBEBEB"/>
<path d="M53.5 105.322L53.4415 105.336L38.575 101.612L37.6246 91.7337H24.2246L26.0948 111.181L53.4386 118.224L53.5 118.208V105.322Z" fill="#EBEBEB"/>
<path d="M25.2802 0H41.4477V6.27317H32.0411V12.5463H41.4477V18.8195H25.2802V0Z" fill="black"/>
<path d="M44.6813 0H60.8489V5.45493H51.4423V6.54592H60.8489V19.0923H44.6813V13.3646H54.0879V12.2736H44.6813V0Z" fill="black"/>
<path d="M64.0824 0H80.25V5.45493H70.8434V6.54592H80.25V19.0923H64.0824V13.3646H73.489V12.2736H64.0824V0Z" fill="black"/>
<path d="M84.4826 73.1553L86.8925 48.0866H53.4538V60.4723H72.2635L71.0488 73.1553H53.4538V85.5407H69.8912L68.3418 101.604L53.4538 105.332V118.218L80.8193 111.181L81.0201 109.088L84.1569 76.4812L84.4826 73.1553Z" fill="white"/>
</svg>
