<svg width="30" height="30" viewBox="0 0 30 30" fill="none" xmlns="http://www.w3.org/2000/svg">
<g clip-path="url(#clip0)">
<path d="M14.1805 20.0195C13.9243 20.0195 13.6793 19.9145 13.503 19.7295L6.94053 12.8545C6.37178 12.2595 6.79428 11.2695 7.61803 11.2695H11.0555V4.08203C11.0555 3.22078 11.7568 2.51953 12.618 2.51953H15.743C16.6043 2.51953 17.3055 3.22078 17.3055 4.08203V11.2695H20.743C21.5668 11.2695 21.9893 12.2595 21.4205 12.8545L14.858 19.7295C14.6818 19.9145 14.4368 20.0195 14.1805 20.0195Z" fill="#FFC107"/>
<path d="M27.8125 27.5H2.1875C0.98125 27.5 0 26.5188 0 25.3125V24.6875C0 23.4813 0.98125 22.5 2.1875 22.5H27.8125C29.0187 22.5 30 23.4813 30 24.6875V25.3125C30 26.5188 29.0187 27.5 27.8125 27.5Z" fill="#FFC107"/>
</g>
<defs>
<clipPath id="clip0">
<rect width="30" height="30" fill="white"/>
</clipPath>
</defs>
</svg>
