<svg width="32" height="22" viewBox="0 0 32 22" fill="none" xmlns="http://www.w3.org/2000/svg">
<path d="M21.2119 11.164L31.9999 17.984V4.05601L21.2119 11.164Z" fill="#7952B3"/>
<path d="M0 4.05601V17.984L10.788 11.164L0 4.05601Z" fill="#7952B3"/>
<path d="M30.0001 0H2.00006C1.00206 0 0.210059 0.744 0.0600586 1.702L16.0001 12.204L31.9401 1.702C31.7901 0.744 30.9981 0 30.0001 0Z" fill="#7952B3"/>
<path d="M19.38 12.372L16.55 14.236C16.382 14.346 16.192 14.4 16 14.4C15.808 14.4 15.618 14.346 15.45 14.236L12.62 12.37L0.0639648 20.312C0.217965 21.262 1.00596 22 1.99996 22H30C30.994 22 31.782 21.262 31.936 20.312L19.38 12.372Z" fill="#7952B3"/>
</svg>
