<svg width="302" height="343" viewBox="0 0 302 343" fill="none" xmlns="http://www.w3.org/2000/svg">
<path d="M302 171.5C302 266.217 215.625 343 109.075 343C2.52549 343 0 322.276 0 227.559C0 132.842 2.52549 0 109.075 0C226.558 196.831 302 76.7832 302 171.5Z" fill="#FFC107" fill-opacity="0.5"/>
<path d="M263.321 142.135C262.813 141.79 250.66 133.57 245.793 130.755C237.831 126.148 229.121 121.633 221.268 118.074L218.621 116.866C196.943 107.013 172.378 95.832 150.591 86.9086C150.206 86.7479 149.793 86.7479 149.406 86.9086C126.106 96.8544 106.289 107.106 88.3437 116.72L78.7488 121.832C57.1404 133.331 36.7364 144.193 14.1924 159.292C13.5116 159.738 13.0797 160.662 13.0797 161.675C13.0797 162.687 13.5116 163.611 14.1924 164.059C22.6924 169.503 31.292 174.615 39.6129 179.542C48.3617 184.747 57.3295 190.072 66.3272 195.875C66.168 205.276 66.0386 214.465 66.0087 224.305C66.0087 235.379 66.148 245.299 66.576 255.523C66.6955 258.471 66.795 261.791 66.8945 265.283C67.1135 272.812 67.3723 281.351 67.9496 288.309C68.0212 289.182 68.4124 289.954 68.9947 290.367C82.4713 299.848 97.5702 303.38 112.182 306.78C116.866 307.753 121.604 308.196 126.345 308.107C138.149 308.107 153.875 306.142 173.344 302.212C184.641 299.928 201.571 293.142 212.102 281.497C212.548 281 212.811 280.267 212.818 279.492C212.818 279.492 213.395 235.924 213.614 220.905C213.734 212.261 213.694 199.832 213.614 188.053C222.572 180.737 231.779 173.234 239.742 166.21C246.201 160.513 263.251 146.902 263.43 146.77C264.052 146.27 264.421 145.361 264.395 144.394C264.368 143.427 263.949 142.558 263.301 142.122L263.321 142.135Z" fill="#3B3B3B"/>
<path d="M138.449 156.475H138.18C137.656 156.381 137.181 156.01 136.862 155.447C136.543 154.884 136.405 154.174 136.478 153.474L137.205 146.41C137.356 144.944 138.369 143.919 139.469 144.119C140.568 144.321 141.337 145.674 141.186 147.14L140.45 154.205C140.304 155.524 139.448 156.497 138.449 156.475Z" fill="black"/>
<path d="M134.1 153.21C133.945 151.757 132.938 150.747 131.85 150.952C131.402 151.045 86.8617 159.517 75.0373 161.921C66.2685 163.713 56.385 166.236 43.9236 169.888C35.1151 172.451 34.498 175.412 33.3136 187.522V187.788C32.4775 196.313 32.5073 205.9 32.5372 215.182C32.5372 218.316 32.5372 221.317 32.5372 224.225C30.9128 224.444 29.3691 225.278 28.0881 226.629C26.7375 228.11 25.9591 230.324 25.9681 232.657C25.8198 235.735 27.2401 238.562 29.4318 239.549L29.2726 239.947C27.1983 245.64 25.4515 251.536 24.0471 257.581C22.7184 264.829 21.738 272.183 21.1109 279.598C21.0343 280.592 21.3827 281.56 22.0137 282.102C22.6447 282.643 23.4489 282.665 24.0969 282.161C24.0969 282.825 23.9775 283.488 23.8879 284.099C23.6878 285.54 24.4005 286.925 25.4804 287.193C25.6018 287.212 25.7262 287.212 25.8487 287.193C26.8221 287.215 27.6641 286.293 27.8393 285.016C28.1598 282.34 28.329 279.638 28.3469 276.929C28.3658 274.682 28.4853 272.438 28.7052 270.21C28.964 268.032 29.3124 265.841 29.6408 263.716C29.9394 261.871 30.2281 259.985 30.4769 258.06C30.4769 259.281 30.4072 260.503 30.3773 261.711C30.3176 264.234 30.2579 266.85 30.1285 269.386C30.0141 271.199 29.8309 273.002 29.5811 274.791C29.1671 277.532 28.9511 280.32 28.9341 283.117C28.9341 284.583 29.8249 285.772 30.9248 285.772H30.9745C32.0535 285.737 32.9154 284.557 32.9154 283.117C32.9413 280.659 33.1374 278.209 33.5027 275.8C33.7794 273.836 33.9784 271.855 34.0998 269.864C34.2392 267.209 34.2989 264.553 34.3586 262.003C34.4183 259.454 34.488 256.692 34.6174 254.142C34.6771 253.067 34.707 251.978 34.7368 250.889C35.334 256.2 35.6426 261.658 35.7322 263.783C36.1502 272.055 36.2099 278.018 36.1801 286.144C36.1801 287.61 37.0709 288.8 38.1707 288.8C39.2695 288.8 40.1613 287.61 40.1613 286.144C40.1613 277.898 40.1613 271.83 39.7035 263.398C39.7035 262.813 39.6338 262.07 39.584 261.326C40.7565 266.562 41.5817 271.925 42.0524 277.354C42.15 278.721 43.0129 279.764 44.0431 279.757H44.2421C44.7687 279.689 45.2544 279.346 45.5908 278.8C45.9262 278.254 46.0855 277.551 46.0337 276.849C45.4266 268.576 43.5653 260.304 41.7638 252.296C40.8581 248.313 40.0021 244.435 39.3054 240.664C39.7204 240.449 40.1146 240.168 40.4798 239.828C41.8434 238.524 42.6516 236.422 42.6496 234.184C42.8188 228.673 40.7585 225.447 36.4986 224.584C36.4986 221.569 36.4986 218.475 36.4986 215.288C36.4986 206.179 36.4388 196.764 37.2451 188.598V188.332C38.32 177.271 38.3499 177.059 44.7498 175.186C57.1315 171.574 66.9354 169.065 75.6046 167.299C87.4191 164.882 131.93 156.423 132.338 156.33C132.891 156.257 133.396 155.878 133.731 155.285C134.066 154.692 134.199 153.94 134.1 153.21Z" fill="#7952B3"/>
<path d="M139.075 244.754C138.816 244.754 138.559 244.686 138.319 244.555C138.12 244.449 118.024 233.52 109.096 228.514C98.695 222.698 77.5246 208.888 67.5216 201.956C66.8378 201.563 66.375 200.692 66.3243 199.699C66.2735 198.707 66.6428 197.76 67.2808 197.246C67.9188 196.731 68.718 196.735 69.353 197.256C79.3062 204.161 100.337 217.878 110.639 223.654C118.512 228.063 135.104 237.092 138.995 239.217C146.012 234.609 196.873 201.16 210.509 189.793C211.444 189.016 212.674 189.397 213.256 190.643C213.839 191.89 213.554 193.531 212.619 194.308C197.859 206.591 142.31 242.962 139.961 244.515C139.682 244.681 139.381 244.762 139.075 244.754Z" fill="black"/>
</svg>
