<svg width="302" height="343" viewBox="0 0 302 343" fill="none" xmlns="http://www.w3.org/2000/svg">
<path d="M302 171.5C302 266.217 215.625 343 109.075 343C2.52549 343 0 322.276 0 227.559C0 132.842 2.52549 0 109.075 0C226.558 196.831 302 76.7832 302 171.5Z" fill="#FFC107" fill-opacity="0.5"/>
<path fill-rule="evenodd" clip-rule="evenodd" d="M35.0348 277.373H243.842V260.187H35.0348V277.373Z" fill="#7952B3"/>
<path fill-rule="evenodd" clip-rule="evenodd" d="M35.0348 291.915H243.842V283.653H35.0348V291.915Z" fill="#E7F3F7"/>
<path fill-rule="evenodd" clip-rule="evenodd" d="M243.842 297.865H130.665V306.458H243.842V297.865Z" fill="#E4E4E4"/>
<path fill-rule="evenodd" clip-rule="evenodd" d="M124.962 297.865H91.6234V306.458H124.962V297.865Z" fill="#E4E4E4"/>
<path fill-rule="evenodd" clip-rule="evenodd" d="M243.842 248.619H35.0349V94.2627H243.842V248.619Z" fill="#7952B3"/>
<path fill-rule="evenodd" clip-rule="evenodd" d="M140.755 169.799H225.418V106.086H140.755V169.799Z" fill="#C8AFED"/>
<path d="M143.962 167.395L164.245 148.446L168.923 153.019L179.633 139.84L183.247 143.011L187.664 137.919L193.396 150.27L210.111 128.573L212.049 131.637L222.532 116.665" stroke="#E7F2F6" stroke-width="6" stroke-linecap="round" stroke-linejoin="round"/>
<path fill-rule="evenodd" clip-rule="evenodd" d="M84.166 175.218L128.251 208.552L172.339 175.218L128.251 141.883L84.166 175.218Z" fill="#E4E4E4"/>
<path fill-rule="evenodd" clip-rule="evenodd" d="M142.583 180.994L117.03 199.994L125.464 206.266L151.017 187.265L142.583 180.994Z" fill="#C8AFED"/>
<path fill-rule="evenodd" clip-rule="evenodd" d="M125.925 178.587L107.091 192.552L115.51 198.805L134.344 184.839L125.925 178.587Z" fill="#C8AFED"/>
<path fill-rule="evenodd" clip-rule="evenodd" d="M125.88 163.184L96.8307 185.256L105.295 191.584L134.344 169.51L125.88 163.184Z" fill="#C8AFED"/>
<path fill-rule="evenodd" clip-rule="evenodd" d="M124.178 149.345L87.6928 177.716L96.0958 184.003L132.581 155.63L124.178 149.345Z" fill="#7952B3"/>
<path fill-rule="evenodd" clip-rule="evenodd" d="M216.645 232.527H208.61V166.242C208.61 164.579 210.409 163.23 212.628 163.23C214.846 163.23 216.645 164.579 216.645 166.242V232.527Z" fill="#E4E4E4"/>
<path fill-rule="evenodd" clip-rule="evenodd" d="M203.79 232.527H195.755V199.446C195.755 197.783 197.554 196.435 199.772 196.435C201.991 196.435 203.79 197.783 203.79 199.446V232.527Z" fill="#E4E4E4"/>
<path fill-rule="evenodd" clip-rule="evenodd" d="M164.581 232.527H156.547V199.446C156.547 197.783 158.345 196.435 160.564 196.435C162.783 196.435 164.581 197.783 164.581 199.446V232.527Z" fill="#E4E4E4"/>
<path fill-rule="evenodd" clip-rule="evenodd" d="M190.934 232.527H182.9V187.175C182.9 185.512 184.698 184.164 186.917 184.164C189.136 184.164 190.934 185.512 190.934 187.175V232.527Z" fill="#E4E4E4"/>
<path fill-rule="evenodd" clip-rule="evenodd" d="M177.437 232.527H169.402V216.77C169.402 215.107 171.201 213.759 173.419 213.759C175.638 213.759 177.437 215.107 177.437 216.77V232.527Z" fill="#E4E4E4"/>
<path fill-rule="evenodd" clip-rule="evenodd" d="M53.4591 187.384L90.0671 214.792L102.152 205.746L65.5414 178.338L53.4591 187.384Z" fill="#C8AFED"/>
<path fill-rule="evenodd" clip-rule="evenodd" d="M110.924 210.813C119.085 210.813 125.701 215.823 125.701 222.003C125.701 228.184 119.085 233.194 110.924 233.194C102.765 233.194 96.149 228.184 96.149 222.003C96.149 215.823 102.765 210.813 110.924 210.813ZM110.924 215.701C106.37 215.701 102.678 218.523 102.678 222.003C102.678 225.484 106.37 228.306 110.924 228.306C115.48 228.306 119.172 225.484 119.172 222.003C119.172 218.523 115.48 215.701 110.924 215.701Z" fill="#C8AFED"/>
<path fill-rule="evenodd" clip-rule="evenodd" d="M120.926 213.918C126.697 218.244 126.648 225.293 120.819 229.663C116.684 232.763 110.752 233.682 105.592 232.412L107.652 227.772C110.541 228.476 113.872 227.949 116.202 226.202C119.485 223.741 119.536 219.789 116.315 217.374C113.095 214.96 107.822 214.999 104.539 217.46C102.209 219.206 101.507 221.703 102.445 223.869L96.2552 225.413C94.5608 221.546 95.7876 217.099 99.9228 213.999C105.752 209.629 115.156 209.593 120.926 213.918Z" fill="#E4E4E4"/>
<path d="M128.472 106.206H56.9685" stroke="#E4E4E4" stroke-width="4" stroke-linecap="round" stroke-linejoin="round"/>
<path d="M128.472 111.257H56.9685" stroke="#E4E4E4" stroke-width="4" stroke-linecap="round" stroke-linejoin="round"/>
<path d="M128.472 116.307H56.9685" stroke="#E4E4E4" stroke-width="4" stroke-linecap="round" stroke-linejoin="round"/>
<path d="M128.472 136.508H56.9684M128.472 121.598H56.9684H128.472ZM128.472 126.408H56.9684H128.472ZM128.472 131.458H56.9684H128.472Z" stroke="#E4E4E4" stroke-width="4" stroke-linecap="round" stroke-linejoin="round"/>
</svg>
