<svg width="391" height="90" viewBox="0 0 391 90" fill="none" xmlns="http://www.w3.org/2000/svg">
<path d="M33.25 39.6752H23.6098C22.7249 39.6752 22.0094 40.3907 22 41.2851V65.3855C22 66.2798 22.7249 66.9953 23.6098 66.9953H33.25C34.1444 66.9953 34.8598 66.2704 34.8598 65.3855V41.2851C34.8598 40.3907 34.1349 39.6752 33.25 39.6752Z" fill="#7952B3"/>
<path d="M49.3201 22.0052H39.6799C38.795 22.0052 38.0701 22.7207 38.0701 23.6057V65.386C38.0701 66.2804 38.795 66.9959 39.6799 66.9959H49.3201C50.2144 66.9959 50.9299 66.271 50.9299 65.386V23.6151C50.9299 22.7207 50.205 22.0052 49.3201 22.0052Z" fill="#7952B3"/>
<path d="M65.3902 34.8552H55.75C54.8556 34.8552 54.1402 35.5706 54.1402 36.465V65.3855C54.1402 66.2798 54.8651 66.9953 55.75 66.9953H65.3902C66.2845 66.9953 67 66.2704 67 65.3855V36.465C67 35.5706 66.2751 34.8552 65.3902 34.8552Z" fill="#7952B3"/>
<circle cx="45" cy="45" r="40" stroke="white" stroke-width="10"/>
<path d="M116.98 40.42C116.98 42.724 116.524 44.692 115.612 46.324C114.7 47.956 113.428 49.204 111.796 50.068C110.188 50.956 108.316 51.436 106.18 51.508V46.432C107.812 46.336 109.144 45.832 110.176 44.92C111.208 44.008 111.724 42.472 111.724 40.312V19.504H116.98V40.42ZM120.143 46L132.095 18.46H132.383L144.335 46H138.287L136.235 40.816H127.451L125.291 46H120.143ZM129.287 36.424H134.507L131.951 29.98L129.287 36.424ZM151.487 37.756L141.731 19.504H148.175L154.259 31.744L160.199 19.504H166.643L156.707 37.756V46H151.487V37.756ZM182.299 46V18.424H182.335L195.763 37.468L209.515 18.424H209.587V46H204.367V33.364L195.727 45.64H195.655L187.339 34.156V46H182.299ZM236.308 43.804C236.02 44.044 235.48 44.368 234.688 44.776C233.92 45.184 232.972 45.544 231.844 45.856C230.716 46.168 229.468 46.312 228.1 46.288C226.012 46.24 224.14 45.868 222.484 45.172C220.852 44.452 219.46 43.48 218.308 42.256C217.18 41.032 216.316 39.628 215.716 38.044C215.116 36.46 214.816 34.768 214.816 32.968C214.816 30.28 215.356 27.904 216.436 25.84C217.516 23.776 219.016 22.156 220.936 20.98C222.88 19.804 225.136 19.216 227.704 19.216C229.48 19.216 231.052 19.456 232.42 19.936C233.788 20.416 234.904 20.932 235.768 21.484L233.716 26.416C233.116 25.96 232.312 25.492 231.304 25.012C230.32 24.508 229.18 24.256 227.884 24.256C226.54 24.256 225.28 24.628 224.104 25.372C222.952 26.116 222.016 27.124 221.296 28.396C220.6 29.644 220.252 31.072 220.252 32.68C220.252 34.384 220.576 35.884 221.224 37.18C221.872 38.452 222.796 39.448 223.996 40.168C225.196 40.888 226.6 41.248 228.208 41.248C229.624 41.248 230.836 41.02 231.844 40.564C232.852 40.108 233.62 39.628 234.148 39.124L236.308 43.804ZM246.829 28.936L246.685 30.268L247.477 29.26L256.117 19.504H262.885L251.941 31.384L262.921 46H256.297L248.125 34.696L246.829 35.992V46H241.537V19.504H246.829V28.936ZM266.885 19.504H284.957V24.544H272.105V30.196H283.481V35.236H272.105V40.96H285.461V46H266.885V19.504ZM314.585 47.08L296.045 30.34L296.153 46H290.861V18.46H291.077L309.581 35.452L309.473 19.504H314.729V47.08H314.585ZM319.753 46L333.217 24.544H325.153C324.649 24.544 324.121 24.436 323.569 24.22C323.041 23.98 322.585 23.668 322.201 23.284C321.841 22.876 321.661 22.432 321.661 21.952V18.172H326.449V18.676C326.449 19.204 326.533 19.48 326.701 19.504C326.869 19.504 327.169 19.504 327.601 19.504H342.325L328.717 40.96H342.289V46H319.753ZM347.533 19.504H352.753V46H347.533V19.504ZM359.592 19.504H377.664V24.544H364.812V30.196H376.188V35.236H364.812V40.96H378.168V46H359.592V19.504Z" fill="white"/>
<path d="M111.496 61.648H121.792V63.88H113.824V69.4H120.808V71.632H113.824V79H111.496V61.648ZM126.553 69.064L126.721 71.392C126.993 70.832 127.369 70.352 127.849 69.952C128.329 69.536 128.825 69.224 129.337 69.016C129.865 68.792 130.321 68.672 130.705 68.656L130.609 70.888C129.857 70.856 129.193 71.008 128.617 71.344C128.041 71.664 127.593 72.104 127.273 72.664C126.953 73.224 126.793 73.824 126.793 74.464V79H124.561V69.064H126.553ZM132.299 73.936C132.299 72.944 132.531 72.048 132.995 71.248C133.475 70.448 134.131 69.816 134.963 69.352C135.795 68.888 136.747 68.656 137.819 68.656C138.891 68.656 139.835 68.888 140.651 69.352C141.467 69.816 142.099 70.448 142.547 71.248C143.011 72.048 143.243 72.944 143.243 73.936C143.243 74.928 143.011 75.824 142.547 76.624C142.099 77.424 141.459 78.064 140.627 78.544C139.811 79.008 138.859 79.24 137.771 79.24C136.715 79.24 135.771 79.024 134.939 78.592C134.123 78.16 133.475 77.544 132.995 76.744C132.531 75.944 132.299 75.008 132.299 73.936ZM134.555 73.96C134.555 74.6 134.691 75.184 134.963 75.712C135.251 76.224 135.635 76.632 136.115 76.936C136.595 77.24 137.139 77.392 137.747 77.392C138.371 77.392 138.923 77.24 139.403 76.936C139.883 76.632 140.259 76.224 140.531 75.712C140.819 75.184 140.963 74.6 140.963 73.96C140.963 73.32 140.819 72.744 140.531 72.232C140.259 71.704 139.883 71.288 139.403 70.984C138.923 70.664 138.371 70.504 137.747 70.504C137.139 70.504 136.587 70.664 136.091 70.984C135.611 71.304 135.235 71.728 134.963 72.256C134.691 72.768 134.555 73.336 134.555 73.96ZM148.257 69.064L148.401 70.984C148.737 70.28 149.257 69.72 149.961 69.304C150.665 68.888 151.481 68.68 152.409 68.68C153.337 68.68 154.097 68.96 154.689 69.52C155.297 70.064 155.617 70.776 155.649 71.656V79H153.393V72.424C153.361 71.896 153.193 71.464 152.889 71.128C152.601 70.792 152.145 70.616 151.521 70.6C150.657 70.6 149.929 70.952 149.337 71.656C148.761 72.344 148.473 73.24 148.473 74.344V79H146.241V69.064H148.257ZM160.467 64.696H162.723V69.088H165.435V70.864H162.723V79H160.467V70.864H158.643V69.088H160.467V64.696ZM176.301 61.648H187.581V63.88H178.629V69.16H186.621V71.392H178.629V76.744H187.917V79H176.301V61.648ZM193.444 69.064L193.588 70.984C193.924 70.28 194.444 69.72 195.148 69.304C195.852 68.888 196.668 68.68 197.596 68.68C198.524 68.68 199.284 68.96 199.876 69.52C200.484 70.064 200.804 70.776 200.836 71.656V79H198.58V72.424C198.548 71.896 198.38 71.464 198.076 71.128C197.788 70.792 197.332 70.616 196.708 70.6C195.844 70.6 195.116 70.952 194.524 71.656C193.948 72.344 193.66 73.24 193.66 74.344V79H191.428V69.064H193.444ZM208.75 79.24C207.806 79.24 206.958 79.024 206.206 78.592C205.47 78.144 204.886 77.52 204.454 76.72C204.038 75.904 203.83 74.96 203.83 73.888C203.83 72.8 204.054 71.864 204.502 71.08C204.95 70.296 205.566 69.696 206.35 69.28C207.15 68.864 208.038 68.656 209.014 68.656C209.766 68.656 210.486 68.816 211.174 69.136C211.862 69.44 212.414 69.864 212.83 70.408V60.4H215.062V79H212.806V77.464C212.326 77.992 211.734 78.424 211.03 78.76C210.342 79.08 209.582 79.24 208.75 79.24ZM209.446 77.32C210.31 77.32 211.038 77.088 211.63 76.624C212.222 76.16 212.606 75.536 212.782 74.752V72.88C212.606 72.176 212.206 71.592 211.582 71.128C210.974 70.664 210.262 70.432 209.446 70.432C208.838 70.432 208.278 70.584 207.766 70.888C207.254 71.176 206.846 71.576 206.542 72.088C206.238 72.6 206.086 73.192 206.086 73.864C206.086 74.504 206.238 75.088 206.542 75.616C206.846 76.144 207.254 76.56 207.766 76.864C208.278 77.168 208.838 77.32 209.446 77.32ZM225.554 61.72H228.266L232.73 74.344L235.754 66.496L233.906 61.72H236.21L241.034 74.08L245.306 61.72H247.802L240.962 79.768L236.906 69.424L232.466 79.792L225.554 61.72ZM253.083 79.24C251.963 79.24 250.987 79.016 250.155 78.568C249.339 78.104 248.707 77.472 248.259 76.672C247.827 75.872 247.611 74.968 247.611 73.96C247.611 72.984 247.851 72.096 248.331 71.296C248.827 70.48 249.491 69.84 250.323 69.376C251.171 68.896 252.107 68.656 253.131 68.656C254.443 68.656 255.531 69.04 256.395 69.808C257.259 70.576 257.851 71.632 258.171 72.976L250.299 75.736C250.571 76.232 250.955 76.624 251.451 76.912C251.947 77.184 252.507 77.32 253.131 77.32C253.579 77.32 254.003 77.24 254.403 77.08C254.803 76.92 255.187 76.712 255.555 76.456L256.587 78.112C256.075 78.448 255.507 78.72 254.883 78.928C254.275 79.136 253.675 79.24 253.083 79.24ZM249.819 73.84C249.803 74.032 249.811 74.216 249.843 74.392L255.627 72.256C255.403 71.776 255.075 71.352 254.643 70.984C254.227 70.616 253.667 70.432 252.963 70.432C252.051 70.432 251.299 70.752 250.707 71.392C250.115 72.032 249.819 72.848 249.819 73.84ZM267.016 79.24C266.168 79.24 265.416 79.08 264.76 78.76C264.12 78.424 263.592 78 263.176 77.488V79H260.944V60.4H263.176V70.408C263.576 69.88 264.136 69.456 264.856 69.136C265.576 68.816 266.392 68.656 267.304 68.656C268.184 68.656 268.992 68.872 269.728 69.304C270.464 69.72 271.056 70.32 271.504 71.104C271.952 71.888 272.176 72.808 272.176 73.864C272.176 75 271.936 75.968 271.456 76.768C270.976 77.568 270.344 78.184 269.56 78.616C268.776 79.032 267.928 79.24 267.016 79.24ZM266.536 77.32C267.512 77.32 268.312 77 268.936 76.36C269.576 75.704 269.896 74.872 269.896 73.864C269.896 73.224 269.744 72.648 269.44 72.136C269.152 71.608 268.752 71.192 268.24 70.888C267.744 70.584 267.176 70.432 266.536 70.432C265.704 70.432 264.984 70.656 264.376 71.104C263.768 71.552 263.368 72.128 263.176 72.832V74.872C263.368 75.576 263.76 76.16 264.352 76.624C264.944 77.088 265.672 77.32 266.536 77.32ZM283.316 79V61.648H288.068C289.78 61.648 291.236 61.912 292.436 62.44C293.636 62.952 294.604 63.64 295.34 64.504C296.092 65.368 296.636 66.328 296.972 67.384C297.324 68.424 297.5 69.472 297.5 70.528C297.5 71.824 297.268 73 296.804 74.056C296.34 75.096 295.708 75.984 294.908 76.72C294.108 77.456 293.188 78.024 292.148 78.424C291.124 78.808 290.044 79 288.908 79H283.316ZM285.644 76.744H288.452C289.716 76.744 290.844 76.496 291.836 76C292.844 75.504 293.636 74.784 294.212 73.84C294.788 72.88 295.076 71.72 295.076 70.36C295.076 68.952 294.772 67.768 294.164 66.808C293.572 65.848 292.78 65.12 291.788 64.624C290.812 64.128 289.772 63.88 288.668 63.88H285.644V76.744ZM305.466 79.24C304.346 79.24 303.37 79.016 302.538 78.568C301.722 78.104 301.09 77.472 300.642 76.672C300.21 75.872 299.994 74.968 299.994 73.96C299.994 72.984 300.234 72.096 300.714 71.296C301.21 70.48 301.874 69.84 302.706 69.376C303.554 68.896 304.49 68.656 305.514 68.656C306.826 68.656 307.914 69.04 308.778 69.808C309.642 70.576 310.234 71.632 310.554 72.976L302.682 75.736C302.954 76.232 303.338 76.624 303.834 76.912C304.33 77.184 304.89 77.32 305.514 77.32C305.962 77.32 306.386 77.24 306.786 77.08C307.186 76.92 307.57 76.712 307.938 76.456L308.97 78.112C308.458 78.448 307.89 78.72 307.266 78.928C306.658 79.136 306.058 79.24 305.466 79.24ZM302.202 73.84C302.186 74.032 302.194 74.216 302.226 74.392L308.01 72.256C307.786 71.776 307.458 71.352 307.026 70.984C306.61 70.616 306.05 70.432 305.346 70.432C304.434 70.432 303.682 70.752 303.09 71.392C302.498 72.032 302.202 72.848 302.202 73.84ZM317.007 79.288L311.487 69.064H314.151L317.151 75.424L319.935 69.064H322.431L317.127 79.288H317.007ZM329.208 79.24C328.088 79.24 327.112 79.016 326.28 78.568C325.464 78.104 324.832 77.472 324.384 76.672C323.952 75.872 323.736 74.968 323.736 73.96C323.736 72.984 323.976 72.096 324.456 71.296C324.952 70.48 325.616 69.84 326.448 69.376C327.296 68.896 328.232 68.656 329.256 68.656C330.568 68.656 331.656 69.04 332.52 69.808C333.384 70.576 333.976 71.632 334.296 72.976L326.424 75.736C326.696 76.232 327.08 76.624 327.576 76.912C328.072 77.184 328.632 77.32 329.256 77.32C329.704 77.32 330.128 77.24 330.528 77.08C330.928 76.92 331.312 76.712 331.68 76.456L332.712 78.112C332.2 78.448 331.632 78.72 331.008 78.928C330.4 79.136 329.8 79.24 329.208 79.24ZM325.944 73.84C325.928 74.032 325.936 74.216 325.968 74.392L331.752 72.256C331.528 71.776 331.2 71.352 330.768 70.984C330.352 70.616 329.792 70.432 329.088 70.432C328.176 70.432 327.424 70.752 326.832 71.392C326.24 72.032 325.944 72.848 325.944 73.84ZM337.069 60.4H339.301V79H337.069V60.4ZM342.322 73.936C342.322 72.944 342.554 72.048 343.018 71.248C343.498 70.448 344.154 69.816 344.986 69.352C345.818 68.888 346.77 68.656 347.842 68.656C348.914 68.656 349.858 68.888 350.674 69.352C351.49 69.816 352.122 70.448 352.57 71.248C353.034 72.048 353.266 72.944 353.266 73.936C353.266 74.928 353.034 75.824 352.57 76.624C352.122 77.424 351.482 78.064 350.65 78.544C349.834 79.008 348.882 79.24 347.794 79.24C346.738 79.24 345.794 79.024 344.962 78.592C344.146 78.16 343.498 77.544 343.018 76.744C342.554 75.944 342.322 75.008 342.322 73.936ZM344.578 73.96C344.578 74.6 344.714 75.184 344.986 75.712C345.274 76.224 345.658 76.632 346.138 76.936C346.618 77.24 347.162 77.392 347.77 77.392C348.394 77.392 348.946 77.24 349.426 76.936C349.906 76.632 350.282 76.224 350.554 75.712C350.842 75.184 350.986 74.6 350.986 73.96C350.986 73.32 350.842 72.744 350.554 72.232C350.282 71.704 349.906 71.288 349.426 70.984C348.946 70.664 348.394 70.504 347.77 70.504C347.162 70.504 346.61 70.664 346.114 70.984C345.634 71.304 345.258 71.728 344.986 72.256C344.714 72.768 344.578 73.336 344.578 73.96ZM362.144 79.24C361.424 79.24 360.728 79.088 360.056 78.784C359.4 78.464 358.88 78.04 358.496 77.512V83.776H356.264V68.896H358.208L358.4 70.576C358.88 70.016 359.472 69.56 360.176 69.208C360.896 68.84 361.688 68.656 362.552 68.656C363.496 68.656 364.336 68.88 365.072 69.328C365.824 69.776 366.416 70.4 366.848 71.2C367.28 72 367.496 72.936 367.496 74.008C367.496 75.08 367.256 76.008 366.776 76.792C366.312 77.576 365.672 78.184 364.856 78.616C364.056 79.032 363.152 79.24 362.144 79.24ZM361.712 77.44C362.336 77.44 362.912 77.296 363.44 77.008C363.984 76.704 364.416 76.296 364.736 75.784C365.056 75.272 365.216 74.688 365.216 74.032C365.216 73.36 365.064 72.768 364.76 72.256C364.456 71.728 364.048 71.32 363.536 71.032C363.04 70.728 362.48 70.576 361.856 70.576C360.992 70.576 360.264 70.816 359.672 71.296C359.08 71.776 358.688 72.4 358.496 73.168V74.848C358.624 75.6 358.984 76.224 359.576 76.72C360.184 77.2 360.896 77.44 361.712 77.44ZM375.099 79.24C373.979 79.24 373.003 79.016 372.171 78.568C371.355 78.104 370.723 77.472 370.275 76.672C369.843 75.872 369.627 74.968 369.627 73.96C369.627 72.984 369.867 72.096 370.347 71.296C370.843 70.48 371.507 69.84 372.339 69.376C373.187 68.896 374.123 68.656 375.147 68.656C376.459 68.656 377.547 69.04 378.411 69.808C379.275 70.576 379.867 71.632 380.187 72.976L372.315 75.736C372.587 76.232 372.971 76.624 373.467 76.912C373.963 77.184 374.523 77.32 375.147 77.32C375.595 77.32 376.019 77.24 376.419 77.08C376.819 76.92 377.203 76.712 377.571 76.456L378.603 78.112C378.091 78.448 377.523 78.72 376.899 78.928C376.291 79.136 375.691 79.24 375.099 79.24ZM371.835 73.84C371.819 74.032 371.827 74.216 371.859 74.392L377.643 72.256C377.419 71.776 377.091 71.352 376.659 70.984C376.243 70.616 375.683 70.432 374.979 70.432C374.067 70.432 373.315 70.752 372.723 71.392C372.131 72.032 371.835 72.848 371.835 73.84ZM384.952 69.064L385.12 71.392C385.392 70.832 385.768 70.352 386.248 69.952C386.728 69.536 387.224 69.224 387.736 69.016C388.264 68.792 388.72 68.672 389.104 68.656L389.008 70.888C388.256 70.856 387.592 71.008 387.016 71.344C386.44 71.664 385.992 72.104 385.672 72.664C385.352 73.224 385.192 73.824 385.192 74.464V79H382.96V69.064H384.952Z" fill="white"/>
</svg>
