<svg width="101" height="124" viewBox="0 0 101 124" fill="none" xmlns="http://www.w3.org/2000/svg">
<path d="M100.824 24.3073L91.655 113.738L50.4384 123.687L9.3353 113.752L0.175659 24.3073H100.824Z" fill="#E44D26"/>
<path d="M50.5 116.083L83.805 108.044L91.6409 31.6208H50.5V116.083Z" fill="#F16529"/>
<path d="M32.6752 53.5611H50.5V42.5909H18.9048L19.2064 45.5341L22.3033 75.7646H50.5V64.7946H33.8267L32.6752 53.5611Z" fill="#EBEBEB"/>
<path d="M35.5148 81.2499H22.8662L24.6315 98.4745L50.442 104.713L50.5 104.699V93.2852L50.4448 93.298L36.4119 89.999L35.5148 81.2499Z" fill="#EBEBEB"/>
<path d="M9.54007 0H15.9433V5.50792H21.8007V0H28.2043V16.6793H21.801V11.0941H15.9436V16.6793H9.54035V0H9.54007Z" fill="black"/>
<path d="M36.6247 5.53111H30.9876V0H48.6682V5.53111H43.0285V16.6793H36.625V5.53111H36.6247Z" fill="black"/>
<path d="M51.4742 0H58.1511L62.2582 5.86062L66.3612 0H73.0405V16.6793H66.6636V8.41214L62.2582 14.3426H62.148L57.7396 8.41214V16.6793H51.4742V0Z" fill="black"/>
<path d="M76.2273 0H82.6325V11.1661H91.6373V16.6793H76.2273V0Z" fill="black"/>
<path d="M50.4565 75.7646H65.9722L64.5096 89.992L50.4565 93.2943V104.707L76.2875 98.4744L76.477 96.621L79.4379 67.7404L79.7453 64.7947H50.4565V75.7646Z" fill="white"/>
<path d="M50.4565 53.5343V53.5611H80.8919L81.1446 51.0954L81.7187 45.5341L82.0201 42.5909H50.4565V53.5343Z" fill="white"/>
</svg>
