<svg width="103" height="103" viewBox="0 0 103 103" fill="none" xmlns="http://www.w3.org/2000/svg">
<path d="M0 0H103V103H0V0Z" fill="#F7DF1E"/>
<path d="M27.0824 86.0743L34.9647 81.3041C36.4854 84.0002 37.8687 86.2814 41.1867 86.2814C44.3673 86.2814 46.3725 85.0373 46.3725 80.1979V47.2869H56.0519V80.3347C56.0519 90.3601 50.1754 94.9233 41.6017 94.9233C33.8585 94.9233 29.3638 90.913 27.0823 86.0735" fill="black"/>
<path d="M61.3095 85.0371L69.1908 80.4739C71.2655 83.8621 73.962 86.3509 78.7324 86.3509C82.743 86.3509 85.3005 84.3457 85.3005 81.58C85.3005 78.2613 82.6733 77.0858 78.2483 75.1506L75.8291 74.1127C68.8455 71.1403 64.213 67.4068 64.213 59.5246C64.213 52.2649 69.7441 46.7335 78.3869 46.7335C84.5404 46.7335 88.9653 48.8771 92.1454 54.4775L84.6091 59.317C82.9496 56.3442 81.1525 55.1691 78.3871 55.1691C75.5523 55.1691 73.7545 56.9666 73.7545 59.317C73.7545 62.221 75.5523 63.3966 79.7002 65.1944L82.1199 66.2314C90.3477 69.7578 94.9802 73.3526 94.9802 81.4417C94.9802 90.1539 88.1355 94.9241 78.94 94.9241C69.9519 94.9241 64.144 90.6377 61.3097 85.0371" fill="black"/>
</svg>
