<svg width="721" height="584" viewBox="0 0 721 584" fill="none" xmlns="http://www.w3.org/2000/svg">
<path fill-rule="evenodd" clip-rule="evenodd" d="M258.158 168.303C257.798 168.303 257.506 168.034 257.506 167.703V140.143C257.506 130.353 248.849 122.387 238.207 122.387H110.596C110.236 122.387 109.944 122.119 109.944 121.787C109.944 121.456 110.236 121.187 110.596 121.187H238.207C249.568 121.187 258.81 129.691 258.81 140.143V167.703C258.81 168.034 258.518 168.303 258.158 168.303Z" fill="#B5B6B7"/>
<path fill-rule="evenodd" clip-rule="evenodd" d="M258.158 322.337C257.798 322.337 257.506 322.068 257.506 321.737V294.177C257.506 284.387 248.849 276.421 238.207 276.421H110.596C110.236 276.421 109.944 276.154 109.944 275.821C109.944 275.49 110.236 275.221 110.596 275.221H238.207C249.568 275.221 258.81 283.725 258.81 294.177V321.737C258.81 322.068 258.518 322.337 258.158 322.337Z" fill="#B5B6B7"/>
<path fill-rule="evenodd" clip-rule="evenodd" d="M76.2993 246.145C75.9393 246.145 75.6471 245.876 75.6471 245.545V217.985C75.6471 207.533 84.8897 199.029 96.2506 199.029H223.86C224.221 199.029 224.512 199.298 224.512 199.629C224.512 199.962 224.221 200.229 223.86 200.229H96.2506C85.6084 200.229 76.9514 208.195 76.9514 217.985V245.545C76.9514 245.876 76.6593 246.145 76.2993 246.145Z" fill="#B5B6B7"/>
<path fill-rule="evenodd" clip-rule="evenodd" d="M76.2993 398.529C75.9393 398.529 75.6471 398.26 75.6471 397.929V370.37C75.6471 359.917 84.8897 351.414 96.2506 351.414H223.86C224.221 351.414 224.512 351.682 224.512 352.014C224.512 352.346 224.221 352.614 223.86 352.614H96.2506C85.6084 352.614 76.9514 360.58 76.9514 370.37V397.929C76.9514 398.26 76.6593 398.529 76.2993 398.529Z" fill="#B5B6B7"/>
<path fill-rule="evenodd" clip-rule="evenodd" d="M258.158 167.703C239.326 167.703 224.061 181.747 224.061 199.073C224.061 216.397 239.326 230.443 258.158 230.443C276.989 230.443 292.255 216.397 292.255 199.073C292.255 181.747 276.989 167.703 258.158 167.703ZM258.158 320.643C239.326 320.643 224.061 334.687 224.061 352.014C224.061 369.339 239.326 383.385 258.158 383.385C276.989 383.385 292.255 369.339 292.255 352.014C292.255 334.687 276.989 320.643 258.158 320.643ZM76.5006 243.358C57.6698 243.358 42.4037 257.402 42.4037 274.729C42.4037 292.054 57.6698 306.098 76.5006 306.098C95.3315 306.098 110.596 292.054 110.596 274.729C110.596 257.402 95.3315 243.358 76.5006 243.358ZM76.5006 396.299C57.6698 396.299 42.4037 410.344 42.4037 427.669C42.4037 444.995 57.6698 459.041 76.5006 459.041C95.3315 459.041 110.596 444.995 110.596 427.669C110.596 410.344 95.3315 396.299 76.5006 396.299ZM76.5006 90.4175C57.6698 90.4175 42.4037 104.462 42.4037 121.787C42.4037 139.112 57.6698 153.158 76.5006 153.158C95.3315 153.158 110.596 139.112 110.596 121.787C110.596 104.462 95.3315 90.4175 76.5006 90.4175ZM578.597 370.992C564.23 371.054 552.486 360.417 552.453 347.311C552.419 333.899 563.894 323.272 578.484 323.201C592.934 323.132 604.605 333.835 604.656 347.204C604.705 360.254 593.011 370.93 578.597 370.992ZM651.384 316.119C650.518 313.28 648.573 312.119 645.273 312.465C639.327 313.088 633.358 313.56 627.384 313.878C626.193 313.941 624.701 313.281 623.761 312.521C621.151 310.414 618.617 308.191 616.347 305.782C615.349 304.722 614.507 303.079 614.551 301.727C614.716 296.526 615.308 291.335 615.661 286.137C615.92 282.326 615.004 281.076 611.022 280.013C603.085 277.892 595.135 275.811 587.157 273.83C582.723 272.728 581.175 273.436 579.04 277.307C576.578 281.768 574.143 286.246 571.866 290.789C570.955 292.606 569.738 293.578 567.561 293.936C564.254 294.482 561.034 295.509 557.719 295.985C556.203 296.204 554.278 296.006 553.004 295.294C548.264 292.647 543.728 289.689 539.093 286.884C535.407 284.652 533.318 284.848 530.147 287.782C524.464 293.038 518.807 298.32 513.181 303.626C510.174 306.462 510.023 308.02 512.378 311.298C515.381 315.474 518.367 319.664 521.519 323.744C522.825 325.435 523.289 326.897 522.494 328.981C521.385 331.885 520.61 334.931 520.062 337.973C519.694 340.014 518.625 341.098 516.687 341.935C511.665 344.101 506.745 346.467 501.73 348.648C498.67 349.979 497.577 352.08 498.434 355.004C500.667 362.637 502.995 370.245 505.233 377.875C506.12 380.901 508.143 382.087 511.52 381.748C516.064 381.292 520.631 381.019 525.197 380.667C527.569 381.301 530.228 379.334 532.463 381.913C534.887 384.712 537.911 387.066 540.483 389.768C541.311 390.639 542.004 392.011 541.958 393.126C541.756 398.027 541.293 402.919 540.863 407.811C540.491 412.018 541.228 413.3 545.549 414.461C553.169 416.508 560.822 418.454 568.499 420.309C572.858 421.363 574.885 420.449 577.018 416.768C579.474 412.531 581.959 408.3 584.217 403.974C585.221 402.048 586.528 401.186 588.841 400.86C592.045 400.409 595.13 399.243 598.334 398.775C599.963 398.537 602.027 398.707 603.397 399.459C607.97 401.974 612.306 404.85 616.756 407.555C620.917 410.087 622.374 409.974 625.855 406.812C631.59 401.604 637.304 396.375 643 391.131C646.212 388.173 646.387 386.739 643.889 383.251C640.833 378.988 637.584 374.837 634.678 370.489C633.88 369.296 633.542 367.503 633.807 366.118C634.426 362.884 635.361 359.673 636.538 356.571C637.035 355.259 638.206 353.825 639.503 353.171C644.648 350.579 649.966 348.275 655.216 345.858C657.941 344.604 659.475 342.787 658.574 339.818C656.175 331.919 653.794 324.014 651.384 316.119ZM581.596 169.632C556.632 169.739 536.227 151.258 536.171 128.487C536.114 105.184 556.049 86.7201 581.398 86.5971C606.503 86.4765 626.783 105.075 626.872 128.301C626.957 150.976 606.638 169.524 581.596 169.632ZM720.55 115.468C716.382 101.742 712.246 88.0102 708.058 74.2911C706.553 69.3588 703.176 67.3416 697.44 67.9428C687.11 69.0252 676.738 69.8461 666.361 70.3981C664.289 70.5085 661.699 69.36 660.064 68.04C655.531 64.3786 651.128 60.5204 647.184 56.331C645.449 54.4889 643.988 51.6352 644.063 49.2854C644.35 40.2478 645.38 31.2329 645.992 22.2013C646.441 15.5781 644.849 13.406 637.932 11.5591C624.143 7.87615 610.33 4.25917 596.467 0.816197C588.765 -1.0967 586.074 0.133363 582.366 6.8573C578.087 14.6109 573.856 22.3909 569.9 30.2837C568.318 33.4398 566.204 35.1283 562.422 35.7512C556.674 36.698 551.081 38.4825 545.32 39.3129C542.686 39.691 539.343 39.3477 537.127 38.1105C528.891 33.5106 521.013 28.3708 512.957 23.4961C506.553 19.6199 502.926 19.9596 497.416 25.0574C487.544 34.1911 477.714 43.3667 467.938 52.5868C462.714 57.5143 462.451 60.2204 466.545 65.9171C471.761 73.1726 476.948 80.4522 482.425 87.5398C484.694 90.4763 485.5 93.0193 484.118 96.6386C482.192 101.685 480.846 106.977 479.895 112.262C479.256 115.808 477.397 117.692 474.029 119.146C465.304 122.91 456.756 127.022 448.043 130.81C442.724 133.122 440.827 136.772 442.315 141.853C446.196 155.114 450.239 168.333 454.129 181.591C455.672 186.847 459.184 188.908 465.053 188.32C472.948 187.529 480.881 187.054 488.815 186.44C492.936 187.542 497.557 184.125 501.439 188.606C505.653 193.47 510.904 197.56 515.374 202.254C516.813 203.766 518.016 206.15 517.936 208.086C517.585 216.601 516.782 225.103 516.033 233.602C515.387 240.912 516.666 243.14 524.177 245.157C537.415 248.713 550.713 252.093 564.05 255.319C571.624 257.149 575.145 255.56 578.851 249.165C583.118 241.802 587.436 234.454 591.358 226.934C593.102 223.591 595.374 222.092 599.393 221.525C604.961 220.74 610.32 218.717 615.886 217.902C618.717 217.487 622.304 217.785 624.683 219.093C632.629 223.461 640.163 228.459 647.894 233.16C655.124 237.555 657.655 237.363 663.704 231.869C673.669 222.819 683.595 213.733 693.491 204.622C699.074 199.48 699.376 196.99 695.035 190.932C689.727 183.524 684.081 176.311 679.031 168.757C677.646 166.685 677.059 163.571 677.519 161.163C678.595 155.544 680.222 149.966 682.263 144.576C683.127 142.297 685.163 139.802 687.417 138.667C696.355 134.162 705.594 130.161 714.717 125.963C719.453 123.784 722.117 120.627 720.55 115.468Z" fill="#AB8524"/>
<path fill-rule="evenodd" clip-rule="evenodd" d="M560.98 249.284C558.181 284.457 543.327 315.278 516.83 340.893C505.175 352.16 494.125 363.473 487.007 377.959C481.944 388.261 478.551 398.928 476.917 409.681H434.697V387.512C434.697 379.532 427.641 373.041 418.968 373.041H398.96V237.389C398.96 236.917 398.542 236.534 398.03 236.534C397.516 236.534 397.1 236.917 397.1 237.389V373.041H376.762C368.09 373.041 361.033 379.532 361.033 387.512V409.681H318.784C318.044 404.217 316.958 399.23 315.471 394.458C309.591 375.586 300.556 360.939 287.849 349.68C265.247 329.656 250.392 308.396 242.435 284.685C225.766 235.009 233.699 189.179 266.015 148.469C294.961 112.002 334.389 91.5545 383.203 87.6975C438.264 83.3425 484.76 100.634 521.384 139.088C551.002 170.185 564.323 207.26 560.98 249.284ZM398.96 409.681V374.752H418.968C426.616 374.752 432.837 380.475 432.837 387.512V409.681H398.96ZM362.893 409.681V387.512C362.893 380.475 369.115 374.752 376.762 374.752H397.1V409.681H362.893ZM522.783 137.96C485.747 99.0753 438.729 81.5904 383.044 85.9934C333.67 89.8948 293.791 110.575 264.513 147.458C231.832 188.631 223.807 234.97 240.659 285.189C248.711 309.184 263.725 330.682 286.559 350.914C299.024 361.958 307.897 376.355 313.683 394.929C315.21 399.831 316.307 404.969 317.037 410.637C317.092 411.067 317.489 411.392 317.961 411.392H397.1V433.199C397.1 433.67 397.516 434.054 398.03 434.054C398.542 434.054 398.96 433.67 398.96 433.199V411.392H477.729C478.195 411.392 478.589 411.074 478.65 410.649C480.215 399.812 483.596 389.051 488.7 378.664C495.699 364.421 506.637 353.229 518.178 342.072C544.979 316.163 560.003 284.986 562.835 249.409C566.217 206.91 552.742 169.413 522.783 137.96Z" fill="black"/>
<path fill-rule="evenodd" clip-rule="evenodd" d="M441.349 216.143C440.997 215.723 440.231 215.723 439.879 216.143L411.792 249.515L383.711 216.143C383.359 215.723 382.593 215.726 382.24 216.143L354.16 249.513L326.078 216.143C325.764 215.769 325.18 215.702 324.773 215.991C324.367 216.28 324.293 216.818 324.608 217.191L353.424 251.435C353.776 251.852 354.543 251.852 354.894 251.435L382.975 218.065L411.058 251.435C411.409 251.852 412.176 251.855 412.528 251.435L440.614 218.065L468.7 251.435C468.882 251.653 469.157 251.767 469.435 251.767C469.635 251.767 469.834 251.708 470.004 251.587C470.41 251.298 470.484 250.762 470.17 250.387L441.349 216.143Z" fill="black"/>
<path fill-rule="evenodd" clip-rule="evenodd" d="M317.965 410.537L319.907 462.542C320.8 486.439 340.087 505.871 364.99 509.502C367.847 524.035 381.639 535.067 398.258 535.067C414.984 535.067 428.841 523.888 431.572 509.216C455.607 504.937 473.999 485.866 474.87 462.542L476.812 410.537H317.965Z" fill="#FFC107"/>
<path fill-rule="evenodd" clip-rule="evenodd" d="M572.779 554.483C572.779 554.483 643.488 524.96 627.361 516.92C611.235 508.881 612.243 507.465 628.369 492.83C644.496 478.198 636.937 475.837 625.345 471.116C613.755 466.395 632.981 457.427 641.472 453.651C649.964 449.874 678.261 441.377 659.615 426.743C640.969 412.109 700.435 416.829 678.261 396.531C656.087 376.232 628.028 406.917 628.028 406.917C628.028 406.917 603.39 378.724 592.193 431.292C592.193 431.292 563.618 412.643 572.779 455.538C572.779 455.538 549.35 452.233 565.712 501.328C565.712 501.328 547.368 501.834 556.069 527.144C558.61 534.54 562.542 541.453 567.459 547.711L572.779 554.483Z" fill="#237978"/>
<path fill-rule="evenodd" clip-rule="evenodd" d="M572.778 555.083C572.432 555.083 572.147 554.825 572.137 554.5C572.132 554.266 571.559 530.834 580.228 501.796C588.233 474.979 605.981 437.744 645.064 412.648C645.356 412.461 645.754 412.531 645.956 412.804C646.154 413.078 646.08 413.451 645.789 413.638C607.036 438.522 589.424 475.469 581.473 502.083C572.848 530.954 573.412 554.235 573.418 554.467C573.428 554.798 573.149 555.074 572.796 555.083H572.778Z" fill="black"/>
<path fill-rule="evenodd" clip-rule="evenodd" d="M627.36 517.52C627.259 517.52 627.155 517.497 627.061 517.449C619.201 513.532 615.617 511.275 615.163 508.259C614.621 504.653 618.923 500.568 627.923 492.4C634.614 486.329 637.467 482.156 636.904 479.266C636.309 476.214 631.846 474.406 626.196 472.116L625.09 471.667C622.464 470.597 621.117 469.202 621.088 467.522C621.002 462.657 632.524 456.966 641.197 453.108C641.517 452.968 641.899 453.094 642.05 453.393C642.203 453.693 642.067 454.05 641.746 454.192C628.834 459.935 622.314 464.414 622.369 467.502C622.39 468.669 623.477 469.701 625.6 470.567L626.705 471.014C632.707 473.447 637.447 475.368 638.164 479.05C638.82 482.416 635.937 486.799 628.815 493.262C620.365 500.929 615.977 505.071 616.432 508.091C616.806 510.574 620.351 512.746 627.662 516.391C627.974 516.546 628.093 516.909 627.927 517.202C627.811 517.405 627.59 517.52 627.36 517.52Z" fill="black"/>
<path fill-rule="evenodd" clip-rule="evenodd" d="M572.779 555.083C572.582 555.083 572.388 554.999 572.263 554.839L566.942 548.067C561.805 541.528 557.941 534.549 555.458 527.327C552.165 517.75 552.289 510.513 555.828 505.821C558.734 501.969 563.064 501.028 564.867 500.8C559.985 485.944 555.915 466.837 563.493 458.558C566.529 455.242 570.318 454.878 571.988 454.889C568.962 440.233 570.091 431.17 575.346 427.945C581.888 423.929 592.125 430.517 592.559 430.8C592.849 430.99 592.921 431.363 592.719 431.636C592.516 431.907 592.117 431.974 591.827 431.784C591.728 431.721 581.866 425.376 576.047 428.95C571.25 431.895 570.337 441.049 573.407 455.421C573.446 455.612 573.386 455.81 573.243 455.951C573.099 456.093 572.89 456.158 572.684 456.131C572.492 456.106 567.932 455.534 564.449 459.358C560.422 463.779 557.481 474.617 566.323 501.149C566.383 501.328 566.349 501.522 566.233 501.676C566.118 501.828 565.931 501.922 565.733 501.928C565.676 501.929 560.154 502.149 556.863 506.528C553.582 510.896 553.518 517.77 556.677 526.959C559.118 534.057 562.919 540.92 567.975 547.356L573.294 554.128C573.504 554.395 573.443 554.77 573.158 554.967C573.044 555.045 572.911 555.083 572.779 555.083Z" fill="black"/>
<path fill-rule="evenodd" clip-rule="evenodd" d="M559.078 554.483C558.648 555.029 556.078 545.975 531.472 536.464C506.867 526.955 514.481 513.709 532.972 514.388C551.464 515.069 500.34 500.165 508.316 490.615C516.294 481.065 529.247 490.275 531.472 487.898C533.697 485.521 498.527 467.52 522.095 454.953C545.663 442.387 553.277 466.08 556.178 481.065C556.178 481.065 593.16 469.558 570.318 510.992C570.318 510.992 601.138 501.18 559.078 554.483Z" fill="#237978"/>
<path fill-rule="evenodd" clip-rule="evenodd" d="M559.079 555.083C559.068 555.083 559.057 555.083 559.047 555.083C558.693 555.067 558.421 554.785 558.438 554.455C560.936 506.666 535.703 469.025 535.448 468.65C535.257 468.371 535.344 468 535.643 467.821C535.941 467.642 536.338 467.725 536.527 468.003C536.785 468.381 562.237 506.33 559.718 554.512C559.701 554.834 559.418 555.083 559.079 555.083Z" fill="black"/>
<path fill-rule="evenodd" clip-rule="evenodd" d="M546.412 544.151C546.295 544.151 546.177 544.121 546.069 544.057C541.913 541.587 536.919 539.22 531.227 537.02C520.072 532.708 514.157 526.947 515.404 521.605C516.574 516.586 523.643 513.441 532.998 513.789C533.351 513.802 533.627 514.081 533.612 514.412C533.6 514.744 533.313 515.008 532.948 514.988C524.366 514.669 517.674 517.5 516.655 521.861C515.553 526.588 521.183 531.839 531.716 535.91C537.476 538.136 542.537 540.536 546.757 543.044C547.054 543.222 547.144 543.593 546.954 543.872C546.833 544.052 546.625 544.151 546.412 544.151Z" fill="black"/>
<path fill-rule="evenodd" clip-rule="evenodd" d="M563.77 549.001C563.641 549.001 563.513 548.965 563.401 548.891C563.112 548.701 563.043 548.326 563.247 548.055C581.159 524.25 582.025 515.624 579.597 512.58C577.145 509.507 570.589 511.539 570.524 511.561C570.274 511.638 570.002 511.569 569.832 511.383C569.663 511.199 569.63 510.935 569.749 510.717C576.276 498.878 578.491 490.332 576.334 485.317C575.42 483.194 573.686 481.712 571.176 480.912C565.092 478.972 556.466 481.606 556.379 481.634C556.043 481.736 555.68 481.568 555.569 481.254C555.457 480.939 555.639 480.599 555.975 480.495C556.345 480.381 565.092 477.705 571.588 479.776C574.467 480.694 576.463 482.407 577.523 484.869C579.748 490.044 577.737 498.514 571.544 510.06C573.865 509.571 578.393 509.067 580.62 511.859C584.525 516.749 579.033 529.16 564.294 548.746C564.169 548.912 563.971 549.001 563.77 549.001Z" fill="black"/>
<path fill-rule="evenodd" clip-rule="evenodd" d="M566.735 516.205C566.591 516.205 566.445 516.16 566.326 516.067C566.055 515.856 566.016 515.478 566.242 515.223C566.308 515.147 572.978 507.527 574.979 499.588C575.061 499.264 575.403 499.069 575.749 499.142C576.094 499.217 576.308 499.541 576.226 499.863C574.154 508.08 567.51 515.669 567.228 515.988C567.103 516.131 566.919 516.205 566.735 516.205Z" fill="black"/>
<path fill-rule="evenodd" clip-rule="evenodd" d="M556.178 486.69C556.156 486.69 556.134 486.689 556.114 486.688C555.762 486.654 555.505 486.36 555.54 486.03C555.785 483.748 555.491 480.729 554.669 477.057C554.596 476.733 554.817 476.415 555.163 476.347C555.512 476.281 555.85 476.487 555.922 476.811C556.772 480.603 557.072 483.745 556.815 486.15C556.781 486.46 556.503 486.69 556.178 486.69Z" fill="black"/>
<path fill-rule="evenodd" clip-rule="evenodd" d="M575.603 465.772C575.363 465.772 575.134 465.647 575.024 465.431C572.631 460.749 570.618 446.002 570.533 445.377C570.488 445.048 570.737 444.747 571.088 444.706C571.445 444.67 571.759 444.897 571.804 445.226C571.825 445.377 573.875 460.404 576.181 464.913C576.333 465.212 576.197 465.571 575.878 465.713C575.79 465.753 575.695 465.772 575.603 465.772Z" fill="black"/>
<path fill-rule="evenodd" clip-rule="evenodd" d="M623.201 413.744C623.132 413.744 623.062 413.733 622.991 413.711C622.657 413.602 622.48 413.26 622.595 412.947C624.012 409.116 635.289 399.619 635.769 399.217C636.031 398.995 636.437 399.017 636.674 399.264C636.91 399.51 636.888 399.889 636.624 400.111C636.509 400.207 625.115 409.8 623.807 413.34C623.715 413.589 623.467 413.744 623.201 413.744Z" fill="black"/>
<path fill-rule="evenodd" clip-rule="evenodd" d="M555.024 582.8C555.384 582.8 555.677 583.069 555.677 583.4C555.677 583.731 555.384 584 555.024 584H425.325C424.965 584 424.673 583.731 424.673 583.4C424.673 583.069 424.965 582.8 425.325 582.8H555.024ZM640.574 555.062C640.934 555.062 641.227 555.331 641.227 555.662C641.227 555.993 640.934 556.262 640.574 556.262H77.6193C77.2593 556.262 76.9672 555.993 76.9672 555.662C76.9672 555.331 77.2593 555.062 77.6193 555.062H640.574Z" fill="black"/>
<path fill-rule="evenodd" clip-rule="evenodd" d="M297.295 522.583L249.612 520.082C246.659 519.926 243.697 519.942 240.746 520.132L202.418 522.583L246.779 503.14C246.779 503.14 263.413 507.775 278.361 514.722L297.295 522.583ZM301.237 494.681L271.003 469.408C271.003 469.408 257.248 458.085 239.147 466.078C221.048 474.071 181.871 486.968 181.871 486.968L180.15 479.803L66.9212 479.005C66.9212 479.005 39.4086 554.125 112.533 554.792C185.655 555.458 256.883 551.005 256.883 551.005L297.988 551.534L302.836 525.592L280.612 513.493L301.237 494.681Z" fill="black"/>
<path fill-rule="evenodd" clip-rule="evenodd" d="M297.988 551.533L362.86 546.48C362.86 546.48 370.333 563.084 383.802 552.394C390.114 547.384 398.822 540.776 406.571 534.934C406.571 534.934 418.823 525.894 422.419 522.404C423.206 520.404 421.717 517.952 419.044 517.952C415.838 517.953 417.667 518.037 401.385 524.783C385.706 531.279 362.888 531.434 362.888 531.434L302.621 525.329L297.988 551.533Z" fill="#AE6F4C"/>
<path fill-rule="evenodd" clip-rule="evenodd" d="M278.362 514.722L336.452 544.373C336.452 544.373 331.888 561.848 349.614 560.485C357.922 559.847 369.187 559.21 379.189 558.677C379.189 558.677 394.877 557.992 400.017 557.113C401.932 555.92 402.294 553.132 400.13 551.687C397.536 549.953 398.962 551.01 381.482 547.66C364.647 544.435 346.09 532.218 346.09 532.218L301.237 494.68L278.362 514.722Z" fill="#AE6F4C"/>
<path fill-rule="evenodd" clip-rule="evenodd" d="M367.456 543.158C366.492 543.158 365.534 543.047 364.596 542.827L361.975 542.21C361.626 542.128 361.416 541.802 361.506 541.481C361.594 541.16 361.944 540.964 362.299 541.048L364.919 541.664C366.047 541.929 367.208 542.016 368.37 541.92L371.09 541.697C371.427 541.666 371.764 541.911 371.797 542.242C371.83 542.572 371.564 542.864 371.205 542.893L368.485 543.116C368.142 543.143 367.799 543.158 367.456 543.158Z" fill="black"/>
<path fill-rule="evenodd" clip-rule="evenodd" d="M347.714 561.161C343.522 561.161 340.328 560.013 338.205 557.736C334.188 553.428 335.322 546.52 335.715 544.684L278.046 515.247C277.73 515.086 277.617 514.721 277.792 514.432C277.966 514.141 278.364 514.037 278.677 514.198L336.769 543.85C337.026 543.981 337.155 544.252 337.088 544.514C337.068 544.594 335.064 552.53 339.199 556.957C341.352 559.265 344.843 560.25 349.559 559.888C360.512 559.046 376.468 558.216 388.12 557.61C392.052 557.405 395.468 557.227 397.994 557.086C399.302 557.011 400.379 556.205 400.737 555.029C401.011 554.129 400.858 552.881 399.606 552.08C399.311 551.891 399.237 551.516 399.443 551.244C399.648 550.971 400.055 550.904 400.349 551.094C401.845 552.05 402.49 553.722 401.993 555.353C401.484 557.027 399.944 558.178 398.072 558.283C395.548 558.425 392.129 558.602 388.193 558.808C376.549 559.414 360.602 560.243 349.669 561.083C348.995 561.136 348.342 561.161 347.714 561.161Z" fill="black"/>
<path fill-rule="evenodd" clip-rule="evenodd" d="M345.979 545.884C345.864 545.884 345.748 545.857 345.643 545.799L343.301 544.508C342.173 543.886 341.176 543.099 340.34 542.169L338.613 540.255C338.382 539.999 338.42 539.621 338.698 539.409C338.976 539.196 339.385 539.232 339.616 539.488L341.343 541.403C342.087 542.229 342.97 542.927 343.971 543.479L346.314 544.769C346.623 544.94 346.723 545.308 346.538 545.592C346.416 545.781 346.2 545.884 345.979 545.884Z" fill="black"/>
<path fill-rule="evenodd" clip-rule="evenodd" d="M400.131 552.286C399.997 552.286 399.863 552.249 399.747 552.172C398.277 551.19 398.277 551.19 394.484 550.575C392.1 550.189 388.11 549.543 381.35 548.247C364.573 545.033 345.897 532.83 345.71 532.706C345.417 532.513 345.35 532.139 345.56 531.869C345.77 531.599 346.179 531.539 346.469 531.731C346.654 531.852 365.112 543.911 381.614 547.073C388.357 548.365 392.334 549.009 394.71 549.393C398.57 550.018 398.799 550.055 400.514 551.2C400.807 551.396 400.869 551.77 400.658 552.039C400.531 552.201 400.332 552.286 400.131 552.286Z" fill="black"/>
<path fill-rule="evenodd" clip-rule="evenodd" d="M113.825 555.403C113.501 555.403 113.219 555.18 113.18 554.875C113.137 554.546 113.391 554.247 113.747 554.207C128.651 552.548 145.224 547.618 160.414 540.325L246.5 502.599C246.822 502.455 247.212 502.582 247.368 502.882C247.524 503.181 247.385 503.54 247.059 503.682L160.996 541.399C145.692 548.747 128.961 553.723 113.906 555.399C113.879 555.402 113.853 555.403 113.825 555.403Z" fill="black"/>
<path fill-rule="evenodd" clip-rule="evenodd" d="M140.439 501.779C158.693 495.555 172.383 490.887 181.51 487.774C185.171 486.526 185.041 486.144 181.121 486.627L139.986 500.654C139.649 500.768 139.477 501.115 139.602 501.425C139.699 501.667 139.948 501.816 140.212 501.816C140.288 501.816 140.364 501.805 140.439 501.779Z" fill="black"/>
<path fill-rule="evenodd" clip-rule="evenodd" d="M111.123 316.704C111.123 316.704 110.25 334.375 99.0461 340.613C88.8807 346.273 110.417 379.114 133.585 377.155C146.267 376.082 149.239 344.175 149.239 344.175C149.239 344.175 138.999 342.355 142.781 327.988L111.123 316.704Z" fill="#AE6F4C"/>
<path fill-rule="evenodd" clip-rule="evenodd" d="M129.675 334.672C114.655 333.001 103.816 323.915 102.298 308.843C97.9319 309.483 96.9021 299.015 98.1181 295.653C99.3353 292.286 103.308 294.255 103.308 294.255C103.308 294.255 103.638 293.456 103.869 292.583C110.43 267.823 128.807 268.805 128.807 268.805C162.574 270.423 154.662 302.141 152.733 310.556C150.803 318.971 144.194 336.286 129.675 334.672Z" fill="#AE6F4C"/>
<path fill-rule="evenodd" clip-rule="evenodd" d="M28.5893 394.223C28.5893 394.223 -11.5241 452.69 3.2795 465.17C18.0832 477.651 59.7605 434.807 59.7605 434.807C59.7605 434.807 57.6127 425.241 48.6703 413.933C39.7278 402.624 28.5893 394.223 28.5893 394.223Z" fill="#AE6F4C"/>
<path fill-rule="evenodd" clip-rule="evenodd" d="M197.122 421.917L177.604 419.826C177.604 419.826 182.598 481.641 180.721 481.641C179.713 481.641 156.266 493.337 123.41 493.337C98.1684 493.337 67.2068 485.657 65.898 485.591C65.7371 485.583 65.5809 485.482 65.4318 485.297C65.8531 481.034 66.1868 473.495 66.5252 465.171C66.7619 459.331 67.0033 453.105 67.2802 447.354C67.5382 442.004 67.8269 437.066 68.1748 433.229C69.6895 416.495 68.6411 401.224 68.6411 401.224L61.1669 419.885L13.785 404.002C13.785 404.002 29.6066 382.787 48.4694 364.335C67.1832 346.027 97.198 341.382 97.6666 341.312C97.669 341.31 97.6714 341.31 97.6714 341.31C97.6714 341.31 95.9863 366.569 124.38 368.509C147.988 370.123 149.212 344.089 149.212 344.089C149.212 344.089 176.809 350.717 184.725 356.929C192.642 363.142 227.568 405.557 227.568 406.629C227.568 407.7 197.122 421.917 197.122 421.917Z" fill="#7952B3"/>
<path fill-rule="evenodd" clip-rule="evenodd" d="M67.2806 447.354C67.0037 453.105 66.7623 459.33 66.5256 465.17C66.4712 461.214 66.6416 455.524 67.2806 447.354Z" fill="#7952B3"/>
<path fill-rule="evenodd" clip-rule="evenodd" d="M158.822 426.359C158.822 426.359 146.374 428.856 146.294 424.891C146.294 424.891 154.752 421.661 156.667 421.807C158.583 421.954 167.44 422.909 167.44 422.909L156.508 417.917L145.655 421C145.655 421 143.182 421.147 142.064 419.532C140.947 417.917 142.224 416.962 142.224 416.962L156.428 412.63C156.428 412.63 156.907 411.235 153.316 411.089C149.725 410.942 141.825 410.428 141.825 410.428C141.825 410.428 140.07 409.033 140.867 406.537C141.665 404.041 146.134 404.922 146.134 404.922C146.134 404.922 143.66 402.719 147.411 400.296C147.411 400.296 158.902 400.59 163.131 403.013C167.36 405.436 196.311 421.79 196.311 421.79L218.842 410.9C218.842 410.9 261.62 459.078 241.541 467.986C221.462 476.894 158.822 426.359 158.822 426.359Z" fill="#AE6F4C"/>
<path fill-rule="evenodd" clip-rule="evenodd" d="M171.322 411.92L160.008 406.022L145.92 404.633L146.021 403.767L160.206 405.165C160.271 405.172 160.333 405.19 160.389 405.219L171.788 411.163L171.322 411.92Z" fill="black"/>
<path fill-rule="evenodd" clip-rule="evenodd" d="M216.733 433.694L189.693 418.061L190.197 417.323L217.237 432.957L216.733 433.694Z" fill="black"/>
<path fill-rule="evenodd" clip-rule="evenodd" d="M47.1825 415.815L20.0563 431.322L19.5566 430.582L46.6827 415.075L47.1825 415.815Z" fill="black"/>
<path fill-rule="evenodd" clip-rule="evenodd" d="M170.405 416.703C170.333 416.658 163.244 412.243 161.395 411.534C159.985 410.993 157.166 411.98 156.198 412.406L155.79 411.62C155.947 411.551 159.674 409.93 161.759 410.73C163.696 411.472 170.641 415.798 170.936 415.982L170.405 416.703Z" fill="black"/>
<path fill-rule="evenodd" clip-rule="evenodd" d="M167.969 399.476L174.954 409.306L168.312 405.462L167.969 399.476Z" fill="#AE6F4C"/>
<path fill-rule="evenodd" clip-rule="evenodd" d="M174.702 409.674L168.059 405.831L168.563 405.094L175.206 408.937L174.702 409.674Z" fill="black"/>
<path fill-rule="evenodd" clip-rule="evenodd" d="M57.7794 402.653C57.7794 402.653 54.3659 404.672 53.2687 405.905C52.1715 407.139 53.1468 407.364 50.7086 409.719C48.2704 412.075 43.8815 418.019 51.5618 427.105C59.2425 436.19 61.8026 435.405 64.9724 433.834C68.1419 432.264 68.5078 431.143 74.4814 430.582C80.4551 430.021 86.1849 424.637 86.063 423.291L85.9411 421.945C85.9411 421.945 91.427 420.038 91.0616 417.907C90.6957 415.776 89.1109 416 89.1109 416C89.1109 416 90.2081 414.991 89.3547 413.196C88.5012 411.402 84.4783 411.738 79.8454 412.299C75.213 412.86 63.2655 415.103 62.534 414.654C61.8026 414.206 62.0464 413.533 64.8503 413.196C67.6544 412.86 78.9922 412.747 78.9922 409.831C78.9922 406.915 75.5787 406.354 68.9954 406.466C62.4121 406.578 61.193 406.242 59.6082 406.803L58.0232 407.364L57.7794 402.653Z" fill="#AE6F4C"/>
<path fill-rule="evenodd" clip-rule="evenodd" d="M89.2065 415.988C89.2065 415.988 89.5568 415.755 86.948 416.671C85.9979 417.005 84.6584 417.353 82.7711 417.683C75.7001 418.916 64.6063 421.16 61.1927 421.608C57.779 422.057 60.5831 422.73 68.3855 421.272C76.1879 419.814 85.4761 417.858 85.8931 417.73C86.6031 417.512 88.7332 416.859 89.2065 415.988Z" fill="black"/>
<path fill-rule="evenodd" clip-rule="evenodd" d="M83.3811 422.618C83.3811 422.618 77.6101 424.48 74.77 425.133C71.7545 425.827 69.4832 426.768 68.8738 425.871C68.2641 424.974 67.5325 424.749 67.5325 424.749L66.5574 425.759C66.5574 425.759 66.7231 426.875 66.1916 426.993C65.2432 427.202 63.3875 427.553 63.3875 427.553C63.3875 427.553 63.4097 428.182 69.0898 427.093C70.4992 426.823 73.1133 426.44 74.77 426.004C76.2939 425.604 81.7963 424.301 82.5279 423.74C83.2592 423.179 83.3811 422.618 83.3811 422.618Z" fill="black"/>
<path fill-rule="evenodd" clip-rule="evenodd" d="M65.4597 422.057C65.4597 422.057 65.3698 426.574 66.7557 426.503C68.1419 426.432 68.6294 426.432 68.8732 426.095C69.1172 425.759 68.5076 424.637 68.5076 423.403C68.5076 422.169 68.5076 421.608 67.4103 421.721C66.3131 421.833 65.5816 421.833 65.4597 422.057Z" fill="#7952B3"/>
<path d="M139.758 298.308L140.659 298.574L140.571 298.834C140.5 299.046 140.421 299.288 140.336 299.557C140.093 300.326 139.849 301.152 139.622 302.002C139.37 302.946 139.153 303.863 138.984 304.728L138.935 304.984C138.524 307.184 138.466 308.864 138.833 309.767L138.855 309.818C140.956 314.601 138.103 317.026 132.114 315.328L131.932 315.275L132.22 314.446C137.615 316.034 139.778 314.244 137.977 310.145C137.481 309.016 137.558 307.101 138.052 304.573C138.225 303.689 138.446 302.755 138.703 301.794C138.908 301.027 139.126 300.28 139.345 299.576L139.427 299.314C139.477 299.158 139.524 299.01 139.569 298.872L139.685 298.523L139.758 298.308Z" fill="black"/>
<path d="M116.385 331.628L116.848 330.868L117.017 330.953L117.172 331.029C117.407 331.142 117.674 331.268 117.971 331.402L118.101 331.46C119.1 331.908 120.204 332.356 121.383 332.774C124.092 333.735 126.769 334.391 129.26 334.604C130.389 334.7 131.459 334.703 132.46 334.604L132.66 334.583L132.776 335.447C131.645 335.575 130.441 335.58 129.173 335.471C126.584 335.25 123.826 334.574 121.042 333.587C119.837 333.159 118.708 332.701 117.686 332.243L117.299 332.068C117.135 331.992 116.981 331.919 116.837 331.85L116.569 331.72L116.385 331.628Z" fill="black"/>
<path fill-rule="evenodd" clip-rule="evenodd" d="M133.627 322.147C129.161 322.147 125.793 320.265 125.635 320.175C125.302 319.985 125.199 319.583 125.405 319.276C125.611 318.969 126.048 318.874 126.382 319.063C126.449 319.101 130.404 321.287 135.173 320.755C135.559 320.712 135.916 320.967 135.963 321.325C136.011 321.683 135.733 322.009 135.344 322.052C134.758 322.118 134.183 322.147 133.627 322.147Z" fill="black"/>
<path fill-rule="evenodd" clip-rule="evenodd" d="M135.47 315.87C134.513 315.87 133.32 315.697 131.83 315.259L132.118 314.429C134.893 315.246 136.942 315.179 137.889 314.241C138.695 313.442 138.69 311.982 137.875 310.129C137.323 308.871 137.459 306.486 138.281 303.04C138.882 300.517 139.648 298.313 139.656 298.292L140.557 298.558C139.727 300.938 137.785 307.6 138.753 309.802C139.983 312.602 139.339 314.084 138.583 314.833C138.043 315.369 137.102 315.87 135.47 315.87Z" fill="black"/>
<mask id="mask0" style="mask-type:alpha" maskUnits="userSpaceOnUse" x="116" y="293" width="17" height="5">
<path fill-rule="evenodd" clip-rule="evenodd" d="M116.823 293.623H132.823V297.844H116.823V293.623Z" fill="white"/>
</mask>
<g mask="url(#mask0)">
<path fill-rule="evenodd" clip-rule="evenodd" d="M131.521 297.844C131.379 297.844 131.234 297.823 131.092 297.777C129.711 297.334 125.722 296.155 123.873 296.029C122.132 295.911 119.476 296.702 118.599 297.017C117.929 297.257 117.175 296.954 116.913 296.338C116.651 295.722 116.981 295.028 117.65 294.787C117.8 294.732 121.373 293.457 124.065 293.641C126.634 293.816 131.734 295.446 131.95 295.516C132.629 295.734 132.987 296.416 132.75 297.041C132.563 297.535 132.059 297.844 131.521 297.844Z" fill="black"/>
</g>
<path fill-rule="evenodd" clip-rule="evenodd" d="M153.423 301.933C153.162 301.933 152.899 301.859 152.672 301.707C151.948 301.219 149.713 299.898 148.088 299.648C146.354 299.381 142.366 299.683 140.975 299.821C140.278 299.89 139.651 299.426 139.575 298.785C139.5 298.143 140.004 297.566 140.701 297.496C140.92 297.475 146.074 296.968 148.507 297.342C151.065 297.735 154.05 299.737 154.176 299.822C154.741 300.204 154.863 300.936 154.448 301.456C154.199 301.768 153.813 301.933 153.423 301.933Z" fill="black"/>
<path fill-rule="evenodd" clip-rule="evenodd" d="M128.298 303.129C128.298 303.837 127.675 304.41 126.907 304.41C126.138 304.41 125.515 303.837 125.515 303.129C125.515 302.422 126.138 301.849 126.907 301.849C127.675 301.849 128.298 302.422 128.298 303.129Z" fill="black"/>
<path fill-rule="evenodd" clip-rule="evenodd" d="M146.106 304.584C146.106 305.291 145.483 305.864 144.714 305.864C143.946 305.864 143.323 305.291 143.323 304.584C143.323 303.877 143.946 303.303 144.714 303.303C145.483 303.303 146.106 303.877 146.106 304.584Z" fill="black"/>
<path fill-rule="evenodd" clip-rule="evenodd" d="M135.862 276.525C135.862 276.525 115.713 276.937 109.893 291.355C104.072 305.773 109.268 310.6 104.782 319.466C100.296 328.332 91.9888 329.097 91.9888 329.097C91.9888 329.097 103.287 322.676 103.453 314.88C103.619 307.084 103.055 295.229 103.171 294.812C103.287 294.396 98.8064 293.285 97.9728 296.21C97.9728 296.21 95.3341 278.82 105.488 268.774C119.923 254.49 156.582 260.64 155.286 286.564C154.358 305.134 156.062 311.69 156.062 311.69C156.062 311.69 154.63 304.188 153.936 297.056C153.242 289.924 151.516 280.658 138.835 276.741C138.835 276.741 133.673 272.408 132.133 272.075C130.593 271.741 136.42 274.726 135.862 276.525Z" fill="black"/>
<path fill-rule="evenodd" clip-rule="evenodd" d="M135.862 276.525C135.862 276.525 115.713 276.937 109.893 291.355C104.072 305.773 109.268 310.6 104.782 319.466C100.296 328.332 91.9888 329.097 91.9888 329.097C91.9888 329.097 103.287 322.676 103.453 314.88C103.619 307.084 103.055 295.229 103.171 294.812C103.287 294.396 98.8064 293.285 97.9728 296.21C97.9728 296.21 95.3341 278.82 105.488 268.774C119.923 254.49 156.582 260.64 155.286 286.564C154.358 305.134 156.062 311.69 156.062 311.69C156.062 311.69 154.63 304.188 153.936 297.056C153.242 289.924 151.516 280.658 138.835 276.741C138.835 276.741 133.673 272.408 132.133 272.075C130.593 271.741 136.42 274.726 135.862 276.525Z" fill="#3A2B06"/>
<path fill-rule="evenodd" clip-rule="evenodd" d="M115.689 273.603C115.689 273.603 106.807 278.506 100.057 270.661C93.3074 262.817 103.61 255.299 112.491 255.299C121.373 255.299 124.57 260.202 123.86 265.432C123.149 270.661 119.597 272.296 115.689 273.603Z" fill="#3A2B06"/>
<path fill-rule="evenodd" clip-rule="evenodd" d="M151.046 256.631C151.046 256.631 161.038 258.133 161.574 267.595C162.111 277.056 149.404 276.63 142.402 271.603C135.4 266.576 135.87 261.24 139.62 257.882C143.37 254.523 147.167 255.359 151.046 256.631Z" fill="#3A2B06"/>
<path fill-rule="evenodd" clip-rule="evenodd" d="M393.615 556.728L409.477 541.355L407.411 517.917L400.682 519.798L390.414 548.507L393.615 556.728Z" fill="#56ACF6"/>
<path fill-rule="evenodd" clip-rule="evenodd" d="M372.267 563.494C371.49 563.442 345.922 561.04 345.922 561.04C345.922 561.04 344.779 561.683 341.829 561.489C338.878 561.294 336.205 559.538 338.193 548.037C340.181 536.535 341.789 535.923 343.031 536.005C344.274 536.087 347.124 537.567 349.143 537.7C351.162 537.833 370.807 538.122 370.807 538.122L372.267 563.494Z" fill="#E4F9FF"/>
<path fill-rule="evenodd" clip-rule="evenodd" d="M371.258 563.765L391.702 565.865L388.57 550.657L394.963 536.296L403.615 514.474L401.556 496.249L396.46 497.015C396.46 497.015 387.154 513.39 384.572 517.301C381.989 521.212 377.492 522.779 377.492 522.779L367.832 528.929C367.832 528.929 357.525 535.496 356.637 540.739C355.749 545.982 356.744 550.466 359.031 549.468C361.318 548.47 365.352 545.996 365.352 545.996L363.261 555.578L370.522 561.005L372.235 562.443L373.442 561.864" fill="#F4F0F1"/>
<path fill-rule="evenodd" clip-rule="evenodd" d="M374.24 562.296C374.24 562.296 376.07 562.493 377.912 557.137C379.755 551.78 382.634 546.029 379.512 545.206C376.389 544.383 373.266 545.721 373.266 545.721L377.17 540.809C377.17 540.809 381.456 538.545 385.615 541.133C389.774 543.722 389.939 550.214 389.939 550.214L387.21 552.966C387.21 552.966 381.928 561.568 378.263 563.409C374.597 565.251 374.24 562.296 374.24 562.296Z" fill="#7952B3"/>
<mask id="mask1" style="mask-type:alpha" maskUnits="userSpaceOnUse" x="360" y="491" width="63" height="88">
<path fill-rule="evenodd" clip-rule="evenodd" d="M366.369 578.345L360.055 495.269L416.587 491.63L422.901 574.708L366.369 578.345Z" fill="white"/>
</mask>
<g mask="url(#mask1)">
<path fill-rule="evenodd" clip-rule="evenodd" d="M366.778 564.15C366.778 564.15 382.966 570.438 382.735 569.887C382.503 569.335 374.585 565.798 377.615 565.65C380.646 565.503 384.524 567.336 387.893 566.957C387.893 566.957 396.028 564.086 396.163 562.359C396.297 560.631 393.962 552.396 393.962 552.396C393.962 552.396 388.664 548.641 394.206 540.858C399.748 533.075 405.392 523.028 405.392 523.028C405.392 523.028 406.509 524.251 407.546 524.299C408.583 524.346 409.996 523.735 409.996 523.735L405.222 554.182L393.162 570.573L393.395 572.602C393.395 572.602 394.655 574.482 398.316 574.652C401.975 574.821 402.926 574.668 404.057 575.174C405.191 575.68 407.435 576.978 408.524 573.023C409.615 569.068 417.316 539.376 418.492 526.294C419.666 513.214 415.631 499.789 411.771 496.155C407.911 492.521 404.829 491.959 401.875 492.771C398.919 493.583 395.357 495.188 396.034 498.942C396.711 502.694 397.388 504.837 395.252 510.992C393.117 517.147 393.366 519.577 394.882 519.361C396.399 519.145 397.845 514.612 397.845 514.612C397.845 514.612 399.317 508.53 399.97 508.571C400.623 508.615 401.201 508.826 400.739 514.343C400.28 519.86 398.969 526.471 393.233 535.144C387.497 543.817 385.25 546.39 385.944 552.086C386.638 557.782 389.482 562.887 385.105 564.325C380.728 565.764 374.925 561.835 373.442 561.865C371.959 561.895 371.258 563.765 371.258 563.765L365.289 564.135" fill="#15023F"/>
<path fill-rule="evenodd" clip-rule="evenodd" d="M363.063 563.367C363.063 563.367 363.361 563.575 365.289 564.136C367.217 564.696 373.16 564.891 372.966 562.985C372.771 561.079 368.686 559.588 366.375 557.897C364.063 556.207 363.415 554.074 364.499 552.252C365.584 550.431 365.111 543.394 365.111 543.394C365.111 543.394 361.63 545.279 361.565 551.53C361.565 551.53 359.974 555.948 364.338 558.528C368.701 561.109 373.038 562.68 369.367 562.87C366.207 563.033 364.271 562.117 363.156 562.312C362.04 562.506 363.063 563.367 363.063 563.367Z" fill="#451989"/>
<path fill-rule="evenodd" clip-rule="evenodd" d="M385.432 515.458C385.432 515.458 385.967 518.789 384.977 528.47C383.984 538.149 379.213 536.003 377.95 539.95C376.689 543.897 376.494 544.323 372.504 546.479C368.514 548.633 372.153 554.075 371.474 556.667C370.793 559.262 363.036 551.496 363.036 551.496C363.036 551.496 361.808 547.296 365.111 543.394C366.041 542.296 369.372 540.079 370.153 539.408C370.933 538.739 372.538 534.668 377.47 531.049C382.405 527.429 381.008 522.335 381.31 521.323C381.614 520.312 368.438 529.035 368.438 529.035L367.127 529.018C367.127 529.018 375.836 523.571 379.717 520.906C383.597 518.238 384.563 516.042 384.791 515.645C385.021 515.25 385.432 515.458 385.432 515.458Z" fill="#E263AB"/>
<path fill-rule="evenodd" clip-rule="evenodd" d="M374.791 567.339C374.791 567.339 390.226 573.573 393.766 573.224C397.308 572.874 395.028 565.889 401.823 562.945C408.618 560.002 411.596 555.604 415.124 536.978C418.653 518.351 411.063 502.637 409.88 502.559C408.699 502.481 406.41 502.605 406.41 502.605C406.41 502.605 411.155 529.428 402.962 540.55C394.77 551.671 392.264 552.053 393.425 556.229C394.585 560.405 393.107 562.859 388.898 566.044C388.898 566.044 386.794 566.36 381.34 565.181C375.887 564.002 368.105 565.036 374.791 567.339Z" fill="white"/>
<path fill-rule="evenodd" clip-rule="evenodd" d="M362.237 551.269C362.237 551.269 359.547 553.544 356.64 549.779C353.734 546.013 355.895 539.287 358.223 537.268C358.223 537.268 356.171 541.128 356.711 545.929C357.252 550.73 358.749 549.602 362.462 547.394L361.858 551.734" fill="#451989"/>
<path fill-rule="evenodd" clip-rule="evenodd" d="M365.249 544.85C366.141 544.334 367.449 544.774 368.171 545.832C368.894 546.889 368.755 548.165 367.863 548.68C366.971 549.196 365.662 548.756 364.94 547.698C364.218 546.641 364.356 545.365 365.249 544.85Z" fill="#1F003C"/>
<path fill-rule="evenodd" clip-rule="evenodd" d="M366.901 548.048C366.901 548.048 364.991 547.797 363.732 544.413C362.472 541.03 360.431 534.637 363.301 531.245C366.171 527.853 367.468 528.156 367.468 528.156C367.468 528.156 365.853 530.634 365.163 532.551C364.472 534.467 364.202 537.065 364.745 539.654C365.288 542.243 366.204 544.825 366.579 545.66C366.954 546.494 368.789 547.269 366.901 548.048Z" fill="#E8D9F3"/>
<path fill-rule="evenodd" clip-rule="evenodd" d="M369.359 540.312C370.251 539.796 371.559 540.236 372.282 541.293C373.004 542.351 372.865 543.627 371.973 544.142C371.081 544.658 369.772 544.218 369.05 543.16C368.328 542.102 368.466 540.827 369.359 540.312Z" fill="#1F003C"/>
<path fill-rule="evenodd" clip-rule="evenodd" d="M371.011 543.509C371.011 543.509 369.101 543.264 367.832 540.008C366.562 536.752 364.502 530.602 367.361 527.349C370.221 524.096 371.518 524.391 371.518 524.391C371.518 524.391 369.911 526.769 369.226 528.609C368.542 530.449 368.28 532.946 368.831 535.436C369.381 537.926 370.305 540.41 370.682 541.213C371.06 542.016 372.897 542.765 371.011 543.509Z" fill="#E8D9F3"/>
<path fill-rule="evenodd" clip-rule="evenodd" d="M373.098 535.298C373.99 534.782 375.298 535.222 376.02 536.28C376.742 537.337 376.604 538.613 375.712 539.128C374.82 539.644 373.511 539.204 372.789 538.146C372.067 537.088 372.205 535.813 373.098 535.298Z" fill="#1F003C"/>
<path fill-rule="evenodd" clip-rule="evenodd" d="M374.829 538.501C374.829 538.501 373.112 538.293 371.946 535.699C370.78 533.105 369.237 526.548 371.777 523.985C374.318 521.421 376.068 523.003 376.068 523.003C376.068 523.003 373.705 525.199 373.106 526.656C372.506 528.113 372.291 530.093 372.805 532.075C373.32 534.056 374.17 536.035 374.515 536.675C374.86 537.316 376.516 537.923 374.829 538.501Z" fill="#E8D9F3"/>
</g>
<path fill-rule="evenodd" clip-rule="evenodd" d="M350.573 545.462L371.862 537.353L380.334 515.168L373.357 514.369L351.284 536.753L350.573 545.462Z" fill="#56ACF6"/>
<path fill-rule="evenodd" clip-rule="evenodd" d="M375.787 553.844L397.077 545.736L405.548 523.55L398.571 522.751L376.498 545.135L375.787 553.844Z" fill="#56ACF6"/>
<path fill-rule="evenodd" clip-rule="evenodd" d="M356.324 554.005C355.592 553.76 331.718 545.004 331.718 545.004C331.718 545.004 330.428 545.334 327.648 544.403C324.868 543.472 322.821 541.11 328.158 530.549C333.495 519.989 335.225 519.806 336.395 520.198C337.565 520.59 339.866 522.732 341.768 523.369C343.67 524.006 362.477 529.237 362.477 529.237L356.324 554.005Z" fill="#E4F9FF"/>
<path fill-rule="evenodd" clip-rule="evenodd" d="M355.273 554.012L374.309 561.187L375.826 545.771L386.253 533.573L401.072 514.766L404.522 496.719L399.392 496.172C399.392 496.172 385.565 509.573 381.916 512.684C378.268 515.794 373.476 516.167 373.476 516.167L362.354 519.647C362.354 519.647 350.486 523.363 348.07 528.182C345.654 533 345.276 537.563 347.772 537.18C350.269 536.797 354.885 535.435 354.885 535.435L350.021 544.123L355.387 551.173L356.606 552.988L357.939 552.736" fill="#F4F0F1"/>
<path fill-rule="evenodd" clip-rule="evenodd" d="M358.578 553.352C358.578 553.352 360.279 554.003 363.646 549.316C367.014 544.629 371.496 539.824 368.738 538.245C365.98 536.667 362.578 537.166 362.578 537.166L367.796 533.426C367.796 533.426 372.591 532.329 375.82 535.867C379.049 539.405 377.275 545.69 377.275 545.69L373.83 547.649C373.83 547.649 366.189 554.59 362.115 555.437C358.042 556.284 358.578 553.352 358.578 553.352Z" fill="#7952B3"/>
<path fill-rule="evenodd" clip-rule="evenodd" d="M350.849 553.253C350.849 553.253 364.545 563.382 364.487 562.793C364.429 562.204 357.866 556.806 360.825 557.428C363.783 558.051 366.967 560.791 370.319 561.275C370.319 561.275 378.999 560.567 379.643 558.939C380.287 557.311 380.492 548.802 380.492 548.802C380.492 548.802 376.517 543.856 384.165 537.768C391.812 531.68 400.234 523.441 400.234 523.441C400.234 523.441 400.942 524.899 401.926 525.206C402.908 525.512 404.45 525.282 404.45 525.282L390.791 553.36L374.311 566.083L373.929 568.092C373.929 568.092 374.581 570.218 378.051 571.304C381.52 572.389 382.481 572.482 383.42 573.254C384.358 574.026 386.129 575.841 388.354 572.311C390.581 568.783 406.832 542.169 411.858 529.884C416.883 517.6 417.001 503.672 414.373 499.205C411.743 494.737 408.945 493.418 405.863 493.455C402.779 493.491 398.875 494.137 398.407 497.917C397.941 501.697 397.952 503.928 394.067 509.309C390.18 514.689 389.695 517.09 391.218 517.264C392.741 517.439 395.482 513.444 395.482 513.444C395.482 513.444 398.71 507.965 399.326 508.171C399.94 508.377 400.432 508.725 398.346 513.915C396.26 519.105 393.032 525.132 384.931 532.027C376.831 538.922 373.904 540.83 372.875 546.483C371.845 552.136 373.06 557.763 368.423 558.042C363.785 558.322 359.374 553.08 357.939 552.735C356.504 552.39 355.272 554.012 355.272 554.012L349.422 552.864" fill="#15023F"/>
<path fill-rule="evenodd" clip-rule="evenodd" d="M347.51 551.564C347.51 551.564 347.735 551.838 349.422 552.864C351.109 553.889 356.767 555.575 357.147 553.693C357.528 551.811 354.044 549.346 352.324 547.138C350.605 544.929 350.616 542.715 352.202 541.236C353.788 539.758 355.429 532.872 355.429 532.872C355.429 532.872 351.52 533.807 349.595 539.802C349.595 539.802 346.75 543.649 350.177 547.231C353.605 550.814 357.307 553.418 353.721 552.675C350.633 552.035 349.044 550.666 347.913 550.572C346.782 550.478 347.51 551.564 347.51 551.564Z" fill="#451989"/>
<path fill-rule="evenodd" clip-rule="evenodd" d="M383.292 511.128C383.292 511.128 382.815 514.467 378.98 523.527C375.141 532.586 371.192 529.319 368.802 532.796C366.413 536.274 366.1 536.635 361.62 537.702C357.141 538.767 359.019 544.918 357.594 547.24C356.166 549.564 351.019 540.14 351.019 540.14C351.019 540.14 351.09 535.791 355.428 532.871C356.65 532.05 360.514 530.758 361.464 530.309C362.414 529.862 365.17 526.353 370.992 524.115C376.816 521.878 376.989 516.627 377.581 515.729C378.174 514.834 362.904 519.9 362.904 519.9L361.649 519.554C361.649 519.554 371.648 516.511 376.173 514.926C380.7 513.339 382.283 511.471 382.62 511.146C382.959 510.824 383.292 511.128 383.292 511.128Z" fill="#E263AB"/>
<path fill-rule="evenodd" clip-rule="evenodd" d="M357.606 558.34C357.606 558.34 370.593 568.227 374.101 568.783C377.611 569.34 377.501 562.048 384.912 560.931C392.321 559.812 396.496 556.333 405.437 539.309C414.38 522.286 411.761 505.26 410.647 504.887C409.533 504.514 407.296 504.055 407.296 504.055C407.296 504.055 403.871 531.049 392.677 539.679C381.486 548.309 378.963 548.045 378.836 552.353C378.707 556.662 376.556 558.65 371.559 560.651C371.559 560.651 369.441 560.425 364.547 557.916C359.654 555.407 351.861 554.439 357.606 558.34Z" fill="white"/>
<path fill-rule="evenodd" clip-rule="evenodd" d="M350.319 539.72C350.319 539.72 347.053 541.23 345.38 536.876C343.707 532.522 347.788 526.598 350.629 525.243C350.629 525.243 347.505 528.438 346.595 533.191C345.685 537.945 347.46 537.238 351.69 536.051L349.816 540.072" fill="#451989"/>
<path fill-rule="evenodd" clip-rule="evenodd" d="M355.127 534.306C356.139 534.036 357.267 534.788 357.646 535.988C358.025 537.187 357.513 538.379 356.501 538.65C355.489 538.921 354.362 538.168 353.982 536.968C353.603 535.769 354.116 534.577 355.127 534.306Z" fill="#1F003C"/>
<path fill-rule="evenodd" clip-rule="evenodd" d="M355.764 537.798C355.764 537.798 354.002 537.076 353.798 533.504C353.595 529.932 353.536 523.269 357.307 520.731C361.077 518.192 362.234 518.811 362.234 518.811C362.234 518.811 359.943 520.787 358.708 522.456C357.473 524.124 356.44 526.555 356.191 529.182C355.942 531.809 356.054 534.523 356.166 535.421C356.278 536.317 357.812 537.525 355.764 537.798Z" fill="#E8D9F3"/>
<path fill-rule="evenodd" clip-rule="evenodd" d="M360.432 530.978C361.443 530.707 362.571 531.46 362.95 532.659C363.329 533.858 362.817 535.05 361.805 535.321C360.794 535.592 359.666 534.839 359.287 533.64C358.907 532.44 359.42 531.249 360.432 530.978Z" fill="#1F003C"/>
<path fill-rule="evenodd" clip-rule="evenodd" d="M361.069 534.47C361.069 534.47 359.305 533.752 359.054 530.301C358.802 526.85 358.653 520.416 362.372 518.008C366.09 515.601 367.25 516.211 367.25 516.211C367.25 516.211 364.996 518.093 363.79 519.69C362.583 521.287 361.588 523.622 361.376 526.156C361.164 528.689 361.312 531.312 361.436 532.179C361.56 533.046 363.103 534.23 361.069 534.47Z" fill="#E8D9F3"/>
<path fill-rule="evenodd" clip-rule="evenodd" d="M365.521 527.099C366.533 526.828 367.66 527.581 368.04 528.78C368.419 529.979 367.906 531.171 366.894 531.442C365.883 531.713 364.755 530.96 364.376 529.761C363.997 528.561 364.509 527.369 365.521 527.099Z" fill="#1F003C"/>
<path fill-rule="evenodd" clip-rule="evenodd" d="M366.232 530.616C366.232 530.616 364.643 529.983 364.294 527.194C363.945 524.406 364.414 517.711 367.621 515.886C370.827 514.061 372.039 516.024 372.039 516.024C372.039 516.024 369.113 517.541 368.103 518.79C367.092 520.04 366.295 521.891 366.2 523.926C366.105 525.961 366.332 528.078 366.473 528.781C366.615 529.484 368.026 530.486 366.232 530.616Z" fill="#E8D9F3"/>
</svg>
