<svg width="27" height="32" viewBox="0 0 27 32" fill="none" xmlns="http://www.w3.org/2000/svg">
<path d="M13.5 0C10.0202 0.00357316 6.68411 1.269 4.22354 3.51866C1.76297 5.76833 0.378908 8.8185 0.375 12C0.375 20.455 11.9749 31.158 12.4688 31.6095C12.7441 31.8564 13.1143 31.9947 13.5 31.9947C13.8857 31.9947 14.2559 31.8564 14.5312 31.6095C15.0251 31.158 26.625 20.455 26.625 12C26.6211 8.8185 25.237 5.76833 22.7765 3.51866C20.3159 1.269 16.9798 0.00357316 13.5 0V0ZM13.5 28.7277C10.7213 25.9628 3.29167 18.0075 3.29167 12C3.29167 9.52464 4.36718 7.15067 6.28162 5.40033C8.19605 3.65 10.7926 2.66667 13.5 2.66667C16.2074 2.66667 18.8039 3.65 20.7184 5.40033C22.6328 7.15067 23.7083 9.52464 23.7083 12C23.7083 18.0075 16.2785 25.963 13.5 28.7277Z" fill="#7952B3"/>
<path d="M14.1525 6.8075C13.95 6.71492 13.7266 6.66671 13.5002 6.66671C13.2738 6.66671 13.0505 6.71492 12.848 6.8075L7.01465 9.47417L8.31913 11.8592L9.12522 11.4907V14.6667C9.12522 15.0203 9.27887 15.3594 9.55236 15.6095C9.82585 15.8595 10.1968 16 10.5836 16H16.4169C16.8037 16 17.1746 15.8595 17.4481 15.6095C17.7216 15.3594 17.8752 15.0203 17.8752 14.6667V11.4907L18.6813 11.8592L19.9858 9.47417L14.1525 6.8075ZM14.9586 10.1573V13.3333H12.0419V10.1573L13.5002 9.49067L14.9586 10.1573Z" fill="#7952B3"/>
</svg>
