<svg width="90" height="90" viewBox="0 0 90 90" fill="none" xmlns="http://www.w3.org/2000/svg">
<path d="M33.25 39.6753H23.6098C22.7249 39.6753 22.0094 40.3908 22 41.2851V65.3855C22 66.2799 22.7249 66.9954 23.6098 66.9954H33.25C34.1444 66.9954 34.8598 66.2705 34.8598 65.3855V41.2851C34.8598 40.3908 34.1349 39.6753 33.25 39.6753Z" fill="#7952B3"/>
<path d="M49.3201 22.0054H39.6799C38.795 22.0054 38.0701 22.7209 38.0701 23.6058V65.3861C38.0701 66.2805 38.795 66.996 39.6799 66.996H49.3201C50.2144 66.996 50.9299 66.2711 50.9299 65.3861V23.6152C50.9299 22.7209 50.205 22.0054 49.3201 22.0054Z" fill="#7952B3"/>
<path d="M65.3902 34.855H55.75C54.8556 34.855 54.1402 35.5705 54.1402 36.4648V65.3853C54.1402 66.2797 54.8651 66.9951 55.75 66.9951H65.3902C66.2845 66.9951 67 66.2702 67 65.3853V36.4648C67 35.5705 66.2751 34.855 65.3902 34.855Z" fill="#7952B3"/>
<circle cx="45" cy="45" r="40" stroke="white" stroke-width="10"/>
</svg>
