<svg width="161" height="74" viewBox="0 0 161 74" fill="none" xmlns="http://www.w3.org/2000/svg">
<path d="M37.9892 19.293H68.3553V21.1311H40.7728V34.9653H66.7105V36.8034H40.7728V51.992H68.6716V53.8301H37.9892V19.293ZM71.0756 19.293H74.302L88.5993 34.4816L103.213 19.293L123.09 0L90.434 36.0778L107.262 53.8301H103.909L88.5993 37.6741L73.2265 53.8301H69.9369L86.8913 36.0778L71.0756 19.293ZM108.464 21.1311V19.293H143.068V21.1311H127.126V53.8301H124.343V21.1311H108.464ZM0 19.293H3.47945L51.459 73.9722L31.6313 53.8301L2.91008 21.9051L2.78356 53.8301H0V19.293ZM142.788 51.4373C142.219 51.4373 141.793 51.1017 141.793 50.668C141.793 50.2344 142.219 49.8988 142.788 49.8988C143.364 49.8988 143.783 50.2344 143.783 50.668C143.783 51.1017 143.364 51.4373 142.788 51.4373ZM145.523 49.4135H147.013C147.033 50.0278 147.622 50.4409 148.489 50.4409C149.457 50.4409 150.005 49.9969 150.005 49.1657V43.8996H151.522V49.1708C151.522 50.668 150.384 51.5302 148.502 51.5302C146.735 51.5302 145.523 50.6939 145.523 49.4135ZM153.505 49.3464H155.008C155.137 50.0537 156.044 50.5028 157.351 50.5028C158.569 50.5028 159.463 50.0227 159.463 49.3618C159.463 48.7939 158.894 48.4532 157.601 48.2209L156.342 47.9885C154.575 47.6736 153.769 47.0231 153.769 45.9286C153.769 44.6017 155.191 43.7189 157.324 43.7189C159.307 43.7189 160.756 44.6017 160.844 45.8563H159.368C159.226 45.1696 158.441 44.7411 157.303 44.7411C156.105 44.7411 155.306 45.18 155.306 45.8511C155.306 46.3829 155.821 46.6875 157.094 46.9147L158.17 47.116C160.174 47.4722 161 48.0918 161 49.2121C161 50.6371 159.551 51.5302 157.236 51.5302C155.069 51.5302 153.614 50.6784 153.505 49.3464Z" fill="black"/>
</svg>
