<svg width="722" height="585" viewBox="0 0 722 585" fill="none" xmlns="http://www.w3.org/2000/svg">
<g opacity="0.5">
<g opacity="0.5">
<path opacity="0.5" fill-rule="evenodd" clip-rule="evenodd" d="M438.476 0C483.251 0 532.198 15.0279 561.304 49.536C574.752 65.4812 581.487 84.1988 581.509 102.804C581.519 123.809 572.97 144.67 555.839 161.285C539.997 176.646 519.766 187.044 499.103 195.581L496.823 196.518C494.495 197.483 492.126 198.566 490.658 200.526C489.553 201.99 489.072 203.792 488.654 205.554L488.577 205.885C484.223 224.385 476.228 240.186 465.554 253.514H465.545C446.535 277.261 418.966 293.145 388.248 302.44C364.724 309.564 339.342 312.832 314.519 312.832C272.764 312.832 234.437 303.368 204.413 287.579L204.402 287.568C199.172 284.836 194.188 281.889 189.49 278.775C158.913 258.513 140.085 230.838 140.085 200.328C140.085 142.167 208.521 94.3098 296.299 88.4362C306.085 38.456 366.006 0 438.476 0ZM245.824 2.39634C261.062 2.39634 273.413 10.4918 273.413 20.4778C273.413 30.4651 261.062 38.5592 245.824 38.5592C230.586 38.5592 218.235 30.4651 218.235 20.4778C218.235 10.4918 230.586 2.39634 245.824 2.39634Z" fill="#FFF5F3"/>
</g>
</g>
<path opacity="0.5" d="M360.797 584.265C560.059 584.265 721.593 578.608 721.593 571.63C721.593 564.651 560.059 558.994 360.797 558.994C161.534 558.994 0 564.651 0 571.63C0 578.608 161.534 584.265 360.797 584.265Z" fill="#D5ECFF"/>
<path fill-rule="evenodd" clip-rule="evenodd" d="M85.8074 566.695L133.198 296.528L147.314 299.454L194.749 566.318H185.36L140.186 303.244L94.5485 566.654L85.8074 566.695Z" fill="#FFC107"/>
<path fill-rule="evenodd" clip-rule="evenodd" d="M97.9514 312.274H177.405V302.493H97.9514V312.274Z" fill="#AB8524"/>
<path fill-rule="evenodd" clip-rule="evenodd" d="M449.856 566.467L497.248 296.299L511.365 299.225L558.798 566.092H549.408L504.237 303.018L458.597 566.425L449.856 566.467Z" fill="#FFC107"/>
<path fill-rule="evenodd" clip-rule="evenodd" d="M462 312.263H541.454V302.482H462V312.263Z" fill="#AB8524"/>
<path fill-rule="evenodd" clip-rule="evenodd" d="M631.948 302.582H13.2973C10.9287 302.582 9.00854 300.138 9.00854 297.121V271.013C9.00854 267.996 10.9287 265.552 13.2973 265.552H631.948C634.315 265.552 636.236 267.996 636.236 271.013V297.121C636.236 300.138 634.315 302.582 631.948 302.582Z" fill="#AB8524"/>
<path fill-rule="evenodd" clip-rule="evenodd" d="M636.013 129.863C636.013 129.863 633.734 132.947 630.885 135.594C628.036 138.239 624.847 136.034 624.847 136.034L605.359 115.973L606.062 115.182L589.54 100.455V256.803H615.974C620.852 256.803 624.807 260.629 624.807 265.347H547.481C547.481 262.988 548.47 260.853 550.069 259.306C551.665 257.76 553.875 256.803 556.314 256.803H582.711V94.3686L525.536 43.3985L525.284 44.8015C525.284 44.8015 532.137 51.9034 538.256 57.9399C544.373 63.9765 543.639 70.8431 543.639 70.8431L514.638 65.3969L514.64 65.3817L484.666 59.3778C484.666 59.3778 486.731 52.7726 494.787 49.4939C502.843 46.2131 512 42.2265 512 42.2265L514.392 32.09L518.295 32.8699L519.775 27.0076L521.977 27.4106L521.98 27.4019L524.196 27.8594L523.218 33.8197L527.128 34.5604L526.813 36.3097L610.138 110.594L610.942 109.69C610.942 109.69 630.545 122.918 633.734 125.122C636.925 127.327 636.013 129.863 636.013 129.863Z" fill="#AB8524"/>
<path fill-rule="evenodd" clip-rule="evenodd" d="M484.666 59.3773C484.666 59.3773 496.778 56.0368 515.065 59.8712C533.351 63.7055 543.638 70.8427 543.638 70.8427C543.638 70.8427 531.56 74.0956 513.786 70.8795C496.012 67.6636 484.666 59.3773 484.666 59.3773Z" fill="#FFC107"/>
<path fill-rule="evenodd" clip-rule="evenodd" d="M508.824 58.7931C508.824 58.7931 508.489 63.1363 514.101 64.6562C519.714 66.1764 520.948 61.2903 520.948 61.2903C520.948 61.2903 515.547 59.7745 508.824 58.7931Z" fill="#FCEBEC"/>
<path fill-rule="evenodd" clip-rule="evenodd" d="M251.909 387.706C249.265 402.413 223.818 560.983 223.818 560.983C223.818 560.983 224.39 564.987 228.531 565.576C232.671 566.166 234.862 562.515 234.862 562.515L270.755 391.56L251.909 387.706Z" fill="#FFC107"/>
<path fill-rule="evenodd" clip-rule="evenodd" d="M335.428 391.462C338.223 406.143 371.213 563.406 371.213 563.406C371.213 563.406 373.186 566.97 377.28 566.133C381.375 565.297 382.122 561.136 382.122 561.136L354.486 388.754L335.428 391.462Z" fill="#FFC107"/>
<path fill-rule="evenodd" clip-rule="evenodd" d="M377.262 390.983C380.055 405.664 413.044 562.927 413.044 562.927C413.044 562.927 415.017 566.491 419.112 565.654C423.206 564.817 423.954 560.657 423.954 560.657L396.317 388.275L377.262 390.983Z" fill="#FFC107"/>
<path fill-rule="evenodd" clip-rule="evenodd" d="M399.498 394.42H246.821C241.038 394.42 236.351 389.885 236.351 384.293C236.351 378.698 241.038 374.163 246.821 374.163H399.498C405.281 374.163 409.968 378.698 409.968 384.293C409.968 389.885 405.281 394.42 399.498 394.42Z" fill="#AB8524"/>
<path fill-rule="evenodd" clip-rule="evenodd" d="M452.406 232.119H195.359C190.884 232.119 187.256 228.609 187.256 224.281V71.0098C187.256 66.6803 190.884 63.1705 195.359 63.1705H452.406C456.883 63.1705 460.511 66.6803 460.511 71.0098V224.281C460.511 228.609 456.883 232.119 452.406 232.119Z" fill="#FFC107"/>
<path fill-rule="evenodd" clip-rule="evenodd" d="M449.041 198.178H197.814V79.1637C197.814 75.9726 200.49 73.3857 203.789 73.3857H443.35C446.649 73.3857 449.322 75.9726 449.322 79.1637V197.906C449.322 198.056 449.196 198.178 449.041 198.178Z" fill="#FCEBEC"/>
<path fill-rule="evenodd" clip-rule="evenodd" d="M460.554 196.84V226.461C460.554 229.653 457.878 232.239 454.579 232.239H364.729V253.527C371.375 253.936 376.634 259.28 376.634 265.811H273.25C273.25 262.411 274.674 259.335 276.978 257.106C279.171 254.984 282.16 253.634 285.475 253.512V232.239H193.13C189.83 232.239 187.155 229.653 187.155 226.461V196.568H460.272C460.428 196.568 460.554 196.69 460.554 196.84Z" fill="#FFC107"/>
<path fill-rule="evenodd" clip-rule="evenodd" d="M331.039 214.828C331.039 218.368 328.073 221.239 324.413 221.239C320.751 221.239 317.785 218.368 317.785 214.828C317.785 211.288 320.751 208.417 324.413 208.417C328.073 208.417 331.039 211.288 331.039 214.828Z" fill="#FCEBEC"/>
<path fill-rule="evenodd" clip-rule="evenodd" d="M433.005 85.6743C433.005 86.811 432.053 87.7325 430.877 87.7325C429.704 87.7325 428.751 86.811 428.751 85.6743C428.751 84.5375 429.704 83.616 430.877 83.616C432.053 83.616 433.005 84.5375 433.005 85.6743Z" fill="white"/>
<path fill-rule="evenodd" clip-rule="evenodd" d="M217.264 85.8562C217.264 86.9929 216.311 87.9144 215.136 87.9144C213.962 87.9144 213.01 86.9929 213.01 85.8562C213.01 84.7197 213.962 83.7982 215.136 83.7982C216.311 83.7982 217.264 84.7197 217.264 85.8562Z" fill="#E93737"/>
<path fill-rule="evenodd" clip-rule="evenodd" d="M225.941 85.7677C225.941 86.9045 224.989 87.826 223.813 87.826C222.637 87.826 221.685 86.9045 221.685 85.7677C221.685 84.631 222.637 83.7095 223.813 83.7095C224.989 83.7095 225.941 84.631 225.941 85.7677Z" fill="#F9C818"/>
<path fill-rule="evenodd" clip-rule="evenodd" d="M234.889 85.8222C234.889 86.9589 233.937 87.8804 232.761 87.8804C231.585 87.8804 230.633 86.9589 230.633 85.8222C230.633 84.6855 231.585 83.764 232.761 83.764C233.937 83.764 234.889 84.6855 234.889 85.8222Z" fill="#1BC0D7"/>
<path fill-rule="evenodd" clip-rule="evenodd" d="M427.713 102.179H214.908C212.01 102.179 209.661 99.9063 209.661 97.1026C209.661 94.2989 212.01 92.0246 214.908 92.0246H427.713C430.611 92.0246 432.96 94.2989 432.96 97.1026C432.96 99.9063 430.611 102.179 427.713 102.179Z" fill="white"/>
<path fill-rule="evenodd" clip-rule="evenodd" d="M427.562 189.329H305.842C303.328 189.329 301.292 187.36 301.292 184.928V112.727C301.292 110.298 303.328 108.326 305.842 108.326H427.562C430.075 108.326 432.111 110.298 432.111 112.727V184.928C432.111 187.36 430.075 189.329 427.562 189.329Z" fill="white"/>
<path fill-rule="evenodd" clip-rule="evenodd" d="M342.538 153.539H319.429C316.915 153.539 314.879 151.567 314.879 149.138V123.399C314.879 120.97 316.915 118.999 319.429 118.999H342.538C345.052 118.999 347.088 120.97 347.088 123.399V149.138C347.088 151.567 345.052 153.539 342.538 153.539Z" fill="#AB8524"/>
<path fill-rule="evenodd" clip-rule="evenodd" d="M381.487 153.48H358.378C355.864 153.48 353.826 151.51 353.826 149.079V123.343C353.826 120.911 355.864 118.942 358.378 118.942H381.487C384.001 118.942 386.037 120.911 386.037 123.343V149.079C386.037 151.51 384.001 153.48 381.487 153.48Z" fill="#AB8524"/>
<path fill-rule="evenodd" clip-rule="evenodd" d="M420.107 153.539H396.998C394.484 153.539 392.448 151.567 392.448 149.138V123.399C392.448 120.97 394.484 118.999 396.998 118.999H420.107C422.621 118.999 424.659 120.97 424.659 123.399V149.138C424.659 151.567 422.621 153.539 420.107 153.539Z" fill="#AB8524"/>
<path fill-rule="evenodd" clip-rule="evenodd" d="M340.279 151.802H317.17C314.657 151.802 312.621 149.833 312.621 147.402V121.665C312.621 119.234 314.657 117.262 317.17 117.262H340.279C342.793 117.262 344.829 119.234 344.829 121.665V147.402C344.829 149.833 342.793 151.802 340.279 151.802Z" fill="#FCEBEC"/>
<path fill-rule="evenodd" clip-rule="evenodd" d="M278.529 189.087H221C214.746 189.087 209.676 184.551 209.676 178.955V119.704C209.676 114.108 214.746 109.572 221 109.572H278.529C284.784 109.572 289.853 114.108 289.853 119.704V178.955C289.853 184.551 284.784 189.087 278.529 189.087Z" fill="white"/>
<path fill-rule="evenodd" clip-rule="evenodd" d="M249.765 177.759C266.059 177.759 279.268 165.03 279.268 149.33C279.268 133.629 266.059 120.9 249.765 120.9C233.471 120.9 220.262 133.629 220.262 149.33C220.262 165.03 233.471 177.759 249.765 177.759ZM249.765 164.732C258.607 164.732 265.776 157.837 265.776 149.33C265.776 140.823 258.607 133.928 249.765 133.928C240.923 133.928 233.754 140.823 233.754 149.33C233.754 157.837 240.923 164.732 249.765 164.732Z" fill="#56ACF6"/>
<path fill-rule="evenodd" clip-rule="evenodd" d="M255.846 134.941C260.235 136.671 263.647 140.232 265.066 144.646L277.917 140.801C275.309 132.645 269.017 126.057 260.92 122.861L255.846 134.941Z" fill="#E93737"/>
<path fill-rule="evenodd" clip-rule="evenodd" d="M221.388 156.876C222.662 161.407 225.047 165.49 228.241 168.827L238.054 159.876C236.308 158.059 235.009 155.833 234.317 153.36L221.388 156.876Z" fill="#1BC0D7"/>
<path fill-rule="evenodd" clip-rule="evenodd" d="M344.838 123.924H312.627V120.641C312.627 118.776 314.19 117.265 316.118 117.265H341.347C343.275 117.265 344.838 118.776 344.838 120.641V123.924Z" fill="#E93737"/>
<path fill-rule="evenodd" clip-rule="evenodd" d="M379.228 151.743H356.119C353.606 151.743 351.57 149.774 351.57 147.343V121.606C351.57 119.175 353.606 117.206 356.119 117.206H379.228C381.742 117.206 383.778 119.175 383.778 121.606V147.343C383.778 149.774 381.742 151.743 379.228 151.743Z" fill="#FCEBEC"/>
<path fill-rule="evenodd" clip-rule="evenodd" d="M383.787 123.865H351.576V120.585C351.576 118.72 353.139 117.208 355.067 117.208H380.296C382.224 117.208 383.787 118.72 383.787 120.585V123.865Z" fill="#1BC0D7"/>
<path fill-rule="evenodd" clip-rule="evenodd" d="M417.851 151.802H394.739C392.228 151.802 390.189 149.833 390.189 147.402V121.665C390.189 119.234 392.228 117.262 394.739 117.262H417.851C420.362 117.262 422.4 119.234 422.4 121.665V147.402C422.4 149.833 420.362 151.802 417.851 151.802Z" fill="#FCEBEC"/>
<path fill-rule="evenodd" clip-rule="evenodd" d="M422.407 123.924H390.198V120.641C390.198 118.776 391.761 117.265 393.689 117.265H418.916C420.844 117.265 422.407 118.776 422.407 120.641V123.924Z" fill="#56ACF6"/>
<path fill-rule="evenodd" clip-rule="evenodd" d="M423.483 166.84H314.465C313.722 166.84 313.12 166.348 313.12 165.738C313.12 165.13 313.722 164.638 314.465 164.638H423.483C424.226 164.638 424.828 165.13 424.828 165.738C424.828 166.348 424.226 166.84 423.483 166.84Z" fill="#1BC0D7"/>
<path fill-rule="evenodd" clip-rule="evenodd" d="M423.033 176.888H314.012C313.271 176.888 312.67 176.393 312.67 175.785C312.67 175.177 313.271 174.683 314.012 174.683H423.033C423.776 174.683 424.377 175.177 424.377 175.785C424.377 176.393 423.776 176.888 423.033 176.888Z" fill="#1BC0D7"/>
<path fill-rule="evenodd" clip-rule="evenodd" d="M81.7537 178.848C81.7537 178.848 119.524 171.571 133.186 141.902C146.848 112.234 122.14 114.479 106.175 129.496C90.2099 144.513 82.7757 161.32 81.7537 178.848Z" fill="#F9C818"/>
<path fill-rule="evenodd" clip-rule="evenodd" d="M73.0089 217.407C73.0058 217.361 72.6999 212.688 73.8605 205.145C74.93 198.194 77.4995 187.3 83.6673 174.869C89.8288 162.452 96.6037 152.945 101.202 147.157C106.189 140.88 109.772 137.49 109.808 137.457L110.356 138.003C110.321 138.036 106.769 141.397 101.814 147.636C97.2415 153.393 90.5046 162.848 84.3767 175.199C78.2574 187.532 75.7057 198.337 74.6429 205.229C73.4911 212.699 73.7907 217.311 73.7938 217.356L73.0089 217.407Z" fill="#0A4343"/>
<path fill-rule="evenodd" clip-rule="evenodd" d="M72.7805 150.31C72.7805 150.31 106.127 134.552 108.789 102.466C111.451 70.3788 88.7607 78.2313 78.8174 96.5462C68.8741 114.861 67.6568 132.968 72.7805 150.31Z" fill="#237978"/>
<path fill-rule="evenodd" clip-rule="evenodd" d="M66.7631 159.678C66.7631 159.678 30.9326 131.606 35.8163 95.1605C40.7001 58.715 65.801 74.6323 73.0646 98.1097C80.3283 121.587 77.2327 142.064 66.7631 159.678Z" fill="#F9C818"/>
<path fill-rule="evenodd" clip-rule="evenodd" d="M63.2128 162.727C63.2128 162.727 18.0639 153.815 5.01077 119.21C-8.04252 84.6054 21.7987 87.515 39.4347 105.142C57.0707 122.77 64.0925 142.37 63.2128 162.727Z" fill="#237978"/>
<path fill-rule="evenodd" clip-rule="evenodd" d="M68.7851 221.982C68.7669 221.786 66.9838 202.106 68.9079 177.39C70.038 162.869 72.2077 149.475 75.3565 137.577C79.2964 122.69 84.7901 110.116 91.6849 100.205L92.3387 100.628C85.495 110.466 80.0387 122.958 76.1211 137.758C72.9838 149.611 70.8213 162.96 69.6939 177.434C67.7735 202.09 69.5513 221.719 69.5695 221.914L68.7851 221.982Z" fill="#0A4343"/>
<path fill-rule="evenodd" clip-rule="evenodd" d="M53.0786 246.599L52.3365 246.358C52.4081 246.15 59.5267 225.175 62.9367 195.602C64.9391 178.239 65.29 161.352 63.9799 145.412C62.3428 125.495 58.0935 107.008 51.3494 90.4645L52.0768 90.1837C58.8509 106.801 63.1183 125.366 64.7608 145.362C66.0742 161.353 65.7215 178.291 63.7124 195.706C60.2916 225.354 53.1504 246.39 53.0786 246.599Z" fill="#0A4343"/>
<path fill-rule="evenodd" clip-rule="evenodd" d="M38.512 237.776C38.512 253.237 51.4689 265.77 67.4523 265.77C83.4356 265.77 96.3925 253.237 96.3925 237.776V204.99H38.512V237.776Z" fill="black"/>
<path fill-rule="evenodd" clip-rule="evenodd" d="M64.7521 171.877C64.3688 165.731 61.8524 158.661 57.2735 150.865C53.5469 144.52 48.4412 137.664 42.098 130.487C32.0991 119.175 21.6633 110.073 17.6406 106.685C17.4835 106.553 17.3824 106.467 17.3418 106.432L17.8715 105.869C17.9105 105.903 18.0074 105.985 18.158 106.111C22.1939 109.511 32.6639 118.643 42.6969 129.993C49.0725 137.206 54.2072 144.102 57.9584 150.489C62.5972 158.388 65.1473 165.568 65.5381 171.831L64.7521 171.877Z" fill="#0A4343"/>
<path fill-rule="evenodd" clip-rule="evenodd" d="M425.022 542.649L440.923 557.249L465.164 555.348L463.218 549.154L433.525 539.702L425.022 542.649Z" fill="#56ACF6"/>
<path fill-rule="evenodd" clip-rule="evenodd" d="M415.376 455.761C415.221 457.857 421.273 499.911 421.273 499.911L444.248 501.962L449.879 453.427L415.376 455.761Z" fill="#AE6F4C"/>
<path fill-rule="evenodd" clip-rule="evenodd" d="M418.025 522.998C418.078 522.284 420.562 498.749 420.562 498.749C420.562 498.749 419.897 497.697 420.098 494.981C420.3 492.266 422.116 489.805 434.011 491.635C445.908 493.464 446.541 494.945 446.456 496.088C446.371 497.232 444.84 499.856 444.703 501.714C444.565 503.573 444.266 521.655 444.266 521.655L418.025 522.998Z" fill="#E4F9FF"/>
<path fill-rule="evenodd" clip-rule="evenodd" d="M417.744 522.07L415.572 540.889L431.301 538.005L446.154 543.889L468.725 551.853L487.575 549.958L486.782 545.268C486.782 545.268 469.846 536.702 465.801 534.325C461.756 531.948 460.135 527.808 460.135 527.808L453.774 518.917C453.774 518.917 446.982 509.43 441.559 508.612C436.136 507.794 431.499 508.711 432.531 510.816C433.564 512.92 436.122 516.634 436.122 516.634L426.211 514.71L420.599 521.393L419.111 522.969L419.709 524.08" fill="#F4F0F1"/>
<path fill-rule="evenodd" clip-rule="evenodd" d="M419.264 524.815C419.264 524.815 419.059 526.499 424.599 528.195C430.14 529.891 436.088 532.541 436.939 529.667C437.79 526.793 436.407 523.918 436.407 523.918L441.487 527.512C441.487 527.512 443.829 531.457 441.151 535.285C438.474 539.113 431.76 539.266 431.76 539.266L428.913 536.753C428.913 536.753 420.017 531.891 418.112 528.518C416.207 525.144 419.264 524.815 419.264 524.815Z" fill="#7952B3"/>
<mask id="mask0" style="mask-type:alpha" maskUnits="userSpaceOnUse" x="402" y="511" width="91" height="59">
<path fill-rule="evenodd" clip-rule="evenodd" d="M402.664 517.57L488.589 511.758L492.352 563.794L406.426 569.606L402.664 517.57Z" fill="white"/>
</mask>
<g mask="url(#mask0)">
<path fill-rule="evenodd" clip-rule="evenodd" d="M417.346 517.946C417.346 517.946 410.842 532.847 411.412 532.634C411.983 532.421 415.641 525.132 415.794 527.922C415.946 530.711 414.051 534.281 414.443 537.381C414.443 537.381 417.412 544.87 419.198 544.994C420.985 545.117 429.503 542.968 429.503 542.968C429.503 542.968 433.386 538.092 441.436 543.193C449.486 548.294 459.877 553.489 459.877 553.489C459.877 553.489 458.612 554.518 458.564 555.472C458.515 556.426 459.146 557.727 459.146 557.727L427.655 553.333L410.702 542.232L408.604 542.446C408.604 542.446 406.659 543.606 406.484 546.976C406.309 550.344 406.467 551.219 405.944 552.261C405.42 553.304 404.078 555.369 408.168 556.371C412.259 557.376 442.97 564.465 456.5 565.547C470.029 566.628 483.913 562.914 487.672 559.36C491.431 555.807 492.012 552.971 491.172 550.252C490.332 547.531 488.672 544.253 484.789 544.875C480.909 545.499 478.693 546.122 472.326 544.156C465.961 542.191 463.447 542.419 463.671 543.815C463.894 545.211 468.582 546.542 468.582 546.542C468.582 546.542 474.873 547.897 474.83 548.498C474.785 549.1 474.567 549.631 468.861 549.206C463.154 548.784 456.317 547.577 447.347 542.297C438.376 537.017 435.715 534.949 429.824 535.587C423.932 536.226 418.652 538.844 417.164 534.815C415.677 530.787 419.74 525.445 419.71 524.08C419.678 522.715 417.744 522.07 417.744 522.07L417.361 516.576" fill="#15023F"/>
<path fill-rule="evenodd" clip-rule="evenodd" d="M418.155 514.527C418.155 514.527 417.941 514.801 417.36 516.576C416.781 518.351 416.58 523.821 418.551 523.642C420.522 523.463 422.065 519.703 423.813 517.575C425.562 515.447 427.767 514.851 429.651 515.849C431.535 516.848 438.813 516.412 438.813 516.412C438.813 516.412 436.863 513.208 430.399 513.148C430.399 513.148 425.829 511.684 423.16 515.7C420.491 519.717 418.866 523.708 418.67 520.33C418.501 517.421 419.448 515.639 419.247 514.612C419.046 513.585 418.155 514.527 418.155 514.527Z" fill="#451989"/>
<path fill-rule="evenodd" clip-rule="evenodd" d="M467.708 535.117C467.708 535.117 464.262 535.61 454.25 534.698C444.238 533.784 446.457 529.393 442.375 528.23C438.293 527.069 437.853 526.89 435.622 523.217C433.395 519.544 427.766 522.894 425.085 522.269C422.402 521.642 430.433 514.502 430.433 514.502C430.433 514.502 434.778 513.372 438.813 516.412C439.949 517.268 442.242 520.334 442.936 521.052C443.628 521.771 447.838 523.248 451.582 527.788C455.326 532.331 460.594 531.044 461.641 531.322C462.686 531.602 453.665 519.474 453.665 519.474L453.682 518.267C453.682 518.267 459.316 526.284 462.073 529.856C464.832 533.428 467.103 534.317 467.514 534.527C467.923 534.738 467.708 535.117 467.708 535.117Z" fill="#E263AB"/>
<path fill-rule="evenodd" clip-rule="evenodd" d="M414.048 525.322C414.048 525.322 407.599 539.53 407.961 542.788C408.322 546.048 415.547 543.95 418.592 550.204C421.636 556.459 426.185 559.199 445.45 562.447C464.715 565.695 480.967 558.709 481.049 557.62C481.13 556.533 481.001 554.426 481.001 554.426C481.001 554.426 453.258 558.794 441.755 551.252C430.252 543.712 429.858 541.406 425.538 542.474C421.219 543.542 418.681 542.181 415.387 538.307C415.387 538.307 415.06 536.37 416.279 531.35C417.499 526.331 416.429 519.167 414.048 525.322Z" fill="white"/>
<path fill-rule="evenodd" clip-rule="evenodd" d="M430.669 513.767C430.669 513.767 428.315 511.29 432.21 508.615C436.105 505.94 443.061 507.929 445.149 510.072C445.149 510.072 441.157 508.183 436.192 508.68C431.226 509.178 432.392 510.556 434.676 513.974L430.187 513.418" fill="#451989"/>
<path fill-rule="evenodd" clip-rule="evenodd" d="M437.308 516.539C437.841 517.36 437.386 518.565 436.292 519.229C435.198 519.894 433.879 519.767 433.346 518.945C432.812 518.124 433.267 516.92 434.362 516.255C435.456 515.59 436.775 515.717 437.308 516.539Z" fill="#1F003C"/>
<path fill-rule="evenodd" clip-rule="evenodd" d="M434 518.06C434 518.06 434.259 516.302 437.759 515.143C441.259 513.983 447.871 512.104 451.379 514.746C454.887 517.388 454.574 518.581 454.574 518.581C454.574 518.581 452.011 517.095 450.029 516.46C448.047 515.824 445.359 515.576 442.682 516.076C440.004 516.575 437.333 517.418 436.47 517.763C435.607 518.109 434.806 519.798 434 518.06Z" fill="#E8D9F3"/>
<path fill-rule="evenodd" clip-rule="evenodd" d="M442.001 520.322C442.535 521.143 442.08 522.348 440.986 523.012C439.892 523.677 438.573 523.55 438.04 522.728C437.506 521.907 437.961 520.703 439.055 520.038C440.15 519.374 441.468 519.501 442.001 520.322Z" fill="#1F003C"/>
<path fill-rule="evenodd" clip-rule="evenodd" d="M438.694 521.843C438.694 521.843 438.948 520.085 442.315 518.916C445.683 517.747 452.044 515.852 455.408 518.483C458.773 521.115 458.468 522.309 458.468 522.309C458.468 522.309 456.008 520.83 454.105 520.2C452.202 519.57 449.62 519.329 447.045 519.836C444.469 520.343 441.899 521.193 441.069 521.54C440.238 521.888 439.463 523.579 438.694 521.843Z" fill="#E8D9F3"/>
<path fill-rule="evenodd" clip-rule="evenodd" d="M447.187 523.763C447.721 524.585 447.266 525.789 446.172 526.454C445.077 527.118 443.758 526.991 443.226 526.17C442.692 525.348 443.147 524.144 444.241 523.479C445.335 522.815 446.654 522.942 447.187 523.763Z" fill="#1F003C"/>
<path fill-rule="evenodd" clip-rule="evenodd" d="M443.874 525.357C443.874 525.357 444.09 523.777 446.773 522.703C449.456 521.63 456.237 520.21 458.888 522.548C461.54 524.886 459.904 526.497 459.904 526.497C459.904 526.497 457.632 524.323 456.125 523.771C454.619 523.219 452.57 523.021 450.521 523.494C448.472 523.968 446.424 524.75 445.762 525.068C445.1 525.386 444.472 526.909 443.874 525.357Z" fill="#E8D9F3"/>
</g>
<path fill-rule="evenodd" clip-rule="evenodd" d="M244.401 327.422C244.401 327.422 243.009 368.281 250.536 365.86C250.536 365.86 291.525 369.794 301.538 371.307C306.575 372.069 316.209 377.9 346.36 382.766C376.511 387.632 405.258 392.647 405.258 394.602C405.258 398.537 411.826 427.24 413.39 462.348C413.39 462.348 422.777 473.244 450.937 463.559C450.937 463.559 452.979 394.915 438.898 368.281C412.012 333.778 326.79 327.422 326.79 327.422H244.401Z" fill="black"/>
<path fill-rule="evenodd" clip-rule="evenodd" d="M325.514 451.488C325.514 453.589 328.204 507.342 328.204 507.342L350.147 509.293L362.278 448.545L325.514 451.488Z" fill="#AE6F4C"/>
<path fill-rule="evenodd" clip-rule="evenodd" d="M332.577 519.137L347.386 534.776L371.706 534.513L370.212 528.205L341.273 516.772L332.577 519.137Z" fill="#56ACF6"/>
<path fill-rule="evenodd" clip-rule="evenodd" d="M332.637 543.814L347.447 559.454L371.766 559.19L370.272 552.881L341.333 541.449L332.637 543.814Z" fill="#56ACF6"/>
<path fill-rule="evenodd" clip-rule="evenodd" d="M326.145 527.034C326.145 526.318 326.886 502.672 326.886 502.672C326.886 502.672 326.145 501.669 326.145 498.946C326.145 496.223 327.775 493.643 339.776 494.646C351.776 495.65 352.517 497.083 352.517 498.229C352.517 499.375 351.184 502.098 351.184 503.961C351.184 505.825 352.221 523.882 352.221 523.882L326.145 527.034Z" fill="#E4F9FF"/>
<path fill-rule="evenodd" clip-rule="evenodd" d="M325.797 526.128L325.02 545.048L340.496 541.085L355.745 545.93L378.846 552.313L397.509 549.121L396.371 544.498C396.371 544.498 378.846 537.123 374.636 535.031C370.425 532.94 368.503 528.923 368.503 528.923L361.502 520.494C361.502 520.494 354.027 511.5 348.558 511.059C343.088 510.618 338.53 511.853 339.715 513.881C340.9 515.909 343.726 519.436 343.726 519.436L333.699 518.201L328.594 525.255L327.227 526.931L327.905 527.997" fill="#F4F0F1"/>
<path fill-rule="evenodd" clip-rule="evenodd" d="M327.515 528.761C327.515 528.761 327.435 530.455 333.086 531.764C338.738 533.073 344.867 535.305 345.503 532.379C346.14 529.454 344.548 526.682 344.548 526.682L349.881 529.916C349.881 529.916 352.507 533.688 350.12 537.692C347.732 541.695 341.046 542.311 341.046 542.311L338.021 540.002C338.021 540.002 328.788 535.767 326.639 532.533C324.49 529.3 327.515 528.761 327.515 528.761Z" fill="#7952B3"/>
<path fill-rule="evenodd" clip-rule="evenodd" d="M325.095 522.042C325.095 522.042 319.708 537.354 320.261 537.102C320.815 536.85 323.925 529.327 324.283 532.099C324.642 534.871 323.015 538.562 323.635 541.628C323.635 541.628 327.148 548.893 328.94 548.893C330.731 548.893 339.068 546.159 339.068 546.159C339.068 546.159 342.582 541.028 350.988 545.56C359.394 550.091 370.142 554.557 370.142 554.557C370.142 554.557 368.956 555.668 368.978 556.624C369 557.578 369.726 558.833 369.726 558.833L337.991 556.626L320.262 546.725L318.185 547.082C318.185 547.082 316.33 548.374 316.404 551.747C316.478 555.119 316.701 555.982 316.256 557.058C315.811 558.134 314.624 560.286 318.778 561.003C322.932 561.722 354.088 566.671 367.663 566.815C381.238 566.959 394.813 562.295 398.299 558.493C401.786 554.69 402.157 551.818 401.118 549.165C400.08 546.509 398.181 543.354 394.355 544.243C390.529 545.133 388.365 545.906 381.871 544.386C375.376 542.866 372.885 543.268 373.211 544.645C373.538 546.021 378.312 547.026 378.312 547.026C378.312 547.026 384.688 547.943 384.688 548.546C384.688 549.148 384.51 549.692 378.786 549.664C373.063 549.636 366.155 548.906 356.817 544.258C347.479 539.611 344.673 537.732 338.843 538.776C333.014 539.82 327.941 542.796 326.16 538.881C324.378 534.965 328.037 529.357 327.905 527.997C327.774 526.637 325.797 526.128 325.797 526.128L325.009 520.674" fill="#15023F"/>
<path fill-rule="evenodd" clip-rule="evenodd" d="M325.65 518.576C325.65 518.576 325.456 518.864 325.008 520.674C324.561 522.484 324.764 527.955 326.717 527.64C328.67 527.325 329.932 523.468 331.518 521.225C333.105 518.982 335.261 518.234 337.214 519.1C339.167 519.966 346.394 519.029 346.394 519.029C346.394 519.029 344.213 515.968 337.76 516.354C337.76 516.354 333.094 515.21 330.729 519.4C328.362 523.591 327.036 527.684 326.592 524.328C326.208 521.438 327.021 519.596 326.745 518.585C326.468 517.575 325.65 518.576 325.65 518.576Z" fill="#451989"/>
<path fill-rule="evenodd" clip-rule="evenodd" d="M376.596 535.69C376.596 535.69 373.195 536.42 363.142 536.202C353.088 535.982 354.977 531.448 350.82 530.57C346.662 529.694 346.21 529.546 343.714 526.037C341.221 522.527 335.854 526.257 333.134 525.819C330.411 525.379 337.895 517.702 337.895 517.702C337.895 517.702 342.145 516.275 346.394 519.029C347.59 519.804 350.104 522.704 350.849 523.372C351.592 524.041 355.901 525.224 359.971 529.494C364.04 533.766 369.2 532.119 370.265 532.324C371.328 532.531 361.434 521.057 361.434 521.057L361.362 519.852C361.362 519.852 367.574 527.46 370.587 530.832C373.603 534.204 375.934 534.934 376.36 535.114C376.783 535.297 376.596 535.69 376.596 535.69Z" fill="#E263AB"/>
<path fill-rule="evenodd" clip-rule="evenodd" d="M322.35 529.627C322.35 529.627 316.967 544.243 317.568 547.468C318.169 550.694 325.221 548.104 328.719 554.132C332.218 560.158 336.957 562.578 356.413 564.486C375.869 566.397 391.565 558.306 391.565 557.215C391.565 556.123 391.283 554.032 391.283 554.032C391.283 554.032 363.932 560.306 351.901 553.576C339.871 546.849 339.307 544.577 335.078 545.941C330.848 547.305 328.217 546.124 324.645 542.486C324.645 542.486 324.175 540.577 325.021 535.486C325.867 530.395 324.271 523.323 322.35 529.627Z" fill="white"/>
<path fill-rule="evenodd" clip-rule="evenodd" d="M338.075 516.953C338.075 516.953 335.545 514.645 339.232 511.708C342.919 508.77 350.004 510.274 352.246 512.267C352.246 512.267 348.125 510.658 343.208 511.498C338.292 512.337 339.557 513.631 342.088 516.883L337.569 516.638" fill="#451989"/>
<path fill-rule="evenodd" clip-rule="evenodd" d="M344.902 519.259C345.494 520.041 345.13 521.274 344.087 522.013C343.045 522.751 341.72 522.716 341.128 521.933C340.535 521.151 340.9 519.918 341.942 519.18C342.984 518.441 344.309 518.477 344.902 519.259Z" fill="#1F003C"/>
<path fill-rule="evenodd" clip-rule="evenodd" d="M341.716 521.005C341.716 521.005 341.844 519.233 345.249 517.835C348.654 516.437 355.111 514.106 358.806 516.499C362.5 518.892 362.275 520.104 362.275 520.104C362.275 520.104 359.609 518.798 357.585 518.301C355.561 517.804 352.863 517.742 350.229 518.426C347.594 519.109 344.992 520.135 344.157 520.539C343.322 520.943 342.647 522.683 341.716 521.005Z" fill="#E8D9F3"/>
<path fill-rule="evenodd" clip-rule="evenodd" d="M349.863 522.708C350.456 523.491 350.091 524.723 349.049 525.462C348.007 526.2 346.681 526.165 346.089 525.382C345.497 524.6 345.861 523.367 346.903 522.629C347.946 521.89 349.271 521.926 349.863 522.708Z" fill="#1F003C"/>
<path fill-rule="evenodd" clip-rule="evenodd" d="M346.677 524.454C346.677 524.454 346.8 522.683 350.072 521.284C353.344 519.886 359.55 517.556 363.1 519.948C366.65 522.341 366.434 523.553 366.434 523.553C366.434 523.553 363.872 522.248 361.927 521.75C359.982 521.253 357.389 521.191 354.857 521.875C352.326 522.558 349.825 523.584 349.023 523.988C348.22 524.392 347.572 526.132 346.677 524.454Z" fill="#E8D9F3"/>
<path fill-rule="evenodd" clip-rule="evenodd" d="M355.29 525.783C355.882 526.565 355.517 527.798 354.475 528.537C353.433 529.275 352.108 529.239 351.515 528.457C350.923 527.675 351.287 526.442 352.33 525.703C353.372 524.965 354.697 525 355.29 525.783Z" fill="#1F003C"/>
<path fill-rule="evenodd" clip-rule="evenodd" d="M352.103 527.601C352.103 527.601 352.201 526.01 354.797 524.754C357.394 523.498 364.053 521.613 366.871 523.762C369.688 525.911 368.175 527.631 368.175 527.631C368.175 527.631 365.748 525.619 364.205 525.173C362.662 524.726 360.604 524.67 358.595 525.284C356.586 525.899 354.602 526.819 353.965 527.182C353.327 527.545 352.813 529.108 352.103 527.601Z" fill="#E8D9F3"/>
<path fill-rule="evenodd" clip-rule="evenodd" d="M266.003 382.765C296.153 387.631 324.901 392.646 324.901 394.601C324.901 398.536 322.46 427.239 324.024 462.348C324.024 462.348 333.411 473.243 361.571 463.558C361.571 463.558 372.621 394.914 358.541 368.28C331.655 333.777 246.433 327.421 246.433 327.421C246.433 327.421 235.852 377.9 266.003 382.765Z" fill="black"/>
<path d="M334.643 347.389C353.804 354.313 363.706 367.099 364.273 385.665L364.287 386.23L363.161 386.251C362.792 368.019 353.37 355.502 334.814 348.616L334.249 348.409L334.643 347.389Z" fill="black"/>
<path fill-rule="evenodd" clip-rule="evenodd" d="M284.663 167.738C284.663 167.738 283.832 185.417 273.17 191.658C263.497 197.32 283.991 230.176 306.037 228.216C318.105 227.143 320.933 195.221 320.933 195.221C320.933 195.221 311.189 193.4 314.788 179.027L284.663 167.738Z" fill="#AE6F4C"/>
<path fill-rule="evenodd" clip-rule="evenodd" d="M302.316 185.714C288.024 184.042 277.709 174.952 276.265 159.873C272.11 160.513 271.13 150.041 272.287 146.677C273.446 143.308 277.226 145.278 277.226 145.278C277.226 145.278 277.54 144.479 277.76 143.606C284.004 118.834 301.49 119.816 301.49 119.816C333.623 121.436 326.094 153.168 324.258 161.587C322.422 170.006 316.133 187.328 302.316 185.714Z" fill="#AE6F4C"/>
<path fill-rule="evenodd" clip-rule="evenodd" d="M206.124 245.292C206.124 245.292 167.952 303.786 182.039 316.271C196.127 328.757 235.786 285.894 235.786 285.894C235.786 285.894 233.743 276.324 225.233 265.01C216.723 253.697 206.124 245.292 206.124 245.292Z" fill="#AE6F4C"/>
<path fill-rule="evenodd" clip-rule="evenodd" d="M366.499 272.998L347.925 270.907C347.925 270.907 352.677 332.75 350.891 332.75C349.932 332.75 327.62 344.45 296.355 344.45C272.335 344.45 242.872 336.767 241.627 336.701C241.474 336.693 241.325 336.593 241.183 336.407C241.584 332.142 241.902 324.6 242.224 316.272C242.449 310.429 242.679 304.201 242.942 298.447C243.188 293.095 243.462 288.154 243.793 284.315C245.235 267.574 244.237 252.296 244.237 252.296L237.125 270.966L192.036 255.076C192.036 255.076 207.092 233.851 225.042 215.39C242.85 197.073 271.412 192.427 271.858 192.357C271.86 192.355 271.862 192.355 271.862 192.355C271.862 192.355 270.259 217.625 297.278 219.566C319.743 221.181 320.907 195.135 320.907 195.135C320.907 195.135 347.168 201.766 354.702 207.981C362.235 214.196 395.471 256.631 395.471 257.703C395.471 258.775 366.499 272.998 366.499 272.998Z" fill="#7952B3"/>
<path fill-rule="evenodd" clip-rule="evenodd" d="M242.943 298.447C242.679 304.201 242.449 310.429 242.224 316.271C242.172 312.313 242.334 306.621 242.943 298.447Z" fill="#7952B3"/>
<path fill-rule="evenodd" clip-rule="evenodd" d="M330.053 277.443C330.053 277.443 318.207 279.94 318.131 275.974C318.131 275.974 326.18 272.742 328.002 272.889C329.825 273.036 338.254 273.99 338.254 273.99L327.85 268.996L317.523 272.081C317.523 272.081 315.169 272.228 314.106 270.612C313.043 268.996 314.258 268.041 314.258 268.041L327.774 263.708C327.774 263.708 328.23 262.312 324.813 262.165C321.396 262.018 313.878 261.504 313.878 261.504C313.878 261.504 312.208 260.108 312.967 257.611C313.727 255.114 317.979 255.995 317.979 255.995C317.979 255.995 315.625 253.792 319.194 251.368C319.194 251.368 330.128 251.662 334.153 254.085C338.177 256.509 365.727 272.871 365.727 272.871L387.167 261.976C387.167 261.976 427.875 310.176 408.768 319.088C389.66 328 330.053 277.443 330.053 277.443Z" fill="#AE6F4C"/>
<path fill-rule="evenodd" clip-rule="evenodd" d="M341.947 262.997L331.181 257.096L317.775 255.706L317.871 254.84L331.37 256.239C331.431 256.245 331.49 256.264 331.544 256.293L342.391 262.239L341.947 262.997Z" fill="black"/>
<path fill-rule="evenodd" clip-rule="evenodd" d="M385.16 284.781L359.429 269.141L359.909 268.403L385.64 284.043L385.16 284.781Z" fill="black"/>
<path fill-rule="evenodd" clip-rule="evenodd" d="M223.817 266.893L198.004 282.408L197.529 281.668L223.342 266.153L223.817 266.893Z" fill="black"/>
<path fill-rule="evenodd" clip-rule="evenodd" d="M341.075 267.782C341.007 267.738 334.261 263.32 332.501 262.611C331.159 262.07 328.476 263.057 327.556 263.483L327.167 262.696C327.317 262.627 330.863 261.006 332.848 261.807C334.69 262.549 341.3 266.877 341.58 267.061L341.075 267.782Z" fill="black"/>
<path fill-rule="evenodd" clip-rule="evenodd" d="M338.757 250.547L345.404 260.381L339.083 256.536L338.757 250.547Z" fill="#AE6F4C"/>
<path fill-rule="evenodd" clip-rule="evenodd" d="M345.164 260.75L338.843 256.905L339.322 256.167L345.643 260.012L345.164 260.75Z" fill="black"/>
<path fill-rule="evenodd" clip-rule="evenodd" d="M233.901 253.725C233.901 253.725 230.653 255.745 229.609 256.979C228.565 258.214 229.493 258.438 227.173 260.795C224.852 263.152 220.676 269.099 227.985 278.188C235.294 287.278 237.73 286.492 240.746 284.921C243.762 283.35 244.11 282.228 249.795 281.667C255.479 281.106 260.932 275.719 260.816 274.373L260.7 273.026C260.7 273.026 265.92 271.119 265.572 268.987C265.224 266.855 263.716 267.079 263.716 267.079C263.716 267.079 264.76 266.069 263.948 264.273C263.136 262.478 259.308 262.815 254.899 263.376C250.491 263.937 239.122 266.181 238.426 265.732C237.73 265.284 237.962 264.61 240.63 264.273C243.298 263.937 254.087 263.825 254.087 260.907C254.087 257.989 250.839 257.428 244.574 257.541C238.31 257.653 237.15 257.316 235.641 257.877L234.133 258.438L233.901 253.725Z" fill="#AE6F4C"/>
<path fill-rule="evenodd" clip-rule="evenodd" d="M263.807 267.066C263.807 267.066 264.14 266.834 261.658 267.751C260.754 268.084 259.479 268.433 257.683 268.762C250.954 269.996 240.398 272.241 237.149 272.69C233.901 273.139 236.569 273.812 243.994 272.353C251.419 270.894 260.257 268.937 260.654 268.809C261.33 268.591 263.357 267.938 263.807 267.066Z" fill="black"/>
<path fill-rule="evenodd" clip-rule="evenodd" d="M258.264 273.7C258.264 273.7 252.772 275.563 250.069 276.216C247.2 276.91 245.038 277.852 244.459 276.954C243.878 276.056 243.182 275.832 243.182 275.832L242.254 276.842C242.254 276.842 242.412 277.959 241.906 278.076C241.004 278.285 239.238 278.637 239.238 278.637C239.238 278.637 239.259 279.266 244.664 278.177C246.005 277.907 248.493 277.523 250.069 277.088C251.52 276.687 256.756 275.383 257.452 274.822C258.148 274.261 258.264 273.7 258.264 273.7Z" fill="black"/>
<path fill-rule="evenodd" clip-rule="evenodd" d="M241.21 273.139C241.21 273.139 241.124 277.657 242.443 277.586C243.762 277.515 244.226 277.515 244.458 277.178C244.69 276.842 244.11 275.719 244.11 274.485C244.11 273.251 244.11 272.69 243.066 272.802C242.022 272.914 241.326 272.914 241.21 273.139Z" fill="#7952B3"/>
<path d="M311.911 149.333L312.769 149.599L312.685 149.859C312.618 150.071 312.543 150.314 312.462 150.583C312.23 151.352 311.998 152.178 311.782 153.029C311.542 153.974 311.336 154.89 311.175 155.756L311.128 156.012C310.737 158.213 310.682 159.894 311.031 160.798L311.052 160.849C313.052 165.634 310.336 168.06 304.637 166.361L304.464 166.308L304.738 165.478C309.872 167.067 311.931 165.277 310.217 161.175C309.745 160.047 309.818 158.131 310.288 155.601C310.453 154.717 310.663 153.782 310.907 152.821C311.102 152.053 311.31 151.306 311.518 150.602L311.596 150.339C311.644 150.183 311.689 150.036 311.732 149.898L311.842 149.548L311.911 149.333Z" fill="black"/>
<path d="M289.67 182.668L290.111 181.908L290.272 181.993L290.419 182.069C290.642 182.182 290.897 182.308 291.179 182.442L291.302 182.5C292.253 182.948 293.304 183.396 294.425 183.815C297.004 184.776 299.551 185.433 301.922 185.646C302.996 185.742 304.014 185.744 304.967 185.646L305.157 185.624L305.267 186.489C304.191 186.617 303.045 186.622 301.838 186.513C299.375 186.292 296.751 185.616 294.101 184.628C292.955 184.2 291.88 183.742 290.908 183.284L290.54 183.108C290.384 183.032 290.237 182.96 290.1 182.891L289.845 182.76L289.67 182.668Z" fill="black"/>
<path fill-rule="evenodd" clip-rule="evenodd" d="M306.077 173.183C301.827 173.183 298.623 171.3 298.472 171.21C298.155 171.02 298.057 170.618 298.253 170.311C298.449 170.004 298.865 169.908 299.183 170.098C299.246 170.136 303.01 172.323 307.548 171.791C307.916 171.747 308.255 172.002 308.3 172.361C308.345 172.719 308.082 173.045 307.711 173.088C307.153 173.154 306.607 173.183 306.077 173.183Z" fill="black"/>
<path fill-rule="evenodd" clip-rule="evenodd" d="M307.831 166.903C306.921 166.903 305.785 166.73 304.367 166.292L304.641 165.462C307.282 166.279 309.232 166.212 310.133 165.273C310.899 164.475 310.895 163.013 310.12 161.159C309.594 159.901 309.724 157.515 310.506 154.067C311.078 151.544 311.807 149.339 311.814 149.317L312.672 149.583C311.882 151.965 310.034 158.629 310.955 160.833C312.126 163.634 311.513 165.116 310.793 165.866C310.28 166.402 309.384 166.903 307.831 166.903Z" fill="black"/>
<mask id="mask1" style="mask-type:alpha" maskUnits="userSpaceOnUse" x="290" y="144" width="16" height="5">
<path fill-rule="evenodd" clip-rule="evenodd" d="M290.086 144.646H305.312V148.87H290.086V144.646Z" fill="white"/>
</mask>
<g mask="url(#mask1)">
<path fill-rule="evenodd" clip-rule="evenodd" d="M304.073 148.869C303.938 148.869 303.8 148.848 303.665 148.802C302.351 148.359 298.554 147.18 296.795 147.054C295.138 146.935 292.611 147.727 291.776 148.042C291.139 148.282 290.421 147.978 290.172 147.363C289.923 146.746 290.236 146.052 290.873 145.81C291.016 145.756 294.416 144.48 296.978 144.664C299.423 144.839 304.276 146.47 304.481 146.54C305.127 146.758 305.468 147.441 305.243 148.066C305.064 148.56 304.585 148.869 304.073 148.869Z" fill="black"/>
</g>
<path fill-rule="evenodd" clip-rule="evenodd" d="M324.915 152.96C324.666 152.96 324.416 152.886 324.2 152.734C323.511 152.246 321.384 150.924 319.838 150.674C318.189 150.407 314.393 150.709 313.07 150.847C312.406 150.916 311.809 150.452 311.738 149.81C311.666 149.168 312.145 148.591 312.809 148.521C313.017 148.5 317.922 147.992 320.237 148.367C322.671 148.76 325.512 150.763 325.631 150.848C326.169 151.23 326.285 151.962 325.89 152.483C325.653 152.795 325.286 152.96 324.915 152.96Z" fill="black"/>
<path fill-rule="evenodd" clip-rule="evenodd" d="M301.006 154.157C301.006 154.864 300.413 155.438 299.682 155.438C298.951 155.438 298.358 154.864 298.358 154.157C298.358 153.449 298.951 152.876 299.682 152.876C300.413 152.876 301.006 153.449 301.006 154.157Z" fill="black"/>
<path fill-rule="evenodd" clip-rule="evenodd" d="M317.952 155.612C317.952 156.32 317.359 156.893 316.628 156.893C315.896 156.893 315.303 156.32 315.303 155.612C315.303 154.905 315.896 154.331 316.628 154.331C317.359 154.331 317.952 154.905 317.952 155.612Z" fill="black"/>
<path fill-rule="evenodd" clip-rule="evenodd" d="M308.204 127.541C308.204 127.541 289.031 127.953 283.492 142.377C277.953 156.801 282.898 161.631 278.629 170.501C274.36 179.371 266.455 180.136 266.455 180.136C266.455 180.136 277.206 173.713 277.364 165.913C277.522 158.113 276.985 146.253 277.096 145.836C277.206 145.42 272.942 144.309 272.149 147.235C272.149 147.235 269.638 129.837 279.3 119.786C293.037 105.495 327.921 111.648 326.688 137.584C325.805 156.162 327.426 162.722 327.426 162.722C327.426 162.722 326.064 155.216 325.403 148.081C324.743 140.945 323.1 131.675 311.033 127.757C311.033 127.757 306.121 123.422 304.655 123.088C303.19 122.755 308.735 125.74 308.204 127.541Z" fill="black"/>
<path fill-rule="evenodd" clip-rule="evenodd" d="M308.204 127.541C308.204 127.541 289.031 127.953 283.492 142.377C277.953 156.801 282.898 161.631 278.629 170.501C274.36 179.371 266.455 180.136 266.455 180.136C266.455 180.136 277.206 173.713 277.364 165.913C277.522 158.113 276.985 146.253 277.096 145.836C277.206 145.42 272.942 144.309 272.149 147.235C272.149 147.235 269.638 129.837 279.3 119.786C293.037 105.495 327.921 111.648 326.688 137.584C325.805 156.162 327.426 162.722 327.426 162.722C327.426 162.722 326.064 155.216 325.403 148.081C324.743 140.945 323.1 131.675 311.033 127.757C311.033 127.757 306.121 123.422 304.655 123.088C303.19 122.755 308.735 125.74 308.204 127.541Z" fill="#3A2B06"/>
<path fill-rule="evenodd" clip-rule="evenodd" d="M289.007 124.617C289.007 124.617 280.556 129.522 274.132 121.674C267.709 113.826 277.513 106.305 285.965 106.305C294.416 106.305 297.459 111.21 296.783 116.442C296.107 121.674 292.726 123.309 289.007 124.617Z" fill="#3A2B06"/>
<path fill-rule="evenodd" clip-rule="evenodd" d="M322.653 107.637C322.653 107.637 332.161 109.14 332.672 118.606C333.182 128.072 321.09 127.646 314.427 122.616C307.764 117.587 308.212 112.249 311.78 108.889C315.348 105.529 318.962 106.365 322.653 107.637Z" fill="#3A2B06"/>
</svg>
