<svg width="512" height="512" viewBox="0 0 512 512" fill="none" xmlns="http://www.w3.org/2000/svg">
<g clip-path="url(#clip0)">
<path d="M256 59.9761C154.415 59.9761 66.6494 104.508 25.2876 169.049C9.08186 194.335 3.09033 222.693 3.09033 252.648C3.09033 285.731 14.1823 316.86 33.7021 344.06C36.8308 348.42 38.4997 353.657 38.4976 359.023L39.4949 452.977C39.4907 464.829 48.1607 472.273 58.4646 466.415L127.34 425.054C133.738 421.416 141.384 420.688 148.35 423.065C180.543 434.05 216.292 440.169 253.941 440.169C361.63 440.169 455.849 395.275 493.66 324.401C505.49 302.223 512 278.008 512 252.648C512 146.238 397.385 59.9761 256 59.9761Z" fill="#FFC107"/>
<path d="M273.513 414.413C235.865 414.413 181.909 409.644 149.716 398.658C142.75 396.282 135.104 397.009 128.706 400.647L70.4294 431.464C67.0411 433.255 62.9533 430.852 62.8719 427.019L61.1618 346.659C61.1639 341.293 59.495 336.055 56.3664 331.696C36.8465 304.497 17.5131 254.825 17.5131 221.742C17.5131 200.866 21.9429 180.77 30.1029 161.943C10.9003 188.976 0 219.852 0 252.648C0 285.731 11.092 316.86 30.6118 344.06C33.7405 348.42 35.4094 353.657 35.4073 359.023L35.3744 457.097C35.3702 468.95 48.161 476.394 58.4648 470.536L129.4 430.205C135.798 426.567 143.444 425.839 150.411 428.216C182.604 439.201 218.352 445.319 256.001 445.319C369.648 445.319 465.98 389.579 499.411 312.447C456.308 373.123 371.323 414.413 273.513 414.413Z" fill="#7952B3"/>
<path d="M312.41 166.082L277.44 166.095C276.897 166.095 264.977 182.098 264.977 182.297V305.527C264.977 314.482 269.146 318.652 278.1 318.652C287.055 318.652 294.314 314.483 294.314 305.527V268.127C301.012 268.093 308.215 268.063 312.41 268.063C340.898 268.063 364.076 245.188 364.076 217.073C364.076 188.957 340.899 166.082 312.41 166.082ZM312.41 235.633C308.871 235.633 303.237 235.655 297.555 235.681C295.848 235.689 294.458 234.312 294.449 232.605C294.422 226.659 294.399 220.723 294.399 217.073C294.399 213.927 294.386 207.834 294.37 201.612C294.366 199.901 295.751 198.513 297.461 198.513H312.41C322.838 198.513 331.648 207.012 331.648 217.073C331.648 227.133 322.838 235.633 312.41 235.633Z" fill="#7952B3"/>
<path d="M293.553 307.322C284.599 307.322 277.339 300.062 277.339 291.106V167.876C277.339 167.677 277.362 167.485 277.369 167.288C277.381 166.951 277.386 166.614 277.419 166.28C277.425 166.225 277.433 166.152 277.44 166.097C277.119 166.11 262.378 166.865 261.886 182.299V305.529C261.886 314.484 269.146 321.744 278.1 321.744C286.46 321.744 293.337 315.416 294.214 307.289C293.994 307.297 293.777 307.322 293.553 307.322Z" fill="#7952B3"/>
<path d="M213.053 319.684C186.125 319.684 166.278 299.834 166.278 272.904C166.278 258.004 170.925 244.64 181.478 235.675C189.997 228.436 201.024 224.064 213.053 224.064C239.981 224.064 261.887 245.974 261.887 272.904C261.887 283.756 258.33 293.793 252.321 301.909C243.416 313.934 229.13 319.684 213.053 319.684ZM213.053 256.688C204.113 256.688 196.839 263.962 196.839 272.903C196.839 281.844 204.112 289.118 213.053 289.118C221.993 289.118 229.267 281.844 229.267 272.903C229.267 263.962 221.993 256.688 213.053 256.688Z" fill="#7952B3"/>
<path d="M414.592 319.793C396.687 319.684 379.919 315.778 366.332 300.784C360.319 294.149 360.823 283.893 367.458 277.879C369.117 276.376 368.942 275.28 370.93 274.584C376.895 272.5 383.79 274.027 388.301 279.005C395.644 287.107 406.963 289.481 414.593 289.421C416.674 289.405 418.53 289.225 420.185 288.917C431.894 286.74 435.63 278.121 435.855 275.197C435.952 273.935 436.796 261.16 425.191 259.359C408.897 256.83 389.011 252.421 375.289 236.795C366.224 226.475 361.709 213.618 365.162 199.925C367.506 190.634 372.815 182.601 380.331 176.644C384.246 173.541 388.76 171.002 393.765 169.141C418.742 159.856 445.52 174.504 448.491 176.205C455.483 180.208 458.366 188.628 455.635 195.937C455.33 196.752 454.569 197.119 454.123 197.899C449.686 205.652 440.494 208.353 432.731 203.948C428.528 201.601 414.612 195.28 405.443 198.688C402.291 199.859 399.59 202.372 398.121 204.497C397.419 205.512 396.913 206.633 396.604 207.857C395.749 211.249 396.56 215.106 398.622 217.454C404.596 224.257 413.479 226.749 427.779 228.968C451.887 232.71 468.014 253.201 466.126 277.691C465.468 286.233 462.36 295.036 456.735 302.513C448.352 313.655 434.381 319.793 414.592 319.793Z" fill="#7952B3"/>
<path d="M397.629 205.286C397.628 205.289 397.632 205.289 397.631 205.292C399.045 202.785 401.529 200.854 405.064 199.541C414.233 196.134 428.239 202.039 432.441 204.386C440.205 208.79 450.073 206.088 454.51 198.335C454.786 197.851 455.035 197.36 455.256 196.861C455.47 196.382 455.654 195.897 455.818 195.409C455.824 195.389 455.833 195.371 455.84 195.351C451.637 196.744 446.892 196.438 442.742 194.084C438.54 191.737 424.533 185.831 415.365 189.239C410.707 190.971 401.496 194.502 397.629 205.286Z" fill="#7952B3"/>
<path d="M424.894 311.551C406.988 311.442 388.161 305.476 374.574 290.482C370.512 285.999 369.435 279.867 371.202 274.504C369.115 275.192 367.132 276.308 365.398 277.879C358.762 283.893 358.259 294.148 364.272 300.784C377.859 315.778 396.687 321.744 414.592 321.853C434.742 321.853 448.85 313.347 457.178 301.894C449.039 307.786 438.303 311.551 424.894 311.551Z" fill="#7952B3"/>
<path d="M422.806 261.017C434.411 262.818 433.892 273.936 433.795 275.198C433.561 278.224 431.774 287.348 418.922 289.122C445.225 294.255 447.856 272.687 446.935 264.927C446.785 263.671 444.713 252.516 433.108 250.715C416.814 248.186 398.282 244.181 384.56 228.555C375.496 218.235 372.032 203.323 375.464 189.624C377.759 180.464 382.042 175.353 382.041 175.353C381.543 175.713 380.446 176.554 380.374 176.612C378.981 177.714 368.947 185.428 365.162 199.926C361.594 213.59 365.194 228.536 374.258 238.857C387.98 254.481 406.512 258.488 422.806 261.017Z" fill="#7952B3"/>
<path d="M223.355 311.442C196.427 311.442 174.52 289.532 174.52 262.602C174.52 251.759 178.076 241.733 184.077 233.619C172.04 242.523 164.218 256.815 164.218 272.904C164.218 299.835 186.125 321.744 213.053 321.744C229.138 321.744 243.427 313.923 252.33 301.886C244.219 307.886 234.195 311.442 223.355 311.442Z" fill="#7952B3"/>
<path d="M123.545 319.684C80.6341 319.684 47.7837 286.829 47.7837 243.913C47.7837 222.791 54.1801 203.607 67.8846 189.57C82.0249 175.086 101.754 166.082 123.545 166.082C166.457 166.082 201.367 200.997 201.367 243.913C201.367 268.151 190.231 289.837 172.808 304.123C159.381 315.13 142.222 319.684 123.545 319.684ZM123.545 198.513C98.515 198.513 78.1514 218.878 78.1514 243.913C78.1514 268.947 98.515 289.313 123.545 289.313C148.577 289.313 168.94 268.947 168.94 243.913C168.94 218.878 148.577 198.513 123.545 198.513Z" fill="#7952B3"/>
<path d="M133.847 311.442C90.9362 311.442 56.0254 276.527 56.0254 233.611C56.0254 214.768 62.7587 197.471 73.9403 183.991C56.7146 198.279 45.7236 219.835 45.7236 243.913C45.7236 286.829 80.6344 321.744 123.545 321.744C147.617 321.744 169.167 310.755 183.453 293.533C169.976 304.711 152.684 311.442 133.847 311.442Z" fill="#7952B3"/>
<path d="M256 397.008C267.471 397.008 276.771 387.707 276.771 376.234C276.771 364.761 267.471 355.461 256 355.461C244.529 355.461 235.229 364.761 235.229 376.234C235.229 387.707 244.529 397.008 256 397.008Z" fill="#CEE5D0"/>
<path d="M183.302 397.008C194.773 397.008 204.073 387.707 204.073 376.234C204.073 364.761 194.773 355.461 183.302 355.461C171.831 355.461 162.532 364.761 162.532 376.234C162.532 387.707 171.831 397.008 183.302 397.008Z" fill="#CEE5D0"/>
<path d="M198.755 381.554C187.284 381.554 177.984 372.254 177.984 360.781C177.984 359.143 178.193 357.556 178.552 356.027C169.374 358.178 162.532 366.398 162.532 376.233C162.532 387.707 171.831 397.007 183.302 397.007C193.135 397.007 201.353 390.166 203.505 380.987C201.977 381.345 200.392 381.554 198.755 381.554Z" fill="#7952B3"/>
<path d="M328.698 397.008C340.169 397.008 349.468 387.707 349.468 376.234C349.468 364.761 340.169 355.461 328.698 355.461C317.227 355.461 307.927 364.761 307.927 376.234C307.927 387.707 317.227 397.008 328.698 397.008Z" fill="#CEE5D0"/>
<path d="M271.453 381.554C259.982 381.554 250.682 372.254 250.682 360.781C250.682 359.143 250.891 357.556 251.25 356.027C242.072 358.178 235.229 366.398 235.229 376.233C235.229 387.707 244.529 397.007 256 397.007C265.833 397.007 274.051 390.166 276.203 380.987C274.675 381.345 273.09 381.554 271.453 381.554Z" fill="#7952B3"/>
<path d="M344.15 381.554C332.679 381.554 323.38 372.254 323.38 360.781C323.38 359.143 323.589 357.556 323.948 356.027C314.77 358.178 307.927 366.398 307.927 376.233C307.927 387.707 317.227 397.007 328.698 397.007C338.531 397.007 346.749 390.166 348.901 380.987C347.373 381.345 345.787 381.554 344.15 381.554Z" fill="#7952B3"/>
<path d="M394.573 491.398C391.462 491.398 388.53 489.506 387.353 486.427C385.831 482.44 387.827 477.974 391.814 476.452C423.058 464.517 451.424 448.454 476.123 428.71C479.456 426.045 484.317 426.587 486.983 429.92C489.647 433.253 489.105 438.115 485.773 440.78C459.824 461.524 430.067 478.382 397.329 490.887C396.422 491.235 395.49 491.398 394.573 491.398Z" fill="#7952B3"/>
<path d="M38.5647 72.5505C36.2128 72.5505 33.8908 71.4811 32.3733 69.4538C29.8164 66.0377 30.5128 61.1948 33.9289 58.6379C53.4075 44.0588 75.029 31.4833 98.1947 21.2609C102.099 19.5394 106.66 21.3062 108.383 25.2106C110.106 29.115 108.338 33.6756 104.434 35.3991C82.3371 45.1497 61.7314 57.1307 43.1881 71.0093C41.7995 72.0488 40.1759 72.5505 38.5647 72.5505Z" fill="#7952B3"/>
<path d="M15.3979 138.782C13.7033 138.782 11.9983 138.227 10.5725 137.085C7.24192 134.417 6.7052 129.555 9.37234 126.225C46.8071 79.4948 103.453 45.4473 168.874 30.3552C173.029 29.3961 177.181 31.988 178.14 36.1469C179.099 40.3047 176.506 44.4532 172.348 45.4123C110.3 59.7267 56.704 91.857 21.4337 135.886C19.907 137.791 17.6633 138.782 15.3979 138.782Z" fill="#7952B3"/>
<path d="M305.28 480.223C301.359 480.223 298.002 477.252 297.601 473.268C297.174 469.023 300.271 465.235 304.516 464.809C380.502 457.181 448.653 423.262 491.495 371.751C494.223 368.471 499.095 368.023 502.376 370.752C505.657 373.481 506.104 378.351 503.375 381.633C457.963 436.233 386.044 472.155 306.059 480.185C305.798 480.21 305.537 480.223 305.28 480.223Z" fill="#7952B3"/>
</g>
<defs>
<clipPath id="clip0">
<rect width="512" height="512" fill="white"/>
</clipPath>
</defs>
</svg>
