<svg width="103" height="103" viewBox="0 0 103 103" fill="none" xmlns="http://www.w3.org/2000/svg">
<path d="M84.6867 33.3842C83.6182 32.9709 82.511 32.5798 81.371 32.2099C81.5584 31.3504 81.7303 30.502 81.8832 29.6681C84.3931 15.9745 82.7521 4.94283 77.1483 1.31074C71.7751 -2.17195 62.9874 1.45932 54.1124 10.1404C53.259 10.9752 52.4031 11.859 51.5477 12.7852C50.9777 12.1724 50.4086 11.5802 49.841 11.0137C40.5397 1.73132 31.2165 -2.1804 25.6183 1.4622C20.2501 4.95499 18.6604 15.3258 20.9197 28.3033C21.1378 29.5568 21.3929 30.8369 21.6813 32.1384C20.3618 32.5594 19.0879 33.0082 17.8691 33.4856C6.9643 37.7588 0 44.4558 0 51.4025C0 58.577 7.47618 65.7732 18.8344 70.1366C19.7307 70.4809 20.6608 70.8065 21.6193 71.1156C21.3082 72.5232 21.0376 73.9026 20.8104 75.248C18.6562 88.0003 20.3385 98.1261 25.6923 101.597C31.2224 105.181 40.5034 101.497 49.5407 92.618C50.2549 91.9161 50.9718 91.1718 51.6899 90.3917C52.6207 91.3991 53.5501 92.3526 54.4745 93.2469C63.2282 101.713 71.8739 105.132 77.2228 101.652C82.7473 98.0573 84.5428 87.1798 82.2118 73.9455C82.0338 72.9347 81.8266 71.9022 81.5939 70.8512C82.2457 70.6347 82.8856 70.4111 83.5095 70.1786C95.3174 65.7814 103 58.6728 103 51.4025C103 44.4307 95.8111 37.6885 84.6867 33.3842ZM82.1256 65.4843C81.5624 65.6939 80.9845 65.8964 80.3956 66.0928C79.0921 61.4545 77.3328 56.5224 75.1798 51.4266C77.2343 46.4522 78.9256 41.5831 80.1927 36.9749C81.2463 37.3176 82.269 37.679 83.2544 38.0604C92.7858 41.7484 98.5999 47.201 98.5999 51.4025C98.5999 55.8778 92.3209 61.6874 82.1256 65.4843ZM77.8953 74.906C78.926 80.758 79.0732 86.0489 78.3905 90.185C77.777 93.9016 76.5433 96.3795 75.0179 97.3719C71.7719 99.4836 64.8304 96.7387 57.3441 89.498C56.4859 88.668 55.6215 87.7817 54.7543 86.8437C57.6565 83.2761 60.5571 79.1286 63.388 74.5225C68.3673 74.0259 73.0716 73.214 77.3377 72.1055C77.5478 73.0582 77.7345 73.9925 77.8953 74.906ZM35.115 97.007C31.9436 98.2658 29.4178 98.3019 27.8909 97.3123C24.642 95.2062 23.2913 87.0761 25.1337 76.1704C25.3447 74.9214 25.5959 73.6385 25.8854 72.3271C30.1048 73.3757 34.7746 74.1303 39.7658 74.5851C42.6158 79.0924 45.6002 83.2353 48.6077 86.8628C47.9506 87.5758 47.296 88.2546 46.6452 88.8942C42.649 92.8204 38.6443 95.6059 35.115 97.007ZM20.2575 65.4569C15.2351 63.5275 11.0874 61.0199 8.24437 58.2836C5.68973 55.8246 4.39994 53.3834 4.39994 51.4025C4.39994 47.187 9.99159 41.8102 19.3175 38.1556C20.449 37.7122 21.6336 37.2943 22.8629 36.9017C24.1517 41.614 25.8425 46.5408 27.8829 51.5228C25.8161 56.5788 24.1013 61.5841 22.7998 66.3516C21.9234 66.0685 21.0744 65.7705 20.2575 65.4569ZM25.2378 27.3536C23.3022 16.2347 24.5877 7.8471 27.8227 5.74236C31.2686 3.50018 38.8883 6.69706 46.9193 14.7119C47.4326 15.2242 47.948 15.7604 48.4648 16.3151C45.4722 19.9268 42.5151 24.0386 39.6904 28.5193C34.8463 29.0239 30.2093 29.8346 25.9459 30.9201C25.6779 29.7082 25.4404 28.5176 25.2378 27.3536ZM69.6674 39.6842C68.6482 37.7056 67.6019 35.7737 66.5352 33.8946C69.8216 34.3616 72.9702 34.9814 75.9271 35.74C75.0394 38.9377 73.9329 42.281 72.6305 45.7085C71.6962 43.7148 70.708 41.7047 69.6674 39.6842ZM51.5491 19.8495C53.5787 22.3208 55.6112 25.08 57.6103 28.0737C55.5958 27.9668 53.5563 27.9112 51.5 27.9112C49.4631 27.9112 47.4387 27.9656 45.4366 28.0707C47.4378 25.1048 49.4879 22.3493 51.5491 19.8495ZM33.3148 39.7184C32.2967 41.7026 31.3269 43.7019 30.4073 45.7048C29.1259 42.2893 28.0297 38.9306 27.1343 35.6876C30.073 34.9485 33.2068 34.3441 36.4723 33.886C35.3906 35.7824 34.3357 37.7285 33.3148 39.718V39.7184ZM36.5663 69.2717C33.1925 68.8487 30.0116 68.2754 27.0736 67.5567C27.9833 64.2557 29.1037 60.8254 30.4122 57.3363C31.3342 59.3378 32.3079 61.3379 33.3322 63.3264H33.3324C34.3758 65.3522 35.4568 67.3366 36.5663 69.2717ZM51.6709 83.3041C49.5854 80.7751 47.5052 77.9775 45.4737 74.9684C47.4458 75.0554 49.4565 75.0999 51.5 75.0999C53.5994 75.0999 55.6748 75.0467 57.7176 74.9445C55.7118 78.0078 53.6867 80.8097 51.6709 83.3041ZM72.6725 57.1585C74.0492 60.6853 75.2097 64.0977 76.1312 67.3424C73.1448 68.1081 69.9204 68.7249 66.5231 69.1831C67.5924 67.2787 68.6478 65.3137 69.685 63.2924C70.7342 61.2474 71.7305 59.1993 72.6725 57.1585ZM65.8736 60.8217C64.2635 63.9594 62.6105 66.9548 60.9324 69.7822C57.876 70.0278 54.7183 70.1543 51.5 70.1543C48.2947 70.1543 45.1768 70.0424 42.1745 69.8234C40.4287 66.9589 38.7398 63.9547 37.14 60.8487H37.1404C35.5448 57.7511 34.0762 54.6274 32.7456 51.5212C34.0759 48.4077 35.5406 45.2805 37.127 42.1885L37.1266 42.1891C38.7173 39.0889 40.3913 36.0993 42.1209 33.2528C45.1842 32.9925 48.3253 32.8567 51.4998 32.8567H51.5C54.6888 32.8567 57.834 32.9935 60.8963 33.2561C62.5995 36.0818 64.2622 39.0617 65.8591 42.1624C67.4741 45.2978 68.9577 48.4042 70.2994 51.4509C68.9617 54.5499 67.4814 57.6876 65.8736 60.8217ZM74.9505 5.59523C78.3996 7.83082 79.7409 16.847 77.5739 28.6699C77.4356 29.4243 77.28 30.1927 77.1109 30.9714C72.8377 29.8632 68.1974 29.0385 63.3391 28.5263C60.5089 23.9964 57.576 19.8782 54.6322 16.3128C55.4236 15.4571 56.214 14.641 57.0011 13.871C64.6052 6.43309 71.7124 3.49647 74.9505 5.59523ZM51.5 41.0649C56.5796 41.0649 60.6975 45.6931 60.6975 51.4025C60.6975 57.1117 56.5796 61.7401 51.5 61.7401C46.4204 61.7401 42.3025 57.1117 42.3025 51.4025C42.3025 45.6931 46.4204 41.0649 51.5 41.0649Z" fill="#00D8FF"/>
</svg>
