<svg width="60" height="100" viewBox="0 0 60 100" fill="none" xmlns="http://www.w3.org/2000/svg">
<path d="M58.3709 46.098L12.9221 1.59755C11.871 0.567475 10.4677 0 8.97152 0C7.4753 0 6.07207 0.567475 5.0209 1.59755L1.67391 4.87394C-0.503999 7.00889 -0.503999 10.4788 1.67391 12.6105L39.8384 49.9793L1.63156 87.3895C0.580388 88.4196 0 89.7928 0 91.257C0 92.7228 0.580388 94.096 1.63156 95.1269L4.97855 98.4025C6.03055 99.4325 7.43295 100 8.92917 100C10.4254 100 11.8286 99.4325 12.8798 98.4025L58.3709 53.8614C59.4246 52.828 60.0033 51.4484 60 49.9817C60.0033 48.5094 59.4246 47.1305 58.3709 46.098Z" fill="white"/>
</svg>
