<svg width="25" height="25" viewBox="0 0 25 25" fill="none" xmlns="http://www.w3.org/2000/svg">
<g clip-path="url(#clip0)">
<path d="M6.91142 0.159117C6.6956 -0.0493691 6.35162 -0.0433585 6.14313 0.172463C5.93979 0.383037 5.93979 0.716829 6.14313 0.927353L17.7117 12.497L6.14206 24.0656C5.92624 24.2741 5.92028 24.6181 6.12872 24.8339C6.3372 25.0498 6.68113 25.0557 6.897 24.8473C6.90154 24.8429 6.90597 24.8385 6.91035 24.8339L18.8636 12.8806C19.0757 12.6685 19.0757 12.3246 18.8636 12.1124L6.91142 0.159117Z" fill="#FFC107"/>
<path d="M6.52674 24.9937C6.22667 24.9942 5.98298 24.7513 5.98242 24.4513C5.98217 24.3066 6.03963 24.1678 6.14206 24.0656L17.7117 12.497L6.14206 0.928456C5.9296 0.715997 5.9296 0.37156 6.14206 0.1591C6.35452 -0.0533589 6.69896 -0.0533589 6.91142 0.1591L18.8647 12.1124C19.0768 12.3245 19.0768 12.6685 18.8647 12.8807L6.91142 24.8339C6.80954 24.9361 6.67109 24.9937 6.52674 24.9937Z" fill="#FFC107"/>
</g>
<defs>
<clipPath id="clip0">
<rect width="25" height="25" fill="white"/>
</clipPath>
</defs>
</svg>
