<svg width="25" height="25" viewBox="0 0 25 25" fill="none" xmlns="http://www.w3.org/2000/svg">
<g clip-path="url(#clip0)">
<path d="M6.9114 0.159178C6.69558 -0.0493081 6.3516 -0.0432975 6.14312 0.172524C5.93978 0.383098 5.93978 0.71689 6.14312 0.927414L17.7117 12.4971L6.14205 24.0657C5.92623 24.2742 5.92027 24.6181 6.1287 24.834C6.33719 25.0498 6.68112 25.0558 6.89699 24.8473C6.90152 24.843 6.90595 24.8385 6.91033 24.834L18.8636 12.8807C19.0757 12.6686 19.0757 12.3246 18.8636 12.1124L6.9114 0.159178Z" fill="#F44336"/>
<path d="M6.52674 24.9937C6.22667 24.9942 5.98298 24.7513 5.98242 24.4513C5.98217 24.3066 6.03963 24.1678 6.14206 24.0656L17.7117 12.497L6.14206 0.928456C5.9296 0.715997 5.9296 0.37156 6.14206 0.1591C6.35452 -0.0533589 6.69896 -0.0533589 6.91142 0.1591L18.8647 12.1124C19.0768 12.3245 19.0768 12.6685 18.8647 12.8807L6.91142 24.8339C6.80954 24.9361 6.67109 24.9937 6.52674 24.9937Z" fill="#7952B3"/>
</g>
<defs>
<clipPath id="clip0">
<rect width="25" height="25" fill="white"/>
</clipPath>
</defs>
</svg>
