<svg width="302" height="343" viewBox="0 0 302 343" fill="none" xmlns="http://www.w3.org/2000/svg">
<path d="M302 171.5C302 266.217 223.405 343 126.453 343C29.5014 343 27.2034 322.276 27.2034 227.559C27.2034 132.842 29.5014 0 126.453 0C233.354 196.831 302 76.7832 302 171.5Z" fill="#FFC107" fill-opacity="0.5"/>
<path d="M197.966 168.985C195.753 168.219 193.459 167.494 191.097 166.809C191.485 165.217 191.842 163.645 192.158 162.1C197.358 136.731 193.958 116.293 182.35 109.564C171.218 103.112 153.014 109.839 134.628 125.922C132.86 127.469 131.087 129.106 129.315 130.822C128.134 129.687 126.955 128.59 125.779 127.54C106.51 110.343 87.1965 103.096 75.5991 109.845C64.4783 116.316 61.185 135.529 65.8654 159.572C66.3173 161.894 66.8456 164.265 67.4431 166.677C64.7096 167.457 62.0707 168.288 59.5457 169.173C36.9552 177.089 22.5278 189.496 22.5278 202.366C22.5278 215.658 38.0156 228.99 61.5454 237.074C63.4023 237.712 65.3291 238.315 67.3147 238.887C66.6702 241.495 66.1096 244.051 65.639 246.543C61.1763 270.169 64.6614 288.928 75.7525 295.358C87.2086 301.999 106.435 295.173 125.157 278.724C126.637 277.423 128.122 276.044 129.61 274.599C131.538 276.465 133.463 278.232 135.378 279.889C153.512 295.574 171.423 301.908 182.504 295.46C193.949 288.801 197.668 268.649 192.839 244.13C192.47 242.258 192.041 240.345 191.559 238.398C192.909 237.996 194.235 237.582 195.527 237.152C219.989 229.005 235.904 215.835 235.904 202.366C235.904 189.45 221.012 176.959 197.966 168.985ZM192.661 228.455C191.494 228.843 190.297 229.218 189.077 229.582C186.376 220.989 182.732 211.851 178.272 202.411C182.528 193.195 186.031 184.174 188.656 175.637C190.839 176.272 192.958 176.941 194.999 177.648C214.744 184.48 226.789 194.582 226.789 202.366C226.789 210.657 213.781 221.42 192.661 228.455ZM183.897 245.91C186.032 256.751 186.337 266.553 184.923 274.216C183.652 281.102 181.096 285.692 177.936 287.531C171.212 291.443 156.831 286.358 141.323 272.943C139.545 271.406 137.754 269.764 135.958 268.026C141.97 261.416 147.979 253.733 153.844 245.199C164.159 244.279 173.904 242.775 182.742 240.721C183.177 242.486 183.564 244.217 183.897 245.91ZM95.2727 286.855C88.7028 289.187 83.4702 289.254 80.3072 287.421C73.5766 283.519 70.7785 268.456 74.5952 248.252C75.0324 245.938 75.5527 243.561 76.1524 241.132C84.8933 243.075 94.5674 244.473 104.907 245.315C110.811 253.665 116.994 261.341 123.224 268.061C121.863 269.382 120.507 270.64 119.159 271.825C110.88 279.098 102.584 284.259 95.2727 286.855ZM64.4935 228.404C54.0891 224.829 45.4967 220.184 39.607 215.114C34.3148 210.559 31.6428 206.036 31.6428 202.366C31.6428 194.556 43.2266 184.595 62.5462 177.824C64.8904 177.003 67.3443 176.229 69.8909 175.501C72.561 184.232 76.0636 193.359 80.2904 202.589C76.0089 211.956 72.4565 221.229 69.7603 230.061C67.9448 229.537 66.1859 228.985 64.4935 228.404ZM74.811 157.812C70.801 137.213 73.4642 121.674 80.1659 117.774C87.3043 113.62 103.09 119.543 119.727 134.392C120.79 135.341 121.858 136.334 122.928 137.362C116.729 144.053 110.603 151.671 104.751 159.972C94.7159 160.907 85.1098 162.408 76.2778 164.42C75.7225 162.174 75.2306 159.969 74.811 157.812ZM166.852 180.656C164.741 176.991 162.573 173.412 160.363 169.93C167.171 170.795 173.694 171.944 179.82 173.349C177.981 179.273 175.689 185.467 172.99 191.817C171.055 188.124 169.008 184.4 166.852 180.656ZM129.318 143.91C133.522 148.488 137.733 153.6 141.874 159.146C137.701 158.948 133.476 158.845 129.216 158.845C124.996 158.845 120.803 158.946 116.655 159.141C120.801 153.646 125.048 148.541 129.318 143.91ZM91.5434 180.72C89.4343 184.396 87.4251 188.1 85.52 191.81C82.8655 185.483 80.5947 179.26 78.7397 173.252C84.8276 171.883 91.3197 170.763 98.0844 169.914C95.8436 173.428 93.6581 177.033 91.5434 180.719V180.72ZM98.2793 235.471C91.29 234.688 84.7004 233.626 78.614 232.294C80.4986 226.179 82.8196 219.823 85.5303 213.359C87.4403 217.067 89.4575 220.773 91.5795 224.457H91.5798C93.7413 228.21 95.9807 231.886 98.2793 235.471ZM129.57 261.468C125.25 256.783 120.94 251.6 116.732 246.025C120.817 246.186 124.983 246.269 129.216 246.269C133.565 246.269 137.865 246.17 142.096 245.981C137.941 251.656 133.746 256.847 129.57 261.468ZM173.077 213.03C175.929 219.564 178.334 225.886 180.242 231.897C174.056 233.316 167.376 234.458 160.338 235.307C162.553 231.779 164.74 228.138 166.888 224.394C169.062 220.605 171.126 216.811 173.077 213.03ZM158.993 219.816C155.657 225.63 152.233 231.179 148.756 236.417C142.425 236.872 135.883 237.106 129.216 237.106C122.576 237.106 116.117 236.899 109.897 236.493C106.281 231.186 102.782 225.621 99.4677 219.866H99.4684C96.163 214.128 93.1207 208.341 90.3641 202.586C93.12 196.818 96.1542 191.024 99.4407 185.296L99.4399 185.297C102.735 179.553 106.203 174.015 109.786 168.741C116.132 168.259 122.639 168.007 129.216 168.007H129.216C135.822 168.007 142.338 168.261 148.682 168.747C152.21 173.982 155.654 179.503 158.963 185.247C162.308 191.056 165.382 196.811 168.161 202.456C165.39 208.197 162.323 214.01 158.993 219.816ZM177.796 117.502C184.942 121.643 187.72 138.347 183.231 160.251C182.945 161.648 182.622 163.072 182.272 164.515C173.42 162.462 163.807 160.934 153.742 159.985C147.879 151.592 141.803 143.963 135.705 137.358C137.344 135.772 138.982 134.26 140.612 132.834C156.365 119.054 171.088 113.613 177.796 117.502ZM129.216 183.214C139.739 183.214 148.27 191.789 148.27 202.366C148.27 212.943 139.739 221.518 129.216 221.518C118.693 221.518 110.162 212.943 110.162 202.366C110.162 191.789 118.693 183.214 129.216 183.214Z" fill="#00D8FF"/>
<path d="M117.735 84.4182H130.642V85.1815H118.918V90.9262H129.943V91.6895H118.918V97.9966H130.777V98.7599H117.735V84.4182ZM131.799 84.4182H133.17L139.247 90.7254L145.459 84.4182L153.907 76.4067L140.027 91.3882L147.18 98.7599H145.754L139.247 92.0511L132.713 98.7599H131.315L138.521 91.3882L131.799 84.4182ZM147.69 85.1815V84.4182H162.399V85.1815H155.623V98.7599H154.44V85.1815H147.69ZM101.588 84.4182H103.067L123.46 107.124L115.033 98.7599L102.825 85.5029L102.771 98.7599H101.588V84.4182ZM162.28 97.7663C162.038 97.7663 161.857 97.6269 161.857 97.4469C161.857 97.2668 162.038 97.1274 162.28 97.1274C162.525 97.1274 162.703 97.2668 162.703 97.4469C162.703 97.6269 162.525 97.7663 162.28 97.7663ZM163.443 96.9259H164.076C164.084 97.181 164.335 97.3525 164.703 97.3525C165.115 97.3525 165.348 97.1681 165.348 96.823V94.6362H165.992V96.8251C165.992 97.4469 165.509 97.8049 164.709 97.8049C163.958 97.8049 163.443 97.4576 163.443 96.9259ZM166.836 96.898H167.474C167.529 97.1917 167.915 97.3783 168.47 97.3783C168.988 97.3783 169.368 97.1789 169.368 96.9045C169.368 96.6686 169.126 96.5271 168.577 96.4307L168.041 96.3342C167.29 96.2034 166.948 95.9333 166.948 95.4788C166.948 94.9278 167.552 94.5612 168.459 94.5612C169.302 94.5612 169.918 94.9278 169.955 95.4488H169.328C169.267 95.1636 168.933 94.9857 168.45 94.9857C167.941 94.9857 167.601 95.1679 167.601 95.4466C167.601 95.6674 167.82 95.7939 168.361 95.8882L168.818 95.9719C169.67 96.1198 170.021 96.3771 170.021 96.8423C170.021 97.434 169.405 97.8049 168.421 97.8049C167.5 97.8049 166.882 97.4511 166.836 96.898Z" fill="black"/>
<path d="M211.251 152.159V129.144L228.466 140.652V148.323L216.989 140.652V155.995L211.251 152.159Z" fill="#00B0FF"/>
<path d="M228.466 140.652L245.681 129.144V152.159L234.204 159.831L228.466 155.995L239.942 148.323V140.652L228.466 148.323V140.652Z" fill="#0081CB"/>
<path d="M228.466 155.995V163.667L239.942 171.338V163.667L228.466 155.995Z" fill="#00B0FF"/>
<path d="M239.942 171.338L257.157 159.831V144.487L251.419 148.323V155.995L239.942 163.667V171.338ZM251.419 140.652V132.98L257.157 129.144V136.816L251.419 140.652Z" fill="#0081CB"/>
<path d="M0 115.441H43.7804V158.212H0V115.441Z" fill="#F7DF1E"/>
<path d="M11.5115 151.183L14.8619 149.202C15.5082 150.322 16.0962 151.269 17.5066 151.269C18.8585 151.269 19.7108 150.753 19.7108 148.743V135.077H23.825V148.8C23.825 152.963 21.3272 154.858 17.6829 154.858C14.3917 154.858 12.4812 153.193 11.5114 151.183" fill="black"/>
<path d="M26.0598 150.753L29.4098 148.858C30.2916 150.265 31.4378 151.298 33.4654 151.298C35.1702 151.298 36.2573 150.466 36.2573 149.317C36.2573 147.939 35.1406 147.451 33.2597 146.647L32.2314 146.216C29.263 144.982 27.2939 143.432 27.2939 140.159C27.2939 137.144 29.6449 134.847 33.3186 134.847C35.9342 134.847 37.815 135.737 39.1667 138.063L35.9634 140.073C35.258 138.838 34.4941 138.35 33.3187 138.35C32.1137 138.35 31.3496 139.097 31.3496 140.073C31.3496 141.278 32.1137 141.767 33.8768 142.513L34.9053 142.944C38.4026 144.408 40.3716 145.901 40.3716 149.26C40.3716 152.878 37.4623 154.859 33.5537 154.859C29.7333 154.859 27.2646 153.079 26.0599 150.753" fill="black"/>
<path d="M22.7126 298.006L4.20372 293.348L0.0791016 251.413H45.4016L41.2726 293.342L22.7126 298.006Z" fill="#264DE4"/>
<path d="M37.7377 290.672L41.2662 254.842H22.7404V294.44L37.7377 290.672Z" fill="#2965F1"/>
<path d="M9.53467 270.395L10.0432 275.538H22.7403V270.395H9.53467Z" fill="#EBEBEB"/>
<path d="M8.51288 259.985L9.02866 265.128H22.7403V259.985H8.51288Z" fill="#EBEBEB"/>
<path d="M22.7403 283.752L22.7155 283.758L16.3964 282.212L15.9925 278.11H10.2968L11.0917 286.185L22.7142 289.11L22.7403 289.103V283.752Z" fill="#EBEBEB"/>
<path d="M10.7454 240.017H17.6175V242.622H13.6192V245.227H17.6175V247.832H10.7454V240.017Z" fill="black"/>
<path d="M18.9919 240.017H25.864V242.282H21.8657V242.735H25.864V247.945H18.9919V245.567H22.9902V245.114H18.9919V240.017Z" fill="black"/>
<path d="M27.2384 240.017H34.1105V242.282H30.1122V242.735H34.1105V247.945H27.2384V245.567H31.2367V245.114H27.2384V240.017Z" fill="black"/>
<path d="M35.9096 270.395L36.9339 259.985H22.7207V265.128H30.7158L30.1995 270.395H22.7207V275.538H29.7075L29.0489 282.208L22.7207 283.757V289.107L34.3525 286.185L34.4378 285.316L35.7712 271.776L35.9096 270.395Z" fill="white"/>
<path d="M256.232 252.602L252.335 289.739L234.815 293.87L217.345 289.745L213.451 252.602H256.232Z" fill="#E44D26"/>
<path d="M234.842 290.712L248.998 287.374L252.329 255.639H234.842V290.712Z" fill="#F16529"/>
<path d="M227.265 264.75H234.842V260.195H221.412L221.54 261.417L222.857 273.97H234.842V269.415H227.755L227.265 264.75Z" fill="#EBEBEB"/>
<path d="M228.472 276.248H223.096L223.846 283.4L234.817 285.991L234.842 285.985V281.246L234.818 281.251L228.853 279.881L228.472 276.248Z" fill="#EBEBEB"/>
<path d="M217.432 242.509H220.153V244.796H222.643V242.509H225.365V249.435H222.643V247.115H220.153V249.435H217.432V242.509H217.432Z" fill="black"/>
<path d="M228.944 244.805H226.548V242.509H234.063V244.805H231.666V249.435H228.944V244.805H228.944Z" fill="black"/>
<path d="M235.256 242.509H238.094L239.84 244.942L241.584 242.509H244.423V249.435H241.712V246.002L239.84 248.464H239.793L237.919 246.002V249.435H235.256V242.509Z" fill="black"/>
<path d="M245.777 242.509H248.5V247.145H252.327V249.435H245.777V242.509Z" fill="black"/>
<path d="M234.823 273.97H241.418L240.796 279.878L234.823 281.249V285.989L245.803 283.4L245.883 282.631L247.142 270.638L247.272 269.415H234.823V273.97Z" fill="white"/>
<path d="M234.823 264.739V264.75H247.76L247.867 263.726L248.111 261.417L248.239 260.195H234.823V264.739Z" fill="white"/>
</svg>
